<?xml version="1.0" standalone="no"?>
<!DOCTYPE svg PUBLIC "-//W3C//DTD SVG 1.1//EN" "http://www.w3.org/Graphics/SVG/1.1/DTD/svg11.dtd">
<svg width="203mm" height="177mm" viewBox="12 -187 203 177" xmlns="http://www.w3.org/2000/svg" version="1.1">
<title>OpenSCAD Model</title>
<path d="
M 127.717,-47.5283 L 130.675,-48.1836 L 207.808,-48.1836 L 214.808,-55.1836 L 214.808,-179.614 L 207.808,-186.614
 L 152.298,-186.614 L 142.993,-181.501 L 132.292,-181.501 L 123.012,-186.614 L 103.937,-186.614 L 90.0566,-181.501
 L 82.7139,-181.501 L 68.834,-186.614 L 60.7207,-186.614 L 53.7207,-179.614 L 53.7207,-100.726 L 49.6787,-94.3809
 L 16.2686,-78.8027 L 12.8828,-69.5 L 38.8477,-13.8193 L 48.1494,-10.4326 z
M 58.7773,-179.468 L 58.7773,-181.231 L 60.4551,-181.776 L 61.4912,-180.35 L 60.4551,-178.923 z
M 207.33,-179.468 L 207.33,-181.231 L 209.008,-181.776 L 210.044,-180.35 L 209.008,-178.923 z
M 80,-166.5 L 80,-180 L 92.7705,-180 L 92.7705,-166.5 z
M 159.219,-158 L 159.219,-160 L 119,-160 L 119,-172.847 L 131,-172.847 L 131,-177.5
 L 192,-177.5 L 192,-158 z
M 45.6816,-20.0947 L 22.1729,-70.5088 L 22.665,-71.8584 L 55.8135,-87.3164 L 57.1641,-86.8252 L 64.1416,-71.8623
 L 66.167,-71.125 L 76.6289,-76.0029 L 76.1992,-77.9404 L 63.6396,-77.9404 L 62.624,-78.9561 L 62.624,-153.632
 L 63.6396,-154.648 L 99.1992,-154.648 L 100.52,-155.41 L 101.399,-155.918 L 118.25,-155.918 L 119.662,-156.87
 L 120.604,-157.506 L 138.501,-157.506 L 139.443,-156.87 L 140.855,-155.918 L 157.365,-155.918 L 158.382,-154.902
 L 158.382,-154.267 L 159.905,-152.743 L 204.918,-152.743 L 205.918,-151.743 L 205.918,-77.0352 L 204.918,-76.0352
 L 198.006,-76.0352 L 196.481,-74.5107 L 196.481,-58.001 L 195.466,-56.9854 L 158.89,-56.9854 L 157.874,-58.001
 L 157.874,-58.6357 L 156.35,-60.1602 L 139.654,-60.1602 L 138.713,-60.7949 L 137.3,-61.7471 L 121.806,-61.7471
 L 120.393,-60.7949 L 119.451,-60.1602 L 101.739,-60.1602 L 100.724,-61.1758 L 100.724,-76.416 L 99.1992,-77.9404
 L 84.7188,-77.9404 L 83.3369,-75.7715 L 97.9375,-44.4619 L 97.4463,-43.1113 L 47.0322,-19.6025 z
M 17.0361,-71.9326 L 17.0361,-73.6963 L 18.7129,-74.2412 L 19.749,-72.8145 L 18.7129,-71.3877 z
M 207.33,-55.1533 L 207.33,-56.917 L 209.008,-57.4619 L 210.044,-56.0352 L 209.008,-54.6084 z
M 126.925,-51.7471 L 126.925,-53.5107 L 128.602,-54.0557 L 129.638,-52.6289 L 128.602,-51.2021 z
M 43.6221,-14.917 L 43.6221,-16.6797 L 45.2988,-17.2246 L 46.3359,-15.7979 L 45.2988,-14.3721 z
" stroke="black" fill="lightgray" stroke-width="0.5"/>
</svg>
