<?xml version="1.0" standalone="no"?>
<!DOCTYPE svg PUBLIC "-//W3C//DTD SVG 1.1//EN" "http://www.w3.org/Graphics/SVG/1.1/DTD/svg11.dtd">
<svg width="203mm" height="177mm" viewBox="12 -187 203 177" xmlns="http://www.w3.org/2000/svg" version="1.1">
<title>OpenSCAD Model</title>
<path d="
M 127.717,-47.5283 L 130.675,-48.1836 L 207.808,-48.1836 L 214.808,-55.1836 L 214.808,-179.613 L 207.808,-186.613
 L 152.299,-186.614 L 142.993,-181.501 L 141.493,-181.501 L 141.493,-177.5 L 192,-177.5 L 192,-158
 L 159.219,-158 L 159.219,-160 L 119,-160 L 119,-172.847 L 131,-172.847 L 131,-177.5
 L 133.792,-177.5 L 133.792,-181.501 L 132.292,-181.501 L 123.012,-186.614 L 103.937,-186.614 L 90.0566,-181.501
 L 89.5,-181.501 L 89.5,-180 L 92.7705,-180 L 92.7705,-177.5 L 95.7676,-177.5 L 95.7666,-169.541
 L 92.7705,-169.543 L 92.7705,-166.5 L 80,-166.5 L 80,-168.5 L 77.0049,-168.498 L 77.0039,-176.457
 L 80,-176.457 L 80,-180 L 83.5,-180 L 83.5,-181.501 L 82.7139,-181.501 L 68.834,-186.614
 L 60.7207,-186.613 L 53.7207,-179.613 L 53.7207,-100.725 L 49.6787,-94.3809 L 16.2686,-78.8027 L 12.8828,-69.5
 L 38.8477,-13.8184 L 48.1494,-10.4326 z
M 112.261,-181.287 L 112.261,-183.051 L 113.938,-183.596 L 114.975,-182.169 L 113.938,-180.742 z
M 58.7773,-179.468 L 58.7773,-181.231 L 60.4551,-181.776 L 61.4912,-180.35 L 60.4551,-178.923 z
M 207.33,-179.468 L 207.33,-181.231 L 209.008,-181.776 L 210.044,-180.35 L 209.008,-178.923 z
M 97,-170.505 L 97,-172.502 L 101.749,-177.251 L 111.648,-167.352 L 105.901,-161.604 z
M 122.555,-140.767 L 122.555,-141.747 L 121.742,-141.747 L 121.742,-145.247 L 122.555,-145.247 L 122.555,-150.256
 L 121.742,-150.256 L 121.742,-153.757 L 122.555,-153.757 L 122.555,-154.736 L 136.525,-154.736 L 136.525,-153.757
 L 137.338,-153.757 L 137.338,-150.256 L 136.525,-150.256 L 136.525,-145.247 L 137.338,-145.247 L 137.338,-141.747
 L 136.525,-141.747 L 136.525,-140.767 z
M 103.505,-139.169 L 103.505,-140.149 L 102.692,-140.149 L 102.692,-143.649 L 103.505,-143.649 L 103.505,-148.658
 L 102.692,-148.658 L 102.692,-152.159 L 103.505,-152.159 L 103.505,-153.139 L 117.475,-153.139 L 117.475,-152.159
 L 118.288,-152.159 L 118.288,-148.658 L 117.475,-148.658 L 117.475,-143.649 L 118.288,-143.649 L 118.288,-140.149
 L 117.475,-140.149 L 117.475,-139.169 z
M 141.605,-139.169 L 141.605,-140.149 L 140.792,-140.149 L 140.792,-143.649 L 141.605,-143.649 L 141.605,-148.658
 L 140.792,-148.658 L 140.792,-152.159 L 141.605,-152.159 L 141.605,-153.139 L 155.575,-153.139 L 155.575,-152.159
 L 156.388,-152.159 L 156.388,-148.658 L 155.575,-148.658 L 155.575,-143.649 L 156.388,-143.649 L 156.388,-140.149
 L 155.575,-140.149 L 155.575,-139.169 z
M 65.4053,-137.896 L 65.4053,-138.877 L 64.5918,-138.877 L 64.5918,-142.377 L 65.4053,-142.377 L 65.4053,-147.386
 L 64.5918,-147.386 L 64.5918,-150.886 L 65.4053,-150.886 L 65.4053,-151.866 L 79.375,-151.866 L 79.375,-150.886
 L 80.1875,-150.886 L 80.1875,-147.386 L 79.375,-147.386 L 79.375,-142.377 L 80.1875,-142.377 L 80.1875,-138.877
 L 79.375,-138.877 L 79.375,-137.896 z
M 84.4551,-137.896 L 84.4551,-138.877 L 83.6426,-138.877 L 83.6426,-142.377 L 84.4551,-142.377 L 84.4551,-147.386
 L 83.6426,-147.386 L 83.6426,-150.886 L 84.4551,-150.886 L 84.4551,-151.866 L 98.4248,-151.866 L 98.4248,-150.886
 L 99.2383,-150.886 L 99.2383,-147.386 L 98.4248,-147.386 L 98.4248,-142.377 L 99.2383,-142.377 L 99.2383,-138.877
 L 98.4248,-138.877 L 98.4248,-137.896 z
M 184.468,-135.991 L 184.468,-136.972 L 183.654,-136.972 L 183.654,-140.472 L 184.468,-140.472 L 184.468,-145.481
 L 183.654,-145.481 L 183.654,-148.981 L 184.468,-148.981 L 184.468,-149.962 L 198.438,-149.962 L 198.438,-148.981
 L 199.25,-148.981 L 199.25,-145.481 L 198.438,-145.481 L 198.438,-140.472 L 199.25,-140.472 L 199.25,-136.972
 L 198.438,-136.972 L 198.438,-135.991 z
M 160.655,-135.991 L 160.655,-136.972 L 159.842,-136.972 L 159.842,-140.472 L 160.655,-140.472 L 160.655,-145.481
 L 159.842,-145.481 L 159.842,-148.981 L 160.655,-148.981 L 160.655,-149.962 L 174.625,-149.962 L 174.625,-148.981
 L 175.438,-148.981 L 175.438,-145.481 L 174.625,-145.481 L 174.625,-140.472 L 175.438,-140.472 L 175.438,-136.972
 L 174.625,-136.972 L 174.625,-135.991 z
M 122.555,-121.717 L 122.555,-122.697 L 121.742,-122.697 L 121.742,-126.197 L 122.555,-126.197 L 122.555,-131.206
 L 121.742,-131.206 L 121.742,-134.706 L 122.555,-134.706 L 122.555,-135.687 L 136.525,-135.687 L 136.525,-134.706
 L 137.338,-134.706 L 137.338,-131.206 L 136.525,-131.206 L 136.525,-126.197 L 137.338,-126.197 L 137.338,-122.697
 L 136.525,-122.697 L 136.525,-121.717 z
M 103.505,-120.119 L 103.505,-121.1 L 102.692,-121.1 L 102.692,-124.6 L 103.505,-124.6 L 103.505,-129.608
 L 102.692,-129.608 L 102.692,-133.108 L 103.505,-133.108 L 103.505,-134.089 L 117.475,-134.089 L 117.475,-133.108
 L 118.288,-133.108 L 118.288,-129.608 L 117.475,-129.608 L 117.475,-124.6 L 118.288,-124.6 L 118.288,-121.1
 L 117.475,-121.1 L 117.475,-120.119 z
M 141.605,-120.119 L 141.605,-121.1 L 140.792,-121.1 L 140.792,-124.6 L 141.605,-124.6 L 141.605,-129.608
 L 140.792,-129.608 L 140.792,-133.108 L 141.605,-133.108 L 141.605,-134.089 L 155.575,-134.089 L 155.575,-133.108
 L 156.388,-133.108 L 156.388,-129.608 L 155.575,-129.608 L 155.575,-124.6 L 156.388,-124.6 L 156.388,-121.1
 L 155.575,-121.1 L 155.575,-120.119 z
M 84.4551,-118.85 L 84.4551,-119.829 L 83.6426,-119.829 L 83.6426,-123.33 L 84.4551,-123.33 L 84.4551,-128.339
 L 83.6426,-128.339 L 83.6426,-131.839 L 84.4551,-131.839 L 84.4551,-132.819 L 98.4248,-132.819 L 98.4248,-131.839
 L 99.2383,-131.839 L 99.2383,-128.339 L 98.4248,-128.339 L 98.4248,-123.33 L 99.2383,-123.33 L 99.2383,-119.829
 L 98.4248,-119.829 L 98.4248,-118.85 z
M 160.655,-116.944 L 160.655,-117.925 L 159.842,-117.925 L 159.842,-121.425 L 160.655,-121.425 L 160.655,-126.434
 L 159.842,-126.434 L 159.842,-129.934 L 160.655,-129.934 L 160.655,-130.914 L 174.625,-130.914 L 174.625,-129.934
 L 175.438,-129.934 L 175.438,-126.434 L 174.625,-126.434 L 174.625,-121.425 L 175.438,-121.425 L 175.438,-117.925
 L 174.625,-117.925 L 174.625,-116.944 z
M 184.468,-116.944 L 184.468,-117.925 L 183.654,-117.925 L 183.654,-121.425 L 184.468,-121.425 L 184.468,-126.434
 L 183.654,-126.434 L 183.654,-129.934 L 184.468,-129.934 L 184.468,-130.914 L 198.438,-130.914 L 198.438,-129.934
 L 199.25,-129.934 L 199.25,-126.434 L 198.438,-126.434 L 198.438,-121.425 L 199.25,-121.425 L 199.25,-117.925
 L 198.438,-117.925 L 198.438,-116.944 z
M 66.3857,-113.273 L 66.3857,-114.087 L 65.4053,-114.087 L 65.4053,-128.057 L 66.3857,-128.057 L 66.3857,-128.869
 L 69.8857,-128.869 L 69.8857,-128.057 L 74.8945,-128.057 L 74.8945,-128.869 L 78.3945,-128.869 L 78.3945,-128.057
 L 79.375,-128.057 L 79.375,-114.087 L 78.3945,-114.087 L 78.3945,-113.273 L 74.8945,-113.273 L 74.8945,-114.087
 L 69.8857,-114.087 L 69.8857,-113.273 z
M 137.807,-117.493 L 137.807,-119.285 L 139.511,-119.839 L 140.563,-118.39 L 139.511,-116.94 z
M 122.555,-102.667 L 122.555,-103.647 L 121.742,-103.647 L 121.742,-107.147 L 122.555,-107.147 L 122.555,-112.156
 L 121.742,-112.156 L 121.742,-115.656 L 122.555,-115.656 L 122.555,-116.637 L 136.525,-116.637 L 136.525,-115.656
 L 137.338,-115.656 L 137.338,-112.156 L 136.525,-112.156 L 136.525,-107.147 L 137.338,-107.147 L 137.338,-103.647
 L 136.525,-103.647 L 136.525,-102.667 z
M 141.605,-101.069 L 141.605,-102.05 L 140.792,-102.05 L 140.792,-105.55 L 141.605,-105.55 L 141.605,-110.559
 L 140.792,-110.559 L 140.792,-114.059 L 141.605,-114.059 L 141.605,-115.039 L 155.575,-115.039 L 155.575,-114.059
 L 156.388,-114.059 L 156.388,-110.559 L 155.575,-110.559 L 155.575,-105.55 L 156.388,-105.55 L 156.388,-102.05
 L 155.575,-102.05 L 155.575,-101.069 z
M 103.505,-101.069 L 103.505,-102.05 L 102.692,-102.05 L 102.692,-105.55 L 103.505,-105.55 L 103.505,-110.559
 L 102.692,-110.559 L 102.692,-114.059 L 103.505,-114.059 L 103.505,-115.039 L 117.475,-115.039 L 117.475,-114.059
 L 118.288,-114.059 L 118.288,-110.559 L 117.475,-110.559 L 117.475,-105.55 L 118.288,-105.55 L 118.288,-102.05
 L 117.475,-102.05 L 117.475,-101.069 z
M 84.4551,-99.7988 L 84.4551,-100.779 L 83.6426,-100.779 L 83.6426,-104.279 L 84.4551,-104.279 L 84.4551,-109.289
 L 83.6426,-109.289 L 83.6426,-112.789 L 84.4551,-112.789 L 84.4551,-113.77 L 98.4248,-113.77 L 98.4248,-112.789
 L 99.2383,-112.789 L 99.2383,-109.289 L 98.4248,-109.289 L 98.4248,-104.279 L 99.2383,-104.279 L 99.2383,-100.779
 L 98.4248,-100.779 L 98.4248,-99.7988 z
M 184.468,-97.8945 L 184.468,-98.875 L 183.654,-98.875 L 183.654,-102.375 L 184.468,-102.375 L 184.468,-107.384
 L 183.654,-107.384 L 183.654,-110.884 L 184.468,-110.884 L 184.468,-111.864 L 198.438,-111.864 L 198.438,-110.884
 L 199.25,-110.884 L 199.25,-107.384 L 198.438,-107.384 L 198.438,-102.375 L 199.25,-102.375 L 199.25,-98.875
 L 198.438,-98.875 L 198.438,-97.8945 z
M 160.655,-97.8945 L 160.655,-98.875 L 159.842,-98.875 L 159.842,-102.375 L 160.655,-102.375 L 160.655,-107.384
 L 159.842,-107.384 L 159.842,-110.884 L 160.655,-110.884 L 160.655,-111.864 L 174.625,-111.864 L 174.625,-110.884
 L 175.438,-110.884 L 175.438,-107.384 L 174.625,-107.384 L 174.625,-102.375 L 175.438,-102.375 L 175.438,-98.875
 L 174.625,-98.875 L 174.625,-97.8945 z
M 66.3857,-84.6992 L 66.3857,-85.5117 L 65.4053,-85.5117 L 65.4053,-99.4814 L 66.3857,-99.4814 L 66.3857,-100.295
 L 69.8857,-100.295 L 69.8857,-99.4814 L 74.8945,-99.4814 L 74.8945,-100.295 L 78.3945,-100.295 L 78.3945,-99.4814
 L 79.375,-99.4814 L 79.375,-85.5117 L 78.3945,-85.5117 L 78.3945,-84.6992 L 74.8945,-84.6992 L 74.8945,-85.5117
 L 69.8857,-85.5117 L 69.8857,-84.6992 z
M 122.555,-83.6172 L 122.555,-84.5977 L 121.742,-84.5977 L 121.742,-88.0977 L 122.555,-88.0977 L 122.555,-93.1064
 L 121.742,-93.1064 L 121.742,-96.6064 L 122.555,-96.6064 L 122.555,-97.5869 L 136.525,-97.5869 L 136.525,-96.6064
 L 137.338,-96.6064 L 137.338,-93.1064 L 136.525,-93.1064 L 136.525,-88.0977 L 137.338,-88.0977 L 137.338,-84.5977
 L 136.525,-84.5977 L 136.525,-83.6172 z
M 141.605,-82.0195 L 141.605,-83 L 140.792,-83 L 140.792,-86.5 L 141.605,-86.5 L 141.605,-91.5088
 L 140.792,-91.5088 L 140.792,-95.0088 L 141.605,-95.0088 L 141.605,-95.9893 L 155.575,-95.9893 L 155.575,-95.0088
 L 156.388,-95.0088 L 156.388,-91.5088 L 155.575,-91.5088 L 155.575,-86.5 L 156.388,-86.5 L 156.388,-83
 L 155.575,-83 L 155.575,-82.0195 z
M 103.505,-82.0195 L 103.505,-83 L 102.692,-83 L 102.692,-86.5 L 103.505,-86.5 L 103.505,-91.5088
 L 102.692,-91.5088 L 102.692,-95.0088 L 103.505,-95.0088 L 103.505,-95.9893 L 117.475,-95.9893 L 117.475,-95.0088
 L 118.288,-95.0088 L 118.288,-91.5088 L 117.475,-91.5088 L 117.475,-86.5 L 118.288,-86.5 L 118.288,-83
 L 117.475,-83 L 117.475,-82.0195 z
M 84.4551,-80.749 L 84.4551,-81.7295 L 83.6426,-81.7295 L 83.6426,-85.2295 L 84.4551,-85.2295 L 84.4551,-90.2383
 L 83.6426,-90.2383 L 83.6426,-93.7383 L 84.4551,-93.7383 L 84.4551,-94.7188 L 98.4248,-94.7188 L 98.4248,-93.7383
 L 99.2383,-93.7383 L 99.2383,-90.2383 L 98.4248,-90.2383 L 98.4248,-85.2295 L 99.2383,-85.2295 L 99.2383,-81.7295
 L 98.4248,-81.7295 L 98.4248,-80.749 z
M 184.468,-78.8438 L 184.468,-79.8242 L 183.654,-79.8242 L 183.654,-83.3242 L 184.468,-83.3242 L 184.468,-88.334
 L 183.654,-88.334 L 183.654,-91.834 L 184.468,-91.834 L 184.468,-92.8145 L 198.438,-92.8145 L 198.438,-91.834
 L 199.25,-91.834 L 199.25,-88.334 L 198.438,-88.334 L 198.438,-83.3242 L 199.25,-83.3242 L 199.25,-79.8242
 L 198.438,-79.8242 L 198.438,-78.8438 z
M 160.655,-78.8438 L 160.655,-79.8242 L 159.842,-79.8242 L 159.842,-83.3242 L 160.655,-83.3242 L 160.655,-88.334
 L 159.842,-88.334 L 159.842,-91.834 L 160.655,-91.834 L 160.655,-92.8145 L 174.625,-92.8145 L 174.625,-91.834
 L 175.438,-91.834 L 175.438,-88.334 L 174.625,-88.334 L 174.625,-83.3242 L 175.438,-83.3242 L 175.438,-79.8242
 L 174.625,-79.8242 L 174.625,-78.8438 z
M 48.1709,-66.3672 L 47.4346,-66.0244 L 45.9541,-69.1973 L 46.6904,-69.54 L 44.5742,-74.0791 L 43.8379,-73.7363
 L 42.3594,-76.9082 L 43.0957,-77.252 L 42.6797,-78.1406 L 55.3418,-84.0459 L 55.7559,-83.1572 L 56.4922,-83.5
 L 57.9727,-80.3271 L 57.2363,-79.9844 L 59.3525,-75.4453 L 60.0889,-75.7881 L 61.5674,-72.6162 L 60.8301,-72.2734
 L 61.2471,-71.3838 L 48.585,-65.4785 z
M 122.555,-64.5664 L 122.555,-65.5469 L 121.742,-65.5469 L 121.742,-69.0469 L 122.555,-69.0469 L 122.555,-74.0566
 L 121.742,-74.0566 L 121.742,-77.5566 L 122.555,-77.5566 L 122.555,-78.5371 L 136.525,-78.5371 L 136.525,-77.5566
 L 137.338,-77.5566 L 137.338,-74.0566 L 136.525,-74.0566 L 136.525,-69.0469 L 137.338,-69.0469 L 137.338,-65.5469
 L 136.525,-65.5469 L 136.525,-64.5664 z
M 103.505,-62.9688 L 103.505,-63.9492 L 102.692,-63.9492 L 102.692,-67.4492 L 103.505,-67.4492 L 103.505,-72.459
 L 102.692,-72.459 L 102.692,-75.959 L 103.505,-75.959 L 103.505,-76.9395 L 117.475,-76.9395 L 117.475,-75.959
 L 118.288,-75.959 L 118.288,-72.459 L 117.475,-72.459 L 117.475,-67.4492 L 118.288,-67.4492 L 118.288,-63.9492
 L 117.475,-63.9492 L 117.475,-62.9688 z
M 141.605,-62.9688 L 141.605,-63.9492 L 140.792,-63.9492 L 140.792,-67.4492 L 141.605,-67.4492 L 141.605,-72.459
 L 140.792,-72.459 L 140.792,-75.959 L 141.605,-75.959 L 141.605,-76.9395 L 155.575,-76.9395 L 155.575,-75.959
 L 156.388,-75.959 L 156.388,-72.459 L 155.575,-72.459 L 155.575,-67.4492 L 156.388,-67.4492 L 156.388,-63.9492
 L 155.575,-63.9492 L 155.575,-62.9688 z
M 30.9062,-58.3184 L 30.1699,-57.9756 L 28.6895,-61.1484 L 29.4258,-61.4912 L 27.3105,-66.0303 L 26.5732,-65.6865
 L 25.0947,-68.8594 L 25.832,-69.2021 L 25.415,-70.0908 L 38.0771,-75.9971 L 38.4912,-75.1074 L 39.2275,-75.4512
 L 40.709,-72.2783 L 39.9717,-71.9355 L 42.0879,-67.3965 L 42.8242,-67.7393 L 44.3027,-64.5664 L 43.5664,-64.2236
 L 43.9824,-63.335 L 31.3203,-57.4297 z
M 17.0361,-71.9326 L 17.0361,-73.6963 L 18.7129,-74.2412 L 19.749,-72.8145 L 18.7129,-71.3877 z
M 160.655,-59.7939 L 160.655,-60.7744 L 159.842,-60.7744 L 159.842,-64.2744 L 160.655,-64.2744 L 160.655,-69.2832
 L 159.842,-69.2832 L 159.842,-72.7842 L 160.655,-72.7842 L 160.655,-73.7637 L 174.625,-73.7637 L 174.625,-72.7842
 L 175.438,-72.7842 L 175.438,-69.2832 L 174.625,-69.2832 L 174.625,-64.2744 L 175.438,-64.2744 L 175.438,-60.7744
 L 174.625,-60.7744 L 174.625,-59.7939 z
M 179.705,-59.7939 L 179.705,-60.7744 L 178.893,-60.7744 L 178.893,-64.2744 L 179.705,-64.2744 L 179.705,-69.2832
 L 178.893,-69.2832 L 178.893,-72.7842 L 179.705,-72.7842 L 179.705,-73.7637 L 193.675,-73.7637 L 193.675,-72.7842
 L 194.488,-72.7842 L 194.488,-69.2832 L 193.675,-69.2832 L 193.675,-64.2744 L 194.488,-64.2744 L 194.488,-60.7744
 L 193.675,-60.7744 L 193.675,-59.7939 z
M 68.5391,-65.959 L 81.1982,-71.8613 L 82.5957,-68.8691 L 69.9336,-62.9668 z
M 78.8135,-48.0488 L 77.9248,-47.6328 L 72.0195,-60.2949 L 72.9082,-60.709 L 72.5654,-61.4453 L 75.7373,-62.9258
 L 76.0811,-62.1895 L 80.6191,-64.3057 L 80.2764,-65.042 L 83.4492,-66.5205 L 83.792,-65.7832 L 84.6807,-66.2002
 L 90.5869,-53.5381 L 89.6973,-53.124 L 90.04,-52.3877 L 86.8682,-50.9062 L 86.5254,-51.6436 L 81.9863,-49.5273
 L 82.3291,-48.791 L 79.1562,-47.3125 z
M 52.6572,-58.5498 L 65.3164,-64.4551 L 66.7129,-61.4629 L 54.0508,-55.5576 z
M 38.9561,-41.0537 L 38.2197,-40.7109 L 36.7383,-43.8838 L 37.4756,-44.2266 L 35.3594,-48.7656 L 34.623,-48.4229
 L 33.1445,-51.5947 L 33.8809,-51.9375 L 33.4648,-52.8271 L 46.126,-58.7324 L 46.54,-57.8438 L 47.2773,-58.1865
 L 48.7578,-55.0137 L 48.0215,-54.6709 L 50.1367,-50.1318 L 50.874,-50.4746 L 52.3516,-47.3027 L 51.6152,-46.96
 L 52.0322,-46.0703 L 39.3701,-40.165 z
M 61.5488,-39.9971 L 60.6602,-39.5811 L 54.7549,-52.2432 L 55.6436,-52.6572 L 55.3008,-53.3936 L 58.4736,-54.874
 L 58.8164,-54.1377 L 63.3555,-56.2529 L 63.0127,-56.9902 L 66.1846,-58.4678 L 66.5273,-57.7314 L 67.417,-58.1484
 L 73.3223,-45.4863 L 72.4336,-45.0723 L 72.7764,-44.3359 L 69.6035,-42.8545 L 69.2607,-43.5918 L 64.7217,-41.4756
 L 65.0645,-40.7393 L 61.8926,-39.2607 z
M 207.33,-55.1533 L 207.33,-56.917 L 209.008,-57.4619 L 210.044,-56.0352 L 209.008,-54.6084 z
M 126.925,-51.7471 L 126.925,-53.5107 L 128.602,-54.0557 L 129.638,-52.6289 L 128.602,-51.2021 z
M 78.6279,-44.3184 L 91.29,-50.2236 L 92.6846,-47.2314 L 80.0254,-41.3262 z
M 52.666,-43.249 L 52.666,-45.041 L 54.3701,-45.5947 L 55.4229,-44.1455 L 54.3701,-42.6953 z
M 62.7461,-36.9111 L 75.4072,-42.8145 L 76.8018,-39.8223 L 64.1426,-33.9189 z
M 47.0078,-23.7871 L 46.2715,-23.4443 L 44.79,-26.6162 L 45.5273,-26.96 L 43.4111,-31.499 L 42.6748,-31.1553
 L 41.1963,-34.3281 L 41.9326,-34.6709 L 41.5166,-35.5596 L 54.1777,-41.4658 L 54.5918,-40.5762 L 55.3291,-40.9189
 L 56.8096,-37.7471 L 56.0732,-37.4043 L 58.1885,-32.8652 L 58.9258,-33.208 L 60.4033,-30.0352 L 59.667,-29.6924
 L 60.084,-28.8037 L 47.4219,-22.8984 z
M 43.6221,-14.916 L 43.6221,-16.6797 L 45.2988,-17.2246 L 46.3359,-15.7979 L 45.2988,-14.3711 z
" stroke="black" fill="lightgray" stroke-width="0.5"/>
</svg>
