solid OpenSCAD_Model
  facet normal 0 0 -1
    outer loop
      vertex 152.298 186.614 0
      vertex 207.808 186.614 0
      vertex 202.743 177.724 0
    endloop
  endfacet
  facet normal 0 0 -1
    outer loop
      vertex 207.808 186.614 0
      vertex 214.808 179.614 0
      vertex 209.008 181.776 0
    endloop
  endfacet
  facet normal -0 0 -1
    outer loop
      vertex 214.808 55.1836 0
      vertex 209.008 54.6084 0
      vertex 210.044 56.0352 0
    endloop
  endfacet
  facet normal 0 0 -1
    outer loop
      vertex 143.408 177.724 0
      vertex 143.408 179.502 0
      vertex 152.298 186.614 0
    endloop
  endfacet
  facet normal 0 0 -1
    outer loop
      vertex 207.808 48.1836 0
      vertex 130.675 48.1836 0
      vertex 196.393 57.0742 0
    endloop
  endfacet
  facet normal -0 0 -1
    outer loop
      vertex 142.993 181.501 0
      vertex 131.902 179.502 0
      vertex 132.292 181.501 0
    endloop
  endfacet
  facet normal 0 0 -1
    outer loop
      vertex 131.902 177.724 0
      vertex 113.938 180.742 0
      vertex 114.975 182.169 0
    endloop
  endfacet
  facet normal 0 -0 -1
    outer loop
      vertex 123.012 186.614 0
      vertex 131.902 177.724 0
      vertex 114.975 182.169 0
    endloop
  endfacet
  facet normal -0 0 -1
    outer loop
      vertex 113.938 180.742 0
      vertex 95.0469 177.724 0
      vertex 112.261 181.287 0
    endloop
  endfacet
  facet normal 0 0 -1
    outer loop
      vertex 65.8115 177.724 0
      vertex 60.4551 178.923 0
      vertex 61.4912 180.35 0
    endloop
  endfacet
  facet normal 0 0 -1
    outer loop
      vertex 62.6113 174.549 0
      vertex 60.4551 178.923 0
      vertex 65.8115 177.724 0
    endloop
  endfacet
  facet normal 0 -0 -1
    outer loop
      vertex 60.7207 186.614 0
      vertex 68.834 186.614 0
      vertex 60.4551 181.776 0
    endloop
  endfacet
  facet normal 0 0 -1
    outer loop
      vertex 49.6787 94.3809 0
      vertex 53.7207 100.726 0
      vertex 57.709 88.3154 0
    endloop
  endfacet
  facet normal 0 0 -1
    outer loop
      vertex 196.393 57.0742 0
      vertex 130.675 48.1836 0
      vertex 129.638 52.6289 0
    endloop
  endfacet
  facet normal 0 0 -1
    outer loop
      vertex 16.2686 78.8027 0
      vertex 49.6787 94.3809 0
      vertex 24.6182 72.8857 0
    endloop
  endfacet
  facet normal 0 0 -1
    outer loop
      vertex 12.8828 69.5 0
      vertex 17.0361 73.6963 0
      vertex 17.0361 71.9326 0
    endloop
  endfacet
  facet normal 0 0 -1
    outer loop
      vertex 38.8477 13.8193 0
      vertex 23.0811 68.666 0
      vertex 44.7646 22.1641 0
    endloop
  endfacet
  facet normal 0 0 -1
    outer loop
      vertex 43.6221 16.6797 0
      vertex 44.7646 22.1641 0
      vertex 45.2988 17.2246 0
    endloop
  endfacet
  facet normal 0 0 -1
    outer loop
      vertex 62.6113 88.3154 0
      vertex 57.709 88.3154 0
      vertex 53.7207 100.726 0
    endloop
  endfacet
  facet normal 0 0 -1
    outer loop
      vertex 103.937 186.614 0
      vertex 95.0469 179.502 0
      vertex 90.0566 181.501 0
    endloop
  endfacet
  facet normal 0 0 -1
    outer loop
      vertex 95.0469 177.724 0
      vertex 95.0469 179.502 0
      vertex 103.937 186.614 0
    endloop
  endfacet
  facet normal -0 0 -1
    outer loop
      vertex 113.938 183.596 0
      vertex 112.261 183.051 0
      vertex 103.937 186.614 0
    endloop
  endfacet
  facet normal -0 -0 -1
    outer loop
      vertex 112.261 183.051 0
      vertex 112.261 181.287 0
      vertex 103.937 186.614 0
    endloop
  endfacet
  facet normal -0 0 -1
    outer loop
      vertex 123.012 186.614 0
      vertex 113.938 183.596 0
      vertex 103.937 186.614 0
    endloop
  endfacet
  facet normal 0 0 -1
    outer loop
      vertex 123.012 186.614 0
      vertex 114.975 182.169 0
      vertex 113.938 183.596 0
    endloop
  endfacet
  facet normal 0 0 -1
    outer loop
      vertex 207.33 179.468 0
      vertex 205.918 174.549 0
      vertex 202.743 177.724 0
    endloop
  endfacet
  facet normal 0 -0 -1
    outer loop
      vertex 209.008 178.923 0
      vertex 214.808 179.614 0
      vertex 205.918 174.549 0
    endloop
  endfacet
  facet normal 0 0 -1
    outer loop
      vertex 152.298 186.614 0
      vertex 143.408 179.502 0
      vertex 142.993 181.501 0
    endloop
  endfacet
  facet normal 0 0 -1
    outer loop
      vertex 209.008 181.776 0
      vertex 214.808 179.614 0
      vertex 210.044 180.35 0
    endloop
  endfacet
  facet normal 0 0 -1
    outer loop
      vertex 207.808 186.614 0
      vertex 207.33 181.231 0
      vertex 202.743 177.724 0
    endloop
  endfacet
  facet normal 0 -0 -1
    outer loop
      vertex 207.808 186.614 0
      vertex 209.008 181.776 0
      vertex 207.33 181.231 0
    endloop
  endfacet
  facet normal 0 -0 -1
    outer loop
      vertex 210.044 180.35 0
      vertex 214.808 179.614 0
      vertex 209.008 178.923 0
    endloop
  endfacet
  facet normal 0 0 -1
    outer loop
      vertex 53.7207 179.614 0
      vertex 62.6113 174.549 0
      vertex 53.7207 100.726 0
    endloop
  endfacet
  facet normal 0 -0 -1
    outer loop
      vertex 77.876 179.502 0
      vertex 77.876 177.724 0
      vertex 65.8115 177.724 0
    endloop
  endfacet
  facet normal -0 -0 -1
    outer loop
      vertex 58.7773 179.468 0
      vertex 62.6113 174.549 0
      vertex 53.7207 179.614 0
    endloop
  endfacet
  facet normal 0 0 -1
    outer loop
      vertex 60.7207 186.614 0
      vertex 58.7773 181.231 0
      vertex 53.7207 179.614 0
    endloop
  endfacet
  facet normal 0 -0 -1
    outer loop
      vertex 58.7773 181.231 0
      vertex 58.7773 179.468 0
      vertex 53.7207 179.614 0
    endloop
  endfacet
  facet normal 0 0 -1
    outer loop
      vertex 60.7207 186.614 0
      vertex 60.4551 181.776 0
      vertex 58.7773 181.231 0
    endloop
  endfacet
  facet normal 0 0 -1
    outer loop
      vertex 68.834 186.614 0
      vertex 61.4912 180.35 0
      vertex 60.4551 181.776 0
    endloop
  endfacet
  facet normal 0 0 -1
    outer loop
      vertex 48.1494 10.4326 0
      vertex 48.9844 20.6299 0
      vertex 127.717 47.5283 0
    endloop
  endfacet
  facet normal 0 0 -1
    outer loop
      vertex 24.6182 72.8857 0
      vertex 49.6787 94.3809 0
      vertex 57.709 88.3154 0
    endloop
  endfacet
  facet normal 0 0 -1
    outer loop
      vertex 38.8477 13.8193 0
      vertex 44.7646 22.1641 0
      vertex 43.6221 16.6797 0
    endloop
  endfacet
  facet normal 0 0 -1
    outer loop
      vertex 12.8828 69.5 0
      vertex 23.0811 68.666 0
      vertex 38.8477 13.8193 0
    endloop
  endfacet
  facet normal 0 0 -1
    outer loop
      vertex 16.2686 78.8027 0
      vertex 24.6182 72.8857 0
      vertex 18.7129 74.2412 0
    endloop
  endfacet
  facet normal 0 0 -1
    outer loop
      vertex 19.749 72.8145 0
      vertex 24.6182 72.8857 0
      vertex 23.0811 68.666 0
    endloop
  endfacet
  facet normal 0 -0 -1
    outer loop
      vertex 129.638 52.6289 0
      vertex 130.675 48.1836 0
      vertex 128.602 51.2021 0
    endloop
  endfacet
  facet normal 0 0 -1
    outer loop
      vertex 68.834 186.614 0
      vertex 65.8115 177.724 0
      vertex 61.4912 180.35 0
    endloop
  endfacet
  facet normal -0 -0 -1
    outer loop
      vertex 60.4551 178.923 0
      vertex 62.6113 174.549 0
      vertex 58.7773 179.468 0
    endloop
  endfacet
  facet normal 0 0 -1
    outer loop
      vertex 53.7207 100.726 0
      vertex 62.6113 174.549 0
      vertex 62.6113 88.3154 0
    endloop
  endfacet
  facet normal -0 0 -1
    outer loop
      vertex 82.7139 181.501 0
      vertex 77.876 179.502 0
      vertex 68.834 186.614 0
    endloop
  endfacet
  facet normal -0 0 -1
    outer loop
      vertex 77.876 179.502 0
      vertex 65.8115 177.724 0
      vertex 68.834 186.614 0
    endloop
  endfacet
  facet normal 0 0 -1
    outer loop
      vertex 95.0469 177.724 0
      vertex 103.937 186.614 0
      vertex 112.261 181.287 0
    endloop
  endfacet
  facet normal 0 -0 -1
    outer loop
      vertex 82.7139 181.501 0
      vertex 90.0566 181.501 0
      vertex 77.876 179.502 0
    endloop
  endfacet
  facet normal 0 -0 -1
    outer loop
      vertex 90.0566 181.501 0
      vertex 95.0469 179.502 0
      vertex 77.876 179.502 0
    endloop
  endfacet
  facet normal 0 0 -1
    outer loop
      vertex 131.902 177.724 0
      vertex 95.0469 177.724 0
      vertex 113.938 180.742 0
    endloop
  endfacet
  facet normal -0 0 -1
    outer loop
      vertex 132.292 181.501 0
      vertex 131.902 179.502 0
      vertex 123.012 186.614 0
    endloop
  endfacet
  facet normal -0 -0 -1
    outer loop
      vertex 131.902 179.502 0
      vertex 131.902 177.724 0
      vertex 123.012 186.614 0
    endloop
  endfacet
  facet normal 0 0 -1
    outer loop
      vertex 143.408 177.724 0
      vertex 152.298 186.614 0
      vertex 202.743 177.724 0
    endloop
  endfacet
  facet normal 0 0 -1
    outer loop
      vertex 143.408 179.502 0
      vertex 131.902 179.502 0
      vertex 142.993 181.501 0
    endloop
  endfacet
  facet normal 0 0 -1
    outer loop
      vertex 202.743 177.724 0
      vertex 207.33 181.231 0
      vertex 207.33 179.468 0
    endloop
  endfacet
  facet normal 0 0 -1
    outer loop
      vertex 205.918 66.5986 0
      vertex 205.918 174.549 0
      vertex 214.808 179.614 0
    endloop
  endfacet
  facet normal 0 0 -1
    outer loop
      vertex 205.918 174.549 0
      vertex 207.33 179.468 0
      vertex 209.008 178.923 0
    endloop
  endfacet
  facet normal 0 0 -1
    outer loop
      vertex 214.808 55.1836 0
      vertex 205.918 66.5986 0
      vertex 214.808 179.614 0
    endloop
  endfacet
  facet normal 0 0 -1
    outer loop
      vertex 207.808 48.1836 0
      vertex 207.33 55.1533 0
      vertex 209.008 54.6084 0
    endloop
  endfacet
  facet normal 0 0 -1
    outer loop
      vertex 12.8828 69.5 0
      vertex 18.7129 71.3877 0
      vertex 23.0811 68.666 0
    endloop
  endfacet
  facet normal -0 0 -1
    outer loop
      vertex 127.717 47.5283 0
      vertex 48.9844 20.6299 0
      vertex 126.925 51.7471 0
    endloop
  endfacet
  facet normal 0 0 -1
    outer loop
      vertex 12.8828 69.5 0
      vertex 17.0361 71.9326 0
      vertex 18.7129 71.3877 0
    endloop
  endfacet
  facet normal 0 0 -1
    outer loop
      vertex 12.8828 69.5 0
      vertex 16.2686 78.8027 0
      vertex 17.0361 73.6963 0
    endloop
  endfacet
  facet normal 0 0 -1
    outer loop
      vertex 18.7129 74.2412 0
      vertex 24.6182 72.8857 0
      vertex 19.749 72.8145 0
    endloop
  endfacet
  facet normal 0 0 -1
    outer loop
      vertex 16.2686 78.8027 0
      vertex 18.7129 74.2412 0
      vertex 17.0361 73.6963 0
    endloop
  endfacet
  facet normal 0 -0 -1
    outer loop
      vertex 19.749 72.8145 0
      vertex 23.0811 68.666 0
      vertex 18.7129 71.3877 0
    endloop
  endfacet
  facet normal 0 0 -1
    outer loop
      vertex 207.808 48.1836 0
      vertex 209.008 54.6084 0
      vertex 214.808 55.1836 0
    endloop
  endfacet
  facet normal 0 0 -1
    outer loop
      vertex 207.33 56.917 0
      vertex 205.918 66.5986 0
      vertex 209.008 57.4619 0
    endloop
  endfacet
  facet normal -0 -0 -1
    outer loop
      vertex 207.33 56.917 0
      vertex 207.33 55.1533 0
      vertex 196.393 57.0742 0
    endloop
  endfacet
  facet normal -0 -0 -1
    outer loop
      vertex 207.33 55.1533 0
      vertex 207.808 48.1836 0
      vertex 196.393 57.0742 0
    endloop
  endfacet
  facet normal 0 -0 -1
    outer loop
      vertex 205.918 66.5986 0
      vertex 207.33 56.917 0
      vertex 196.393 57.0742 0
    endloop
  endfacet
  facet normal 0 0 -1
    outer loop
      vertex 209.008 57.4619 0
      vertex 205.918 66.5986 0
      vertex 214.808 55.1836 0
    endloop
  endfacet
  facet normal 0 0 -1
    outer loop
      vertex 214.808 55.1836 0
      vertex 210.044 56.0352 0
      vertex 209.008 57.4619 0
    endloop
  endfacet
  facet normal 0 -0 -1
    outer loop
      vertex 128.602 51.2021 0
      vertex 130.675 48.1836 0
      vertex 127.717 47.5283 0
    endloop
  endfacet
  facet normal 0 0 -1
    outer loop
      vertex 127.717 47.5283 0
      vertex 126.925 51.7471 0
      vertex 128.602 51.2021 0
    endloop
  endfacet
  facet normal -0 0 -1
    outer loop
      vertex 126.925 51.7471 0
      vertex 48.9844 20.6299 0
      vertex 126.925 53.5107 0
    endloop
  endfacet
  facet normal -0 0 -1
    outer loop
      vertex 126.925 53.5107 0
      vertex 48.9844 20.6299 0
      vertex 127.152 57.0742 0
    endloop
  endfacet
  facet normal 0 0 -1
    outer loop
      vertex 129.638 52.6289 0
      vertex 128.602 54.0557 0
      vertex 127.152 57.0742 0
    endloop
  endfacet
  facet normal -0 0 -1
    outer loop
      vertex 128.602 54.0557 0
      vertex 126.925 53.5107 0
      vertex 127.152 57.0742 0
    endloop
  endfacet
  facet normal -0 0 -1
    outer loop
      vertex 196.393 57.0742 0
      vertex 129.638 52.6289 0
      vertex 127.152 57.0742 0
    endloop
  endfacet
  facet normal 0 0 -1
    outer loop
      vertex 43.6221 14.917 0
      vertex 45.2988 14.3721 0
      vertex 48.1494 10.4326 0
    endloop
  endfacet
  facet normal 0 0 -1
    outer loop
      vertex 45.2988 17.2246 0
      vertex 48.9844 20.6299 0
      vertex 46.3359 15.7979 0
    endloop
  endfacet
  facet normal 0 0 -1
    outer loop
      vertex 38.8477 13.8193 0
      vertex 43.6221 14.917 0
      vertex 48.1494 10.4326 0
    endloop
  endfacet
  facet normal 0 0 -1
    outer loop
      vertex 44.7646 22.1641 0
      vertex 48.9844 20.6299 0
      vertex 45.2988 17.2246 0
    endloop
  endfacet
  facet normal 0 0 -1
    outer loop
      vertex 38.8477 13.8193 0
      vertex 43.6221 16.6797 0
      vertex 43.6221 14.917 0
    endloop
  endfacet
  facet normal 0 0 -1
    outer loop
      vertex 45.2988 14.3721 0
      vertex 46.3359 15.7979 0
      vertex 48.1494 10.4326 0
    endloop
  endfacet
  facet normal 0 0 -1
    outer loop
      vertex 46.3359 15.7979 0
      vertex 48.9844 20.6299 0
      vertex 48.1494 10.4326 0
    endloop
  endfacet
  facet normal 0 -0 1
    outer loop
      vertex 202.743 177.724 4
      vertex 207.808 186.614 4
      vertex 152.298 186.614 4
    endloop
  endfacet
  facet normal -0 -0 1
    outer loop
      vertex 209.008 181.776 4
      vertex 214.808 179.614 4
      vertex 207.808 186.614 4
    endloop
  endfacet
  facet normal 0 0 1
    outer loop
      vertex 210.044 56.0352 4
      vertex 209.008 54.6084 4
      vertex 214.808 55.1836 4
    endloop
  endfacet
  facet normal 0 0 1
    outer loop
      vertex 152.298 186.614 4
      vertex 143.408 179.502 4
      vertex 143.408 177.724 4
    endloop
  endfacet
  facet normal 0 0 1
    outer loop
      vertex 196.393 57.0742 4
      vertex 130.675 48.1836 4
      vertex 207.808 48.1836 4
    endloop
  endfacet
  facet normal -0 0 1
    outer loop
      vertex 132.292 181.501 4
      vertex 131.902 179.502 4
      vertex 142.993 181.501 4
    endloop
  endfacet
  facet normal 0 0 1
    outer loop
      vertex 114.975 182.169 4
      vertex 113.938 180.742 4
      vertex 131.902 177.724 4
    endloop
  endfacet
  facet normal -0 0 1
    outer loop
      vertex 114.975 182.169 4
      vertex 131.902 177.724 4
      vertex 123.012 186.614 4
    endloop
  endfacet
  facet normal 0 0 1
    outer loop
      vertex 112.261 181.287 4
      vertex 95.0469 177.724 4
      vertex 113.938 180.742 4
    endloop
  endfacet
  facet normal 0 0 1
    outer loop
      vertex 61.4912 180.35 4
      vertex 60.4551 178.923 4
      vertex 65.8115 177.724 4
    endloop
  endfacet
  facet normal 0 0 1
    outer loop
      vertex 65.8115 177.724 4
      vertex 60.4551 178.923 4
      vertex 62.6113 174.549 4
    endloop
  endfacet
  facet normal 0 0 1
    outer loop
      vertex 60.4551 181.776 4
      vertex 68.834 186.614 4
      vertex 60.7207 186.614 4
    endloop
  endfacet
  facet normal 0 0 1
    outer loop
      vertex 57.709 88.3154 4
      vertex 53.7207 100.726 4
      vertex 49.6787 94.3809 4
    endloop
  endfacet
  facet normal -0 0 1
    outer loop
      vertex 129.638 52.6289 4
      vertex 130.675 48.1836 4
      vertex 196.393 57.0742 4
    endloop
  endfacet
  facet normal 0 -0 1
    outer loop
      vertex 24.6182 72.8857 4
      vertex 49.6787 94.3809 4
      vertex 16.2686 78.8027 4
    endloop
  endfacet
  facet normal 0 -0 1
    outer loop
      vertex 17.0361 71.9326 4
      vertex 17.0361 73.6963 4
      vertex 12.8828 69.5 4
    endloop
  endfacet
  facet normal 0 0 1
    outer loop
      vertex 44.7646 22.1641 4
      vertex 23.0811 68.666 4
      vertex 38.8477 13.8193 4
    endloop
  endfacet
  facet normal 0 0 1
    outer loop
      vertex 45.2988 17.2246 4
      vertex 44.7646 22.1641 4
      vertex 43.6221 16.6797 4
    endloop
  endfacet
  facet normal 0 0 1
    outer loop
      vertex 53.7207 100.726 4
      vertex 57.709 88.3154 4
      vertex 62.6113 88.3154 4
    endloop
  endfacet
  facet normal -0 0 1
    outer loop
      vertex 90.0566 181.501 4
      vertex 95.0469 179.502 4
      vertex 103.937 186.614 4
    endloop
  endfacet
  facet normal 0 0 1
    outer loop
      vertex 103.937 186.614 4
      vertex 95.0469 179.502 4
      vertex 95.0469 177.724 4
    endloop
  endfacet
  facet normal 0 0 1
    outer loop
      vertex 103.937 186.614 4
      vertex 112.261 183.051 4
      vertex 113.938 183.596 4
    endloop
  endfacet
  facet normal 0 0 1
    outer loop
      vertex 103.937 186.614 4
      vertex 112.261 181.287 4
      vertex 112.261 183.051 4
    endloop
  endfacet
  facet normal -0 0 1
    outer loop
      vertex 103.937 186.614 4
      vertex 113.938 183.596 4
      vertex 123.012 186.614 4
    endloop
  endfacet
  facet normal -0 0 1
    outer loop
      vertex 113.938 183.596 4
      vertex 114.975 182.169 4
      vertex 123.012 186.614 4
    endloop
  endfacet
  facet normal -0 0 1
    outer loop
      vertex 202.743 177.724 4
      vertex 205.918 174.549 4
      vertex 207.33 179.468 4
    endloop
  endfacet
  facet normal 0 0 1
    outer loop
      vertex 205.918 174.549 4
      vertex 214.808 179.614 4
      vertex 209.008 178.923 4
    endloop
  endfacet
  facet normal -0 0 1
    outer loop
      vertex 142.993 181.501 4
      vertex 143.408 179.502 4
      vertex 152.298 186.614 4
    endloop
  endfacet
  facet normal -0 -0 1
    outer loop
      vertex 210.044 180.35 4
      vertex 214.808 179.614 4
      vertex 209.008 181.776 4
    endloop
  endfacet
  facet normal 0 0 1
    outer loop
      vertex 202.743 177.724 4
      vertex 207.33 181.231 4
      vertex 207.808 186.614 4
    endloop
  endfacet
  facet normal 0 0 1
    outer loop
      vertex 207.33 181.231 4
      vertex 209.008 181.776 4
      vertex 207.808 186.614 4
    endloop
  endfacet
  facet normal 0 0 1
    outer loop
      vertex 209.008 178.923 4
      vertex 214.808 179.614 4
      vertex 210.044 180.35 4
    endloop
  endfacet
  facet normal 0 0 1
    outer loop
      vertex 53.7207 100.726 4
      vertex 62.6113 174.549 4
      vertex 53.7207 179.614 4
    endloop
  endfacet
  facet normal 0 0 1
    outer loop
      vertex 65.8115 177.724 4
      vertex 77.876 177.724 4
      vertex 77.876 179.502 4
    endloop
  endfacet
  facet normal 0 0 1
    outer loop
      vertex 53.7207 179.614 4
      vertex 62.6113 174.549 4
      vertex 58.7773 179.468 4
    endloop
  endfacet
  facet normal 0 0 1
    outer loop
      vertex 53.7207 179.614 4
      vertex 58.7773 181.231 4
      vertex 60.7207 186.614 4
    endloop
  endfacet
  facet normal -0 0 1
    outer loop
      vertex 53.7207 179.614 4
      vertex 58.7773 179.468 4
      vertex 58.7773 181.231 4
    endloop
  endfacet
  facet normal 0 0 1
    outer loop
      vertex 58.7773 181.231 4
      vertex 60.4551 181.776 4
      vertex 60.7207 186.614 4
    endloop
  endfacet
  facet normal -0 0 1
    outer loop
      vertex 60.4551 181.776 4
      vertex 61.4912 180.35 4
      vertex 68.834 186.614 4
    endloop
  endfacet
  facet normal 0 0 1
    outer loop
      vertex 127.717 47.5283 4
      vertex 48.9844 20.6299 4
      vertex 48.1494 10.4326 4
    endloop
  endfacet
  facet normal 0 0 1
    outer loop
      vertex 57.709 88.3154 4
      vertex 49.6787 94.3809 4
      vertex 24.6182 72.8857 4
    endloop
  endfacet
  facet normal 0 -0 1
    outer loop
      vertex 43.6221 16.6797 4
      vertex 44.7646 22.1641 4
      vertex 38.8477 13.8193 4
    endloop
  endfacet
  facet normal 0 0 1
    outer loop
      vertex 38.8477 13.8193 4
      vertex 23.0811 68.666 4
      vertex 12.8828 69.5 4
    endloop
  endfacet
  facet normal -0 -0 1
    outer loop
      vertex 18.7129 74.2412 4
      vertex 24.6182 72.8857 4
      vertex 16.2686 78.8027 4
    endloop
  endfacet
  facet normal 0 -0 1
    outer loop
      vertex 23.0811 68.666 4
      vertex 24.6182 72.8857 4
      vertex 19.749 72.8145 4
    endloop
  endfacet
  facet normal -0 0 1
    outer loop
      vertex 128.602 51.2021 4
      vertex 130.675 48.1836 4
      vertex 129.638 52.6289 4
    endloop
  endfacet
  facet normal -0 0 1
    outer loop
      vertex 61.4912 180.35 4
      vertex 65.8115 177.724 4
      vertex 68.834 186.614 4
    endloop
  endfacet
  facet normal 0 0 1
    outer loop
      vertex 58.7773 179.468 4
      vertex 62.6113 174.549 4
      vertex 60.4551 178.923 4
    endloop
  endfacet
  facet normal 0 -0 1
    outer loop
      vertex 62.6113 88.3154 4
      vertex 62.6113 174.549 4
      vertex 53.7207 100.726 4
    endloop
  endfacet
  facet normal 0 0 1
    outer loop
      vertex 68.834 186.614 4
      vertex 77.876 179.502 4
      vertex 82.7139 181.501 4
    endloop
  endfacet
  facet normal 0 0 1
    outer loop
      vertex 68.834 186.614 4
      vertex 65.8115 177.724 4
      vertex 77.876 179.502 4
    endloop
  endfacet
  facet normal 0 0 1
    outer loop
      vertex 112.261 181.287 4
      vertex 103.937 186.614 4
      vertex 95.0469 177.724 4
    endloop
  endfacet
  facet normal 0 0 1
    outer loop
      vertex 77.876 179.502 4
      vertex 90.0566 181.501 4
      vertex 82.7139 181.501 4
    endloop
  endfacet
  facet normal 0 0 1
    outer loop
      vertex 77.876 179.502 4
      vertex 95.0469 179.502 4
      vertex 90.0566 181.501 4
    endloop
  endfacet
  facet normal 0 0 1
    outer loop
      vertex 113.938 180.742 4
      vertex 95.0469 177.724 4
      vertex 131.902 177.724 4
    endloop
  endfacet
  facet normal 0 0 1
    outer loop
      vertex 123.012 186.614 4
      vertex 131.902 179.502 4
      vertex 132.292 181.501 4
    endloop
  endfacet
  facet normal 0 0 1
    outer loop
      vertex 123.012 186.614 4
      vertex 131.902 177.724 4
      vertex 131.902 179.502 4
    endloop
  endfacet
  facet normal 0 0 1
    outer loop
      vertex 202.743 177.724 4
      vertex 152.298 186.614 4
      vertex 143.408 177.724 4
    endloop
  endfacet
  facet normal 0 0 1
    outer loop
      vertex 142.993 181.501 4
      vertex 131.902 179.502 4
      vertex 143.408 179.502 4
    endloop
  endfacet
  facet normal 0 -0 1
    outer loop
      vertex 207.33 179.468 4
      vertex 207.33 181.231 4
      vertex 202.743 177.724 4
    endloop
  endfacet
  facet normal 0 0 1
    outer loop
      vertex 214.808 179.614 4
      vertex 205.918 174.549 4
      vertex 205.918 66.5986 4
    endloop
  endfacet
  facet normal 0 0 1
    outer loop
      vertex 209.008 178.923 4
      vertex 207.33 179.468 4
      vertex 205.918 174.549 4
    endloop
  endfacet
  facet normal 0 0 1
    outer loop
      vertex 214.808 179.614 4
      vertex 205.918 66.5986 4
      vertex 214.808 55.1836 4
    endloop
  endfacet
  facet normal 0 0 1
    outer loop
      vertex 209.008 54.6084 4
      vertex 207.33 55.1533 4
      vertex 207.808 48.1836 4
    endloop
  endfacet
  facet normal 0 0 1
    outer loop
      vertex 23.0811 68.666 4
      vertex 18.7129 71.3877 4
      vertex 12.8828 69.5 4
    endloop
  endfacet
  facet normal 0 0 1
    outer loop
      vertex 126.925 51.7471 4
      vertex 48.9844 20.6299 4
      vertex 127.717 47.5283 4
    endloop
  endfacet
  facet normal 0 0 1
    outer loop
      vertex 18.7129 71.3877 4
      vertex 17.0361 71.9326 4
      vertex 12.8828 69.5 4
    endloop
  endfacet
  facet normal 0 0 1
    outer loop
      vertex 17.0361 73.6963 4
      vertex 16.2686 78.8027 4
      vertex 12.8828 69.5 4
    endloop
  endfacet
  facet normal 0 -0 1
    outer loop
      vertex 19.749 72.8145 4
      vertex 24.6182 72.8857 4
      vertex 18.7129 74.2412 4
    endloop
  endfacet
  facet normal 0 -0 1
    outer loop
      vertex 17.0361 73.6963 4
      vertex 18.7129 74.2412 4
      vertex 16.2686 78.8027 4
    endloop
  endfacet
  facet normal -0 0 1
    outer loop
      vertex 18.7129 71.3877 4
      vertex 23.0811 68.666 4
      vertex 19.749 72.8145 4
    endloop
  endfacet
  facet normal 0 0 1
    outer loop
      vertex 214.808 55.1836 4
      vertex 209.008 54.6084 4
      vertex 207.808 48.1836 4
    endloop
  endfacet
  facet normal 0 0 1
    outer loop
      vertex 209.008 57.4619 4
      vertex 205.918 66.5986 4
      vertex 207.33 56.917 4
    endloop
  endfacet
  facet normal 0 0 1
    outer loop
      vertex 196.393 57.0742 4
      vertex 207.33 55.1533 4
      vertex 207.33 56.917 4
    endloop
  endfacet
  facet normal 0 0 1
    outer loop
      vertex 196.393 57.0742 4
      vertex 207.808 48.1836 4
      vertex 207.33 55.1533 4
    endloop
  endfacet
  facet normal -0 0 1
    outer loop
      vertex 196.393 57.0742 4
      vertex 207.33 56.917 4
      vertex 205.918 66.5986 4
    endloop
  endfacet
  facet normal 0 0 1
    outer loop
      vertex 214.808 55.1836 4
      vertex 205.918 66.5986 4
      vertex 209.008 57.4619 4
    endloop
  endfacet
  facet normal 0 0 1
    outer loop
      vertex 209.008 57.4619 4
      vertex 210.044 56.0352 4
      vertex 214.808 55.1836 4
    endloop
  endfacet
  facet normal 0 0 1
    outer loop
      vertex 127.717 47.5283 4
      vertex 130.675 48.1836 4
      vertex 128.602 51.2021 4
    endloop
  endfacet
  facet normal 0 0 1
    outer loop
      vertex 128.602 51.2021 4
      vertex 126.925 51.7471 4
      vertex 127.717 47.5283 4
    endloop
  endfacet
  facet normal 0 0 1
    outer loop
      vertex 126.925 53.5107 4
      vertex 48.9844 20.6299 4
      vertex 126.925 51.7471 4
    endloop
  endfacet
  facet normal 0 0 1
    outer loop
      vertex 127.152 57.0742 4
      vertex 48.9844 20.6299 4
      vertex 126.925 53.5107 4
    endloop
  endfacet
  facet normal 0 0 1
    outer loop
      vertex 127.152 57.0742 4
      vertex 128.602 54.0557 4
      vertex 129.638 52.6289 4
    endloop
  endfacet
  facet normal 0 0 1
    outer loop
      vertex 127.152 57.0742 4
      vertex 126.925 53.5107 4
      vertex 128.602 54.0557 4
    endloop
  endfacet
  facet normal -0 0 1
    outer loop
      vertex 127.152 57.0742 4
      vertex 129.638 52.6289 4
      vertex 196.393 57.0742 4
    endloop
  endfacet
  facet normal 0 0 1
    outer loop
      vertex 48.1494 10.4326 4
      vertex 45.2988 14.3721 4
      vertex 43.6221 14.917 4
    endloop
  endfacet
  facet normal 0 -0 1
    outer loop
      vertex 46.3359 15.7979 4
      vertex 48.9844 20.6299 4
      vertex 45.2988 17.2246 4
    endloop
  endfacet
  facet normal 0 0 1
    outer loop
      vertex 48.1494 10.4326 4
      vertex 43.6221 14.917 4
      vertex 38.8477 13.8193 4
    endloop
  endfacet
  facet normal 0 -0 1
    outer loop
      vertex 45.2988 17.2246 4
      vertex 48.9844 20.6299 4
      vertex 44.7646 22.1641 4
    endloop
  endfacet
  facet normal 0 -0 1
    outer loop
      vertex 43.6221 14.917 4
      vertex 43.6221 16.6797 4
      vertex 38.8477 13.8193 4
    endloop
  endfacet
  facet normal 0 0 1
    outer loop
      vertex 48.1494 10.4326 4
      vertex 46.3359 15.7979 4
      vertex 45.2988 14.3721 4
    endloop
  endfacet
  facet normal 0 -0 1
    outer loop
      vertex 48.1494 10.4326 4
      vertex 48.9844 20.6299 4
      vertex 46.3359 15.7979 4
    endloop
  endfacet
  facet normal 0.216291 -0.976329 0
    outer loop
      vertex 130.675 48.1836 0
      vertex 127.717 47.5283 4
      vertex 127.717 47.5283 0
    endloop
  endfacet
  facet normal 0.216291 -0.976329 0
    outer loop
      vertex 130.675 48.1836 0
      vertex 130.675 48.1836 4
      vertex 127.717 47.5283 4
    endloop
  endfacet
  facet normal 0 -1 0
    outer loop
      vertex 207.808 48.1836 0
      vertex 130.675 48.1836 4
      vertex 130.675 48.1836 0
    endloop
  endfacet
  facet normal 0 -1 0
    outer loop
      vertex 207.808 48.1836 0
      vertex 207.808 48.1836 4
      vertex 130.675 48.1836 4
    endloop
  endfacet
  facet normal 0.707107 -0.707107 0
    outer loop
      vertex 214.808 55.1836 0
      vertex 207.808 48.1836 4
      vertex 207.808 48.1836 0
    endloop
  endfacet
  facet normal 0.707107 -0.707107 0
    outer loop
      vertex 214.808 55.1836 0
      vertex 214.808 55.1836 4
      vertex 207.808 48.1836 4
    endloop
  endfacet
  facet normal 1 0 0
    outer loop
      vertex 214.808 179.614 0
      vertex 214.808 55.1836 4
      vertex 214.808 55.1836 0
    endloop
  endfacet
  facet normal 1 0 -0
    outer loop
      vertex 214.808 179.614 0
      vertex 214.808 179.614 4
      vertex 214.808 55.1836 4
    endloop
  endfacet
  facet normal 0.707107 0.707107 0
    outer loop
      vertex 207.808 186.614 0
      vertex 214.808 179.614 4
      vertex 214.808 179.614 0
    endloop
  endfacet
  facet normal 0.707107 0.707107 -0
    outer loop
      vertex 207.808 186.614 0
      vertex 207.808 186.614 4
      vertex 214.808 179.614 4
    endloop
  endfacet
  facet normal 0 1 0
    outer loop
      vertex 152.298 186.614 0
      vertex 207.808 186.614 4
      vertex 207.808 186.614 0
    endloop
  endfacet
  facet normal 0 1 0
    outer loop
      vertex 152.298 186.614 0
      vertex 152.298 186.614 4
      vertex 207.808 186.614 4
    endloop
  endfacet
  facet normal -0.481575 0.876405 0
    outer loop
      vertex 142.993 181.501 0
      vertex 152.298 186.614 4
      vertex 152.298 186.614 0
    endloop
  endfacet
  facet normal -0.481575 0.876405 0
    outer loop
      vertex 142.993 181.501 0
      vertex 142.993 181.501 4
      vertex 152.298 186.614 4
    endloop
  endfacet
  facet normal 0 1 0
    outer loop
      vertex 132.292 181.501 0
      vertex 142.993 181.501 4
      vertex 142.993 181.501 0
    endloop
  endfacet
  facet normal 0 1 0
    outer loop
      vertex 132.292 181.501 0
      vertex 132.292 181.501 4
      vertex 142.993 181.501 4
    endloop
  endfacet
  facet normal 0.482571 0.875857 0
    outer loop
      vertex 123.012 186.614 0
      vertex 132.292 181.501 4
      vertex 132.292 181.501 0
    endloop
  endfacet
  facet normal 0.482571 0.875857 -0
    outer loop
      vertex 123.012 186.614 0
      vertex 123.012 186.614 4
      vertex 132.292 181.501 4
    endloop
  endfacet
  facet normal 0 1 0
    outer loop
      vertex 103.937 186.614 0
      vertex 123.012 186.614 4
      vertex 123.012 186.614 0
    endloop
  endfacet
  facet normal 0 1 0
    outer loop
      vertex 103.937 186.614 0
      vertex 103.937 186.614 4
      vertex 123.012 186.614 4
    endloop
  endfacet
  facet normal -0.345656 0.938361 0
    outer loop
      vertex 90.0566 181.501 0
      vertex 103.937 186.614 4
      vertex 103.937 186.614 0
    endloop
  endfacet
  facet normal -0.345656 0.938361 0
    outer loop
      vertex 90.0566 181.501 0
      vertex 90.0566 181.501 4
      vertex 103.937 186.614 4
    endloop
  endfacet
  facet normal 0 1 0
    outer loop
      vertex 82.7139 181.501 0
      vertex 90.0566 181.501 4
      vertex 90.0566 181.501 0
    endloop
  endfacet
  facet normal 0 1 0
    outer loop
      vertex 82.7139 181.501 0
      vertex 82.7139 181.501 4
      vertex 90.0566 181.501 4
    endloop
  endfacet
  facet normal 0.345667 0.938357 0
    outer loop
      vertex 68.834 186.614 0
      vertex 82.7139 181.501 4
      vertex 82.7139 181.501 0
    endloop
  endfacet
  facet normal 0.345667 0.938357 -0
    outer loop
      vertex 68.834 186.614 0
      vertex 68.834 186.614 4
      vertex 82.7139 181.501 4
    endloop
  endfacet
  facet normal 0 1 0
    outer loop
      vertex 60.7207 186.614 0
      vertex 68.834 186.614 4
      vertex 68.834 186.614 0
    endloop
  endfacet
  facet normal 0 1 0
    outer loop
      vertex 60.7207 186.614 0
      vertex 60.7207 186.614 4
      vertex 68.834 186.614 4
    endloop
  endfacet
  facet normal -0.707107 0.707107 0
    outer loop
      vertex 53.7207 179.614 0
      vertex 60.7207 186.614 4
      vertex 60.7207 186.614 0
    endloop
  endfacet
  facet normal -0.707107 0.707107 0
    outer loop
      vertex 53.7207 179.614 0
      vertex 53.7207 179.614 4
      vertex 60.7207 186.614 4
    endloop
  endfacet
  facet normal -1 0 0
    outer loop
      vertex 53.7207 100.726 0
      vertex 53.7207 179.614 4
      vertex 53.7207 179.614 0
    endloop
  endfacet
  facet normal -1 0 0
    outer loop
      vertex 53.7207 100.726 0
      vertex 53.7207 100.726 4
      vertex 53.7207 179.614 4
    endloop
  endfacet
  facet normal -0.843408 0.537274 0
    outer loop
      vertex 49.6787 94.3809 0
      vertex 53.7207 100.726 4
      vertex 53.7207 100.726 0
    endloop
  endfacet
  facet normal -0.843408 0.537274 0
    outer loop
      vertex 49.6787 94.3809 0
      vertex 49.6787 94.3809 4
      vertex 53.7207 100.726 4
    endloop
  endfacet
  facet normal -0.422592 0.90632 0
    outer loop
      vertex 16.2686 78.8027 0
      vertex 49.6787 94.3809 4
      vertex 49.6787 94.3809 0
    endloop
  endfacet
  facet normal -0.422592 0.90632 0
    outer loop
      vertex 16.2686 78.8027 0
      vertex 16.2686 78.8027 4
      vertex 49.6787 94.3809 4
    endloop
  endfacet
  facet normal -0.939696 0.342011 0
    outer loop
      vertex 12.8828 69.5 0
      vertex 16.2686 78.8027 4
      vertex 16.2686 78.8027 0
    endloop
  endfacet
  facet normal -0.939696 0.342011 0
    outer loop
      vertex 12.8828 69.5 0
      vertex 12.8828 69.5 4
      vertex 16.2686 78.8027 4
    endloop
  endfacet
  facet normal -0.906304 -0.422626 0
    outer loop
      vertex 38.8477 13.8193 0
      vertex 12.8828 69.5 4
      vertex 12.8828 69.5 0
    endloop
  endfacet
  facet normal -0.906304 -0.422626 0
    outer loop
      vertex 38.8477 13.8193 0
      vertex 38.8477 13.8193 4
      vertex 12.8828 69.5 4
    endloop
  endfacet
  facet normal -0.342123 -0.939655 0
    outer loop
      vertex 48.1494 10.4326 0
      vertex 38.8477 13.8193 4
      vertex 38.8477 13.8193 0
    endloop
  endfacet
  facet normal -0.342123 -0.939655 0
    outer loop
      vertex 48.1494 10.4326 0
      vertex 48.1494 10.4326 4
      vertex 38.8477 13.8193 4
    endloop
  endfacet
  facet normal 0.42255 -0.90634 0
    outer loop
      vertex 127.717 47.5283 0
      vertex 48.1494 10.4326 4
      vertex 48.1494 10.4326 0
    endloop
  endfacet
  facet normal 0.42255 -0.90634 0
    outer loop
      vertex 127.717 47.5283 0
      vertex 127.717 47.5283 4
      vertex 48.1494 10.4326 4
    endloop
  endfacet
  facet normal 1 0 -0
    outer loop
      vertex 112.261 183.051 0
      vertex 112.261 183.051 4
      vertex 112.261 181.287 0
    endloop
  endfacet
  facet normal 1 -0 0
    outer loop
      vertex 112.261 181.287 4
      vertex 112.261 181.287 0
      vertex 112.261 183.051 4
    endloop
  endfacet
  facet normal 0.309073 -0.951038 0
    outer loop
      vertex 113.938 183.596 0
      vertex 113.938 183.596 4
      vertex 112.261 183.051 0
    endloop
  endfacet
  facet normal 0.309073 -0.951038 0
    outer loop
      vertex 112.261 183.051 4
      vertex 112.261 183.051 0
      vertex 113.938 183.596 4
    endloop
  endfacet
  facet normal -0.808957 -0.587868 0
    outer loop
      vertex 114.975 182.169 0
      vertex 114.975 182.169 4
      vertex 113.938 183.596 0
    endloop
  endfacet
  facet normal -0.808957 -0.587868 -0
    outer loop
      vertex 113.938 183.596 4
      vertex 113.938 183.596 0
      vertex 114.975 182.169 4
    endloop
  endfacet
  facet normal -0.808957 0.587868 0
    outer loop
      vertex 113.938 180.742 0
      vertex 113.938 180.742 4
      vertex 114.975 182.169 0
    endloop
  endfacet
  facet normal -0.808957 0.587868 0
    outer loop
      vertex 114.975 182.169 4
      vertex 114.975 182.169 0
      vertex 113.938 180.742 4
    endloop
  endfacet
  facet normal 0.309073 0.951038 -0
    outer loop
      vertex 112.261 181.287 0
      vertex 112.261 181.287 4
      vertex 113.938 180.742 0
    endloop
  endfacet
  facet normal 0.309073 0.951038 0
    outer loop
      vertex 113.938 180.742 4
      vertex 113.938 180.742 0
      vertex 112.261 181.287 4
    endloop
  endfacet
  facet normal 1 0 -0
    outer loop
      vertex 207.33 181.231 0
      vertex 207.33 181.231 4
      vertex 207.33 179.468 0
    endloop
  endfacet
  facet normal 1 -0 0
    outer loop
      vertex 207.33 179.468 4
      vertex 207.33 179.468 0
      vertex 207.33 181.231 4
    endloop
  endfacet
  facet normal 0.308907 -0.951092 0
    outer loop
      vertex 209.008 181.776 0
      vertex 209.008 181.776 4
      vertex 207.33 181.231 0
    endloop
  endfacet
  facet normal 0.308907 -0.951092 0
    outer loop
      vertex 207.33 181.231 4
      vertex 207.33 181.231 0
      vertex 209.008 181.776 4
    endloop
  endfacet
  facet normal -0.80903 -0.587767 0
    outer loop
      vertex 210.044 180.35 0
      vertex 210.044 180.35 4
      vertex 209.008 181.776 0
    endloop
  endfacet
  facet normal -0.80903 -0.587767 -0
    outer loop
      vertex 209.008 181.776 4
      vertex 209.008 181.776 0
      vertex 210.044 180.35 4
    endloop
  endfacet
  facet normal -0.809226 0.587497 0
    outer loop
      vertex 209.008 178.923 0
      vertex 209.008 178.923 4
      vertex 210.044 180.35 0
    endloop
  endfacet
  facet normal -0.809226 0.587497 0
    outer loop
      vertex 210.044 180.35 4
      vertex 210.044 180.35 0
      vertex 209.008 178.923 4
    endloop
  endfacet
  facet normal 0.308907 0.951092 -0
    outer loop
      vertex 207.33 179.468 0
      vertex 207.33 179.468 4
      vertex 209.008 178.923 0
    endloop
  endfacet
  facet normal 0.308907 0.951092 0
    outer loop
      vertex 209.008 178.923 4
      vertex 209.008 178.923 0
      vertex 207.33 179.468 4
    endloop
  endfacet
  facet normal 1 0 -0
    outer loop
      vertex 58.7773 181.231 0
      vertex 58.7773 181.231 4
      vertex 58.7773 179.468 0
    endloop
  endfacet
  facet normal 1 -0 0
    outer loop
      vertex 58.7773 179.468 4
      vertex 58.7773 179.468 0
      vertex 58.7773 181.231 4
    endloop
  endfacet
  facet normal 0.30894 -0.951082 0
    outer loop
      vertex 60.4551 181.776 0
      vertex 60.4551 181.776 4
      vertex 58.7773 181.231 0
    endloop
  endfacet
  facet normal 0.30894 -0.951082 0
    outer loop
      vertex 58.7773 181.231 4
      vertex 58.7773 181.231 0
      vertex 60.4551 181.776 4
    endloop
  endfacet
  facet normal -0.809003 -0.587804 0
    outer loop
      vertex 61.4912 180.35 0
      vertex 61.4912 180.35 4
      vertex 60.4551 181.776 0
    endloop
  endfacet
  facet normal -0.809003 -0.587804 -0
    outer loop
      vertex 60.4551 181.776 4
      vertex 60.4551 181.776 0
      vertex 61.4912 180.35 4
    endloop
  endfacet
  facet normal -0.809199 0.587534 0
    outer loop
      vertex 60.4551 178.923 0
      vertex 60.4551 178.923 4
      vertex 61.4912 180.35 0
    endloop
  endfacet
  facet normal -0.809199 0.587534 0
    outer loop
      vertex 61.4912 180.35 4
      vertex 61.4912 180.35 0
      vertex 60.4551 178.923 4
    endloop
  endfacet
  facet normal 0.30894 0.951082 -0
    outer loop
      vertex 58.7773 179.468 0
      vertex 58.7773 179.468 4
      vertex 60.4551 178.923 0
    endloop
  endfacet
  facet normal 0.30894 0.951082 0
    outer loop
      vertex 60.4551 178.923 4
      vertex 60.4551 178.923 0
      vertex 58.7773 179.468 4
    endloop
  endfacet
  facet normal 0.906313 0.422607 -0
    outer loop
      vertex 23.0811 68.666 0
      vertex 23.0811 68.666 4
      vertex 44.7646 22.1641 0
    endloop
  endfacet
  facet normal 0.906313 0.422607 0
    outer loop
      vertex 44.7646 22.1641 4
      vertex 44.7646 22.1641 0
      vertex 23.0811 68.666 4
    endloop
  endfacet
  facet normal 0.939603 -0.342267 0
    outer loop
      vertex 24.6182 72.8857 0
      vertex 24.6182 72.8857 4
      vertex 23.0811 68.666 0
    endloop
  endfacet
  facet normal 0.939603 -0.342267 0
    outer loop
      vertex 23.0811 68.666 4
      vertex 23.0811 68.666 0
      vertex 24.6182 72.8857 4
    endloop
  endfacet
  facet normal 0.4226 -0.906316 0
    outer loop
      vertex 57.709 88.3154 0
      vertex 57.709 88.3154 4
      vertex 24.6182 72.8857 0
    endloop
  endfacet
  facet normal 0.4226 -0.906316 0
    outer loop
      vertex 24.6182 72.8857 4
      vertex 24.6182 72.8857 0
      vertex 57.709 88.3154 4
    endloop
  endfacet
  facet normal 0 -1 0
    outer loop
      vertex 62.6113 88.3154 0
      vertex 62.6113 88.3154 4
      vertex 57.709 88.3154 0
    endloop
  endfacet
  facet normal 0 -1 0
    outer loop
      vertex 57.709 88.3154 4
      vertex 57.709 88.3154 0
      vertex 62.6113 88.3154 4
    endloop
  endfacet
  facet normal 1 0 -0
    outer loop
      vertex 62.6113 174.549 0
      vertex 62.6113 174.549 4
      vertex 62.6113 88.3154 0
    endloop
  endfacet
  facet normal 1 -0 0
    outer loop
      vertex 62.6113 88.3154 4
      vertex 62.6113 88.3154 0
      vertex 62.6113 174.549 4
    endloop
  endfacet
  facet normal 0.704306 -0.709896 0
    outer loop
      vertex 65.8115 177.724 0
      vertex 65.8115 177.724 4
      vertex 62.6113 174.549 0
    endloop
  endfacet
  facet normal 0.704306 -0.709896 0
    outer loop
      vertex 62.6113 174.549 4
      vertex 62.6113 174.549 0
      vertex 65.8115 177.724 4
    endloop
  endfacet
  facet normal 0 -1 0
    outer loop
      vertex 77.876 177.724 0
      vertex 77.876 177.724 4
      vertex 65.8115 177.724 0
    endloop
  endfacet
  facet normal 0 -1 0
    outer loop
      vertex 65.8115 177.724 4
      vertex 65.8115 177.724 0
      vertex 77.876 177.724 4
    endloop
  endfacet
  facet normal 1 0 -0
    outer loop
      vertex 77.876 179.502 0
      vertex 77.876 179.502 4
      vertex 77.876 177.724 0
    endloop
  endfacet
  facet normal 1 -0 0
    outer loop
      vertex 77.876 177.724 4
      vertex 77.876 177.724 0
      vertex 77.876 179.502 4
    endloop
  endfacet
  facet normal 0 -1 0
    outer loop
      vertex 95.0469 179.502 0
      vertex 95.0469 179.502 4
      vertex 77.876 179.502 0
    endloop
  endfacet
  facet normal 0 -1 0
    outer loop
      vertex 77.876 179.502 4
      vertex 77.876 179.502 0
      vertex 95.0469 179.502 4
    endloop
  endfacet
  facet normal -1 0 0
    outer loop
      vertex 95.0469 177.724 0
      vertex 95.0469 177.724 4
      vertex 95.0469 179.502 0
    endloop
  endfacet
  facet normal -1 -0 -0
    outer loop
      vertex 95.0469 179.502 4
      vertex 95.0469 179.502 0
      vertex 95.0469 177.724 4
    endloop
  endfacet
  facet normal 0 -1 0
    outer loop
      vertex 131.902 177.724 0
      vertex 131.902 177.724 4
      vertex 95.0469 177.724 0
    endloop
  endfacet
  facet normal 0 -1 0
    outer loop
      vertex 95.0469 177.724 4
      vertex 95.0469 177.724 0
      vertex 131.902 177.724 4
    endloop
  endfacet
  facet normal 1 0 -0
    outer loop
      vertex 131.902 179.502 0
      vertex 131.902 179.502 4
      vertex 131.902 177.724 0
    endloop
  endfacet
  facet normal 1 -0 0
    outer loop
      vertex 131.902 177.724 4
      vertex 131.902 177.724 0
      vertex 131.902 179.502 4
    endloop
  endfacet
  facet normal 0 -1 0
    outer loop
      vertex 143.408 179.502 0
      vertex 143.408 179.502 4
      vertex 131.902 179.502 0
    endloop
  endfacet
  facet normal 0 -1 0
    outer loop
      vertex 131.902 179.502 4
      vertex 131.902 179.502 0
      vertex 143.408 179.502 4
    endloop
  endfacet
  facet normal -1 0 0
    outer loop
      vertex 143.408 177.724 0
      vertex 143.408 177.724 4
      vertex 143.408 179.502 0
    endloop
  endfacet
  facet normal -1 -0 -0
    outer loop
      vertex 143.408 179.502 4
      vertex 143.408 179.502 0
      vertex 143.408 177.724 4
    endloop
  endfacet
  facet normal 0 -1 0
    outer loop
      vertex 202.743 177.724 0
      vertex 202.743 177.724 4
      vertex 143.408 177.724 0
    endloop
  endfacet
  facet normal 0 -1 0
    outer loop
      vertex 143.408 177.724 4
      vertex 143.408 177.724 0
      vertex 202.743 177.724 4
    endloop
  endfacet
  facet normal -0.707107 -0.707107 0
    outer loop
      vertex 205.918 174.549 0
      vertex 205.918 174.549 4
      vertex 202.743 177.724 0
    endloop
  endfacet
  facet normal -0.707107 -0.707107 -0
    outer loop
      vertex 202.743 177.724 4
      vertex 202.743 177.724 0
      vertex 205.918 174.549 4
    endloop
  endfacet
  facet normal -1 0 0
    outer loop
      vertex 205.918 66.5986 0
      vertex 205.918 66.5986 4
      vertex 205.918 174.549 0
    endloop
  endfacet
  facet normal -1 -0 -0
    outer loop
      vertex 205.918 174.549 4
      vertex 205.918 174.549 0
      vertex 205.918 66.5986 4
    endloop
  endfacet
  facet normal -0.707085 0.707129 0
    outer loop
      vertex 196.393 57.0742 0
      vertex 196.393 57.0742 4
      vertex 205.918 66.5986 0
    endloop
  endfacet
  facet normal -0.707085 0.707129 0
    outer loop
      vertex 205.918 66.5986 4
      vertex 205.918 66.5986 0
      vertex 196.393 57.0742 4
    endloop
  endfacet
  facet normal 0 1 0
    outer loop
      vertex 127.152 57.0742 0
      vertex 127.152 57.0742 4
      vertex 196.393 57.0742 0
    endloop
  endfacet
  facet normal 0 1 0
    outer loop
      vertex 196.393 57.0742 4
      vertex 196.393 57.0742 0
      vertex 127.152 57.0742 4
    endloop
  endfacet
  facet normal -0.422563 0.906334 0
    outer loop
      vertex 48.9844 20.6299 0
      vertex 48.9844 20.6299 4
      vertex 127.152 57.0742 0
    endloop
  endfacet
  facet normal -0.422563 0.906334 0
    outer loop
      vertex 127.152 57.0742 4
      vertex 127.152 57.0742 0
      vertex 48.9844 20.6299 4
    endloop
  endfacet
  facet normal 0.341689 0.939813 -0
    outer loop
      vertex 44.7646 22.1641 0
      vertex 44.7646 22.1641 4
      vertex 48.9844 20.6299 0
    endloop
  endfacet
  facet normal 0.341689 0.939813 0
    outer loop
      vertex 48.9844 20.6299 4
      vertex 48.9844 20.6299 0
      vertex 44.7646 22.1641 4
    endloop
  endfacet
  facet normal 1 0 -0
    outer loop
      vertex 17.0361 73.6963 0
      vertex 17.0361 73.6963 4
      vertex 17.0361 71.9326 0
    endloop
  endfacet
  facet normal 1 -0 0
    outer loop
      vertex 17.0361 71.9326 4
      vertex 17.0361 71.9326 0
      vertex 17.0361 73.6963 4
    endloop
  endfacet
  facet normal 0.309055 -0.951044 0
    outer loop
      vertex 18.7129 74.2412 0
      vertex 18.7129 74.2412 4
      vertex 17.0361 73.6963 0
    endloop
  endfacet
  facet normal 0.309055 -0.951044 0
    outer loop
      vertex 17.0361 73.6963 4
      vertex 17.0361 73.6963 0
      vertex 18.7129 74.2412 4
    endloop
  endfacet
  facet normal -0.809141 -0.587615 0
    outer loop
      vertex 19.749 72.8145 0
      vertex 19.749 72.8145 4
      vertex 18.7129 74.2412 0
    endloop
  endfacet
  facet normal -0.809141 -0.587615 -0
    outer loop
      vertex 18.7129 74.2412 4
      vertex 18.7129 74.2412 0
      vertex 19.749 72.8145 4
    endloop
  endfacet
  facet normal -0.80916 0.587588 0
    outer loop
      vertex 18.7129 71.3877 0
      vertex 18.7129 71.3877 4
      vertex 19.749 72.8145 0
    endloop
  endfacet
  facet normal -0.80916 0.587588 0
    outer loop
      vertex 19.749 72.8145 4
      vertex 19.749 72.8145 0
      vertex 18.7129 71.3877 4
    endloop
  endfacet
  facet normal 0.309055 0.951044 -0
    outer loop
      vertex 17.0361 71.9326 0
      vertex 17.0361 71.9326 4
      vertex 18.7129 71.3877 0
    endloop
  endfacet
  facet normal 0.309055 0.951044 0
    outer loop
      vertex 18.7129 71.3877 4
      vertex 18.7129 71.3877 0
      vertex 17.0361 71.9326 4
    endloop
  endfacet
  facet normal 1 0 -0
    outer loop
      vertex 207.33 56.917 0
      vertex 207.33 56.917 4
      vertex 207.33 55.1533 0
    endloop
  endfacet
  facet normal 1 -0 0
    outer loop
      vertex 207.33 55.1533 4
      vertex 207.33 55.1533 0
      vertex 207.33 56.917 4
    endloop
  endfacet
  facet normal 0.308855 -0.951109 0
    outer loop
      vertex 209.008 57.4619 0
      vertex 209.008 57.4619 4
      vertex 207.33 56.917 0
    endloop
  endfacet
  facet normal 0.308855 -0.951109 0
    outer loop
      vertex 207.33 56.917 4
      vertex 207.33 56.917 0
      vertex 209.008 57.4619 4
    endloop
  endfacet
  facet normal -0.809168 -0.587578 0
    outer loop
      vertex 210.044 56.0352 0
      vertex 210.044 56.0352 4
      vertex 209.008 57.4619 0
    endloop
  endfacet
  facet normal -0.809168 -0.587578 -0
    outer loop
      vertex 209.008 57.4619 4
      vertex 209.008 57.4619 0
      vertex 210.044 56.0352 4
    endloop
  endfacet
  facet normal -0.809187 0.587551 0
    outer loop
      vertex 209.008 54.6084 0
      vertex 209.008 54.6084 4
      vertex 210.044 56.0352 0
    endloop
  endfacet
  facet normal -0.809187 0.587551 0
    outer loop
      vertex 210.044 56.0352 4
      vertex 210.044 56.0352 0
      vertex 209.008 54.6084 4
    endloop
  endfacet
  facet normal 0.308855 0.951109 -0
    outer loop
      vertex 207.33 55.1533 0
      vertex 207.33 55.1533 4
      vertex 209.008 54.6084 0
    endloop
  endfacet
  facet normal 0.308855 0.951109 0
    outer loop
      vertex 209.008 54.6084 4
      vertex 209.008 54.6084 0
      vertex 207.33 55.1533 4
    endloop
  endfacet
  facet normal 1 0 -0
    outer loop
      vertex 126.925 53.5107 0
      vertex 126.925 53.5107 4
      vertex 126.925 51.7471 0
    endloop
  endfacet
  facet normal 1 -0 0
    outer loop
      vertex 126.925 51.7471 4
      vertex 126.925 51.7471 0
      vertex 126.925 53.5107 4
    endloop
  endfacet
  facet normal 0.309073 -0.951038 0
    outer loop
      vertex 128.602 54.0557 0
      vertex 128.602 54.0557 4
      vertex 126.925 53.5107 0
    endloop
  endfacet
  facet normal 0.309073 -0.951038 0
    outer loop
      vertex 126.925 53.5107 4
      vertex 126.925 53.5107 0
      vertex 128.602 54.0557 4
    endloop
  endfacet
  facet normal -0.809187 -0.587551 0
    outer loop
      vertex 129.638 52.6289 0
      vertex 129.638 52.6289 4
      vertex 128.602 54.0557 0
    endloop
  endfacet
  facet normal -0.809187 -0.587551 -0
    outer loop
      vertex 128.602 54.0557 4
      vertex 128.602 54.0557 0
      vertex 129.638 52.6289 4
    endloop
  endfacet
  facet normal -0.809187 0.587551 0
    outer loop
      vertex 128.602 51.2021 0
      vertex 128.602 51.2021 4
      vertex 129.638 52.6289 0
    endloop
  endfacet
  facet normal -0.809187 0.587551 0
    outer loop
      vertex 129.638 52.6289 4
      vertex 129.638 52.6289 0
      vertex 128.602 51.2021 4
    endloop
  endfacet
  facet normal 0.309073 0.951038 -0
    outer loop
      vertex 126.925 51.7471 0
      vertex 126.925 51.7471 4
      vertex 128.602 51.2021 0
    endloop
  endfacet
  facet normal 0.309073 0.951038 0
    outer loop
      vertex 128.602 51.2021 4
      vertex 128.602 51.2021 0
      vertex 126.925 51.7471 4
    endloop
  endfacet
  facet normal 1 0 -0
    outer loop
      vertex 43.6221 16.6797 0
      vertex 43.6221 16.6797 4
      vertex 43.6221 14.917 0
    endloop
  endfacet
  facet normal 1 -0 0
    outer loop
      vertex 43.6221 14.917 4
      vertex 43.6221 14.917 0
      vertex 43.6221 16.6797 4
    endloop
  endfacet
  facet normal 0.309072 -0.951039 0
    outer loop
      vertex 45.2988 17.2246 0
      vertex 45.2988 17.2246 4
      vertex 43.6221 16.6797 0
    endloop
  endfacet
  facet normal 0.309072 -0.951039 0
    outer loop
      vertex 43.6221 16.6797 4
      vertex 43.6221 16.6797 0
      vertex 45.2988 17.2246 4
    endloop
  endfacet
  facet normal -0.808871 -0.587986 0
    outer loop
      vertex 46.3359 15.7979 0
      vertex 46.3359 15.7979 4
      vertex 45.2988 17.2246 0
    endloop
  endfacet
  facet normal -0.808871 -0.587986 -0
    outer loop
      vertex 45.2988 17.2246 4
      vertex 45.2988 17.2246 0
      vertex 46.3359 15.7979 4
    endloop
  endfacet
  facet normal -0.808694 0.588229 0
    outer loop
      vertex 45.2988 14.3721 0
      vertex 45.2988 14.3721 4
      vertex 46.3359 15.7979 0
    endloop
  endfacet
  facet normal -0.808694 0.588229 0
    outer loop
      vertex 46.3359 15.7979 4
      vertex 46.3359 15.7979 0
      vertex 45.2988 14.3721 4
    endloop
  endfacet
  facet normal 0.309072 0.951039 -0
    outer loop
      vertex 43.6221 14.917 0
      vertex 43.6221 14.917 4
      vertex 45.2988 14.3721 0
    endloop
  endfacet
  facet normal 0.309072 0.951039 0
    outer loop
      vertex 45.2988 14.3721 4
      vertex 45.2988 14.3721 0
      vertex 43.6221 14.917 4
    endloop
  endfacet
endsolid OpenSCAD_Model
