<?xml version="1.0" standalone="no"?>
<!DOCTYPE svg PUBLIC "-//W3C//DTD SVG 1.1//EN" "http://www.w3.org/Graphics/SVG/1.1/DTD/svg11.dtd">
<svg width="203mm" height="177mm" viewBox="12 -187 203 177" xmlns="http://www.w3.org/2000/svg" version="1.1">
<title>OpenSCAD Model</title>
<path d="
M 127.717,-47.5283 L 130.675,-48.1836 L 207.808,-48.1836 L 214.808,-55.1836 L 214.808,-179.614 L 207.808,-186.614
 L 60.7207,-186.614 L 53.7207,-179.614 L 53.7207,-100.726 L 49.6787,-94.3809 L 16.2686,-78.8027 L 12.8828,-69.5
 L 38.8477,-13.8193 L 48.1494,-10.4326 z
M 112.261,-181.287 L 112.261,-183.051 L 113.938,-183.596 L 114.975,-182.169 L 113.938,-180.742 z
M 207.33,-179.468 L 207.33,-181.231 L 209.008,-181.776 L 210.044,-180.35 L 209.008,-178.923 z
M 58.7773,-179.468 L 58.7773,-181.231 L 60.4551,-181.776 L 61.4912,-180.35 L 60.4551,-178.923 z
M 78.7861,-159.118 L 78.7861,-160.882 L 80.4639,-161.427 L 81.5,-160 L 80.4639,-158.573 z
M 188.786,-159.118 L 188.786,-160.882 L 190.464,-161.427 L 191.5,-160 L 190.464,-158.573 z
M 17.0361,-71.9326 L 17.0361,-73.6963 L 18.7129,-74.2412 L 19.749,-72.8145 L 18.7129,-71.3877 z
M 207.33,-55.1533 L 207.33,-56.917 L 209.008,-57.4619 L 210.044,-56.0352 L 209.008,-54.6084 z
M 126.925,-51.7471 L 126.925,-53.5107 L 128.602,-54.0557 L 129.638,-52.6289 L 128.602,-51.2021 z
M 48.7861,-39.1182 L 48.7861,-40.8818 L 50.4639,-41.4268 L 51.5,-40 L 50.4639,-38.5732 z
M 43.6221,-14.917 L 43.6221,-16.6797 L 45.2988,-17.2246 L 46.3359,-15.7979 L 45.2988,-14.3721 z
" stroke="black" fill="lightgray" stroke-width="0.5"/>
</svg>
