solid OpenSCAD_Model
  facet normal 0 0 -1
    outer loop
      vertex 114.975 182.169 0
      vertex 207.808 186.614 0
      vertex 188.786 160.882 0
    endloop
  endfacet
  facet normal -0 0 -1
    outer loop
      vertex 112.261 183.051 0
      vertex 61.4912 180.35 0
      vertex 60.7207 186.614 0
    endloop
  endfacet
  facet normal 0 0 -1
    outer loop
      vertex 190.464 158.573 0
      vertex 214.808 55.1836 0
      vertex 209.008 57.4619 0
    endloop
  endfacet
  facet normal 0 -0 -1
    outer loop
      vertex 209.008 178.923 0
      vertex 214.808 179.614 0
      vertex 191.5 160 0
    endloop
  endfacet
  facet normal -0 0 -1
    outer loop
      vertex 113.938 180.742 0
      vertex 81.5 160 0
      vertex 112.261 181.287 0
    endloop
  endfacet
  facet normal 0 0 -1
    outer loop
      vertex 190.464 161.427 0
      vertex 207.33 179.468 0
      vertex 191.5 160 0
    endloop
  endfacet
  facet normal 0 0 -1
    outer loop
      vertex 130.675 48.1836 0
      vertex 128.602 51.2021 0
      vertex 129.638 52.6289 0
    endloop
  endfacet
  facet normal 0 0 -1
    outer loop
      vertex 207.33 56.917 0
      vertex 130.675 48.1836 0
      vertex 129.638 52.6289 0
    endloop
  endfacet
  facet normal 0 -0 -1
    outer loop
      vertex 126.925 53.5107 0
      vertex 126.925 51.7471 0
      vertex 51.5 40 0
    endloop
  endfacet
  facet normal 0 0 -1
    outer loop
      vertex 12.8828 69.5 0
      vertex 17.0361 73.6963 0
      vertex 17.0361 71.9326 0
    endloop
  endfacet
  facet normal 0 0 -1
    outer loop
      vertex 38.8477 13.8193 0
      vertex 12.8828 69.5 0
      vertex 48.7861 39.1182 0
    endloop
  endfacet
  facet normal 0 0 -1
    outer loop
      vertex 48.1494 10.4326 0
      vertex 43.6221 14.917 0
      vertex 45.2988 14.3721 0
    endloop
  endfacet
  facet normal -0 0 -1
    outer loop
      vertex 128.602 54.0557 0
      vertex 126.925 53.5107 0
      vertex 53.7207 100.726 0
    endloop
  endfacet
  facet normal 0 0 -1
    outer loop
      vertex 53.7207 179.614 0
      vertex 60.7207 186.614 0
      vertex 58.7773 181.231 0
    endloop
  endfacet
  facet normal 0 0 -1
    outer loop
      vertex 60.4551 181.776 0
      vertex 60.7207 186.614 0
      vertex 61.4912 180.35 0
    endloop
  endfacet
  facet normal 0 0 -1
    outer loop
      vertex 112.261 183.051 0
      vertex 60.7207 186.614 0
      vertex 113.938 183.596 0
    endloop
  endfacet
  facet normal 0 0 -1
    outer loop
      vertex 113.938 183.596 0
      vertex 60.7207 186.614 0
      vertex 207.808 186.614 0
    endloop
  endfacet
  facet normal 0 0 -1
    outer loop
      vertex 207.33 181.231 0
      vertex 190.464 161.427 0
      vertex 188.786 160.882 0
    endloop
  endfacet
  facet normal 0 0 -1
    outer loop
      vertex 114.975 182.169 0
      vertex 113.938 183.596 0
      vertex 207.808 186.614 0
    endloop
  endfacet
  facet normal 0 0 -1
    outer loop
      vertex 214.808 55.1836 0
      vertex 190.464 158.573 0
      vertex 214.808 179.614 0
    endloop
  endfacet
  facet normal 0 0 -1
    outer loop
      vertex 209.008 181.776 0
      vertex 214.808 179.614 0
      vertex 210.044 180.35 0
    endloop
  endfacet
  facet normal 0 0 -1
    outer loop
      vertex 207.808 186.614 0
      vertex 207.33 181.231 0
      vertex 188.786 160.882 0
    endloop
  endfacet
  facet normal 0 0 -1
    outer loop
      vertex 214.808 179.614 0
      vertex 209.008 181.776 0
      vertex 207.808 186.614 0
    endloop
  endfacet
  facet normal -0 0 -1
    outer loop
      vertex 209.008 181.776 0
      vertex 207.33 181.231 0
      vertex 207.808 186.614 0
    endloop
  endfacet
  facet normal 0 -0 -1
    outer loop
      vertex 210.044 180.35 0
      vertex 214.808 179.614 0
      vertex 209.008 178.923 0
    endloop
  endfacet
  facet normal 0 0 -1
    outer loop
      vertex 113.938 180.742 0
      vertex 80.4639 158.573 0
      vertex 81.5 160 0
    endloop
  endfacet
  facet normal 0 0 -1
    outer loop
      vertex 112.261 183.051 0
      vertex 80.4639 161.427 0
      vertex 61.4912 180.35 0
    endloop
  endfacet
  facet normal 0 0 -1
    outer loop
      vertex 53.7207 179.614 0
      vertex 58.7773 179.468 0
      vertex 60.4551 178.923 0
    endloop
  endfacet
  facet normal 0 0 -1
    outer loop
      vertex 58.7773 181.231 0
      vertex 60.7207 186.614 0
      vertex 60.4551 181.776 0
    endloop
  endfacet
  facet normal 0 0 -1
    outer loop
      vertex 53.7207 179.614 0
      vertex 58.7773 181.231 0
      vertex 58.7773 179.468 0
    endloop
  endfacet
  facet normal -0 -0 -1
    outer loop
      vertex 78.7861 160.882 0
      vertex 78.7861 159.118 0
      vertex 60.4551 178.923 0
    endloop
  endfacet
  facet normal -0 -0 -1
    outer loop
      vertex 60.4551 178.923 0
      vertex 78.7861 159.118 0
      vertex 53.7207 179.614 0
    endloop
  endfacet
  facet normal 0 0 -1
    outer loop
      vertex 19.749 72.8145 0
      vertex 49.6787 94.3809 0
      vertex 50.4639 41.4268 0
    endloop
  endfacet
  facet normal 0 0 -1
    outer loop
      vertex 53.7207 179.614 0
      vertex 78.7861 159.118 0
      vertex 53.7207 100.726 0
    endloop
  endfacet
  facet normal 0 -0 -1
    outer loop
      vertex 78.7861 159.118 0
      vertex 80.4639 158.573 0
      vertex 53.7207 100.726 0
    endloop
  endfacet
  facet normal -0 0 -1
    outer loop
      vertex 80.4639 161.427 0
      vertex 78.7861 160.882 0
      vertex 61.4912 180.35 0
    endloop
  endfacet
  facet normal 0 0 -1
    outer loop
      vertex 78.7861 160.882 0
      vertex 60.4551 178.923 0
      vertex 61.4912 180.35 0
    endloop
  endfacet
  facet normal -0 0 -1
    outer loop
      vertex 112.261 181.287 0
      vertex 80.4639 161.427 0
      vertex 112.261 183.051 0
    endloop
  endfacet
  facet normal 0 0 -1
    outer loop
      vertex 112.261 181.287 0
      vertex 81.5 160 0
      vertex 80.4639 161.427 0
    endloop
  endfacet
  facet normal -0 0 -1
    outer loop
      vertex 214.808 55.1836 0
      vertex 209.008 54.6084 0
      vertex 210.044 56.0352 0
    endloop
  endfacet
  facet normal 0 -0 -1
    outer loop
      vertex 114.975 182.169 0
      vertex 188.786 159.118 0
      vertex 113.938 180.742 0
    endloop
  endfacet
  facet normal 0 -0 -1
    outer loop
      vertex 207.33 181.231 0
      vertex 207.33 179.468 0
      vertex 190.464 161.427 0
    endloop
  endfacet
  facet normal 0 0 -1
    outer loop
      vertex 114.975 182.169 0
      vertex 188.786 160.882 0
      vertex 188.786 159.118 0
    endloop
  endfacet
  facet normal 0 -0 -1
    outer loop
      vertex 207.33 179.468 0
      vertex 209.008 178.923 0
      vertex 191.5 160 0
    endloop
  endfacet
  facet normal 0 -0 -1
    outer loop
      vertex 191.5 160 0
      vertex 214.808 179.614 0
      vertex 190.464 158.573 0
    endloop
  endfacet
  facet normal 0 -0 -1
    outer loop
      vertex 18.7129 71.3877 0
      vertex 48.7861 40.8818 0
      vertex 12.8828 69.5 0
    endloop
  endfacet
  facet normal 0 0 -1
    outer loop
      vertex 17.0361 73.6963 0
      vertex 16.2686 78.8027 0
      vertex 18.7129 74.2412 0
    endloop
  endfacet
  facet normal 0 0 -1
    outer loop
      vertex 12.8828 69.5 0
      vertex 17.0361 71.9326 0
      vertex 18.7129 71.3877 0
    endloop
  endfacet
  facet normal 0 0 -1
    outer loop
      vertex 12.8828 69.5 0
      vertex 16.2686 78.8027 0
      vertex 17.0361 73.6963 0
    endloop
  endfacet
  facet normal 0 0 -1
    outer loop
      vertex 18.7129 74.2412 0
      vertex 16.2686 78.8027 0
      vertex 49.6787 94.3809 0
    endloop
  endfacet
  facet normal -0 -0 -1
    outer loop
      vertex 48.7861 40.8818 0
      vertex 48.7861 39.1182 0
      vertex 12.8828 69.5 0
    endloop
  endfacet
  facet normal 0 0 -1
    outer loop
      vertex 19.749 72.8145 0
      vertex 18.7129 74.2412 0
      vertex 49.6787 94.3809 0
    endloop
  endfacet
  facet normal 0 0 -1
    outer loop
      vertex 207.33 55.1533 0
      vertex 209.008 54.6084 0
      vertex 207.808 48.1836 0
    endloop
  endfacet
  facet normal 0 -0 -1
    outer loop
      vertex 209.008 54.6084 0
      vertex 214.808 55.1836 0
      vertex 207.808 48.1836 0
    endloop
  endfacet
  facet normal 0 -0 -1
    outer loop
      vertex 207.33 56.917 0
      vertex 207.33 55.1533 0
      vertex 130.675 48.1836 0
    endloop
  endfacet
  facet normal 0 -0 -1
    outer loop
      vertex 207.33 55.1533 0
      vertex 207.808 48.1836 0
      vertex 130.675 48.1836 0
    endloop
  endfacet
  facet normal -0 -0 -1
    outer loop
      vertex 190.464 158.573 0
      vertex 207.33 56.917 0
      vertex 188.786 159.118 0
    endloop
  endfacet
  facet normal 0 0 -1
    outer loop
      vertex 190.464 158.573 0
      vertex 209.008 57.4619 0
      vertex 207.33 56.917 0
    endloop
  endfacet
  facet normal 0 0 -1
    outer loop
      vertex 214.808 55.1836 0
      vertex 210.044 56.0352 0
      vertex 209.008 57.4619 0
    endloop
  endfacet
  facet normal 0 0 -1
    outer loop
      vertex 126.925 53.5107 0
      vertex 49.6787 94.3809 0
      vertex 53.7207 100.726 0
    endloop
  endfacet
  facet normal 0 -0 -1
    outer loop
      vertex 128.602 51.2021 0
      vertex 130.675 48.1836 0
      vertex 127.717 47.5283 0
    endloop
  endfacet
  facet normal 0 0 -1
    outer loop
      vertex 126.925 53.5107 0
      vertex 51.5 40 0
      vertex 50.4639 41.4268 0
    endloop
  endfacet
  facet normal 0 0 -1
    outer loop
      vertex 126.925 51.7471 0
      vertex 128.602 51.2021 0
      vertex 127.717 47.5283 0
    endloop
  endfacet
  facet normal 0 0 -1
    outer loop
      vertex 128.602 54.0557 0
      vertex 80.4639 158.573 0
      vertex 113.938 180.742 0
    endloop
  endfacet
  facet normal 0 0 -1
    outer loop
      vertex 53.7207 100.726 0
      vertex 80.4639 158.573 0
      vertex 128.602 54.0557 0
    endloop
  endfacet
  facet normal -0 0 -1
    outer loop
      vertex 207.33 56.917 0
      vertex 128.602 54.0557 0
      vertex 188.786 159.118 0
    endloop
  endfacet
  facet normal 0 0 -1
    outer loop
      vertex 128.602 54.0557 0
      vertex 113.938 180.742 0
      vertex 188.786 159.118 0
    endloop
  endfacet
  facet normal 0 0 -1
    outer loop
      vertex 207.33 56.917 0
      vertex 129.638 52.6289 0
      vertex 128.602 54.0557 0
    endloop
  endfacet
  facet normal 0 -0 -1
    outer loop
      vertex 51.5 40 0
      vertex 127.717 47.5283 0
      vertex 48.1494 10.4326 0
    endloop
  endfacet
  facet normal 0 0 -1
    outer loop
      vertex 38.8477 13.8193 0
      vertex 48.7861 39.1182 0
      vertex 43.6221 16.6797 0
    endloop
  endfacet
  facet normal 0 -0 -1
    outer loop
      vertex 126.925 51.7471 0
      vertex 127.717 47.5283 0
      vertex 51.5 40 0
    endloop
  endfacet
  facet normal -0 0 -1
    outer loop
      vertex 50.4639 41.4268 0
      vertex 48.7861 40.8818 0
      vertex 19.749 72.8145 0
    endloop
  endfacet
  facet normal 0 0 -1
    outer loop
      vertex 48.7861 40.8818 0
      vertex 18.7129 71.3877 0
      vertex 19.749 72.8145 0
    endloop
  endfacet
  facet normal 0 0 -1
    outer loop
      vertex 50.4639 41.4268 0
      vertex 49.6787 94.3809 0
      vertex 126.925 53.5107 0
    endloop
  endfacet
  facet normal 0 0 -1
    outer loop
      vertex 51.5 40 0
      vertex 46.3359 15.7979 0
      vertex 50.4639 38.5732 0
    endloop
  endfacet
  facet normal 0 0 -1
    outer loop
      vertex 43.6221 16.6797 0
      vertex 48.7861 39.1182 0
      vertex 45.2988 17.2246 0
    endloop
  endfacet
  facet normal 0 0 -1
    outer loop
      vertex 38.8477 13.8193 0
      vertex 43.6221 14.917 0
      vertex 48.1494 10.4326 0
    endloop
  endfacet
  facet normal 0 -0 -1
    outer loop
      vertex 48.7861 39.1182 0
      vertex 50.4639 38.5732 0
      vertex 45.2988 17.2246 0
    endloop
  endfacet
  facet normal 0 0 -1
    outer loop
      vertex 38.8477 13.8193 0
      vertex 43.6221 16.6797 0
      vertex 43.6221 14.917 0
    endloop
  endfacet
  facet normal 0 -0 -1
    outer loop
      vertex 46.3359 15.7979 0
      vertex 48.1494 10.4326 0
      vertex 45.2988 14.3721 0
    endloop
  endfacet
  facet normal 0 0 -1
    outer loop
      vertex 48.1494 10.4326 0
      vertex 46.3359 15.7979 0
      vertex 51.5 40 0
    endloop
  endfacet
  facet normal 0 0 -1
    outer loop
      vertex 46.3359 15.7979 0
      vertex 45.2988 17.2246 0
      vertex 50.4639 38.5732 0
    endloop
  endfacet
  facet normal 0 -0 1
    outer loop
      vertex 188.786 160.882 3
      vertex 207.808 186.614 3
      vertex 114.975 182.169 3
    endloop
  endfacet
  facet normal 0 0 1
    outer loop
      vertex 60.7207 186.614 3
      vertex 61.4912 180.35 3
      vertex 112.261 183.051 3
    endloop
  endfacet
  facet normal -0 -0 1
    outer loop
      vertex 209.008 57.4619 3
      vertex 214.808 55.1836 3
      vertex 190.464 158.573 3
    endloop
  endfacet
  facet normal 0 0 1
    outer loop
      vertex 191.5 160 3
      vertex 214.808 179.614 3
      vertex 209.008 178.923 3
    endloop
  endfacet
  facet normal 0 0 1
    outer loop
      vertex 112.261 181.287 3
      vertex 81.5 160 3
      vertex 113.938 180.742 3
    endloop
  endfacet
  facet normal 0 -0 1
    outer loop
      vertex 191.5 160 3
      vertex 207.33 179.468 3
      vertex 190.464 161.427 3
    endloop
  endfacet
  facet normal 0 0 1
    outer loop
      vertex 129.638 52.6289 3
      vertex 128.602 51.2021 3
      vertex 130.675 48.1836 3
    endloop
  endfacet
  facet normal -0 0 1
    outer loop
      vertex 129.638 52.6289 3
      vertex 130.675 48.1836 3
      vertex 207.33 56.917 3
    endloop
  endfacet
  facet normal 0 0 1
    outer loop
      vertex 51.5 40 3
      vertex 126.925 51.7471 3
      vertex 126.925 53.5107 3
    endloop
  endfacet
  facet normal 0 -0 1
    outer loop
      vertex 17.0361 71.9326 3
      vertex 17.0361 73.6963 3
      vertex 12.8828 69.5 3
    endloop
  endfacet
  facet normal 0 0 1
    outer loop
      vertex 48.7861 39.1182 3
      vertex 12.8828 69.5 3
      vertex 38.8477 13.8193 3
    endloop
  endfacet
  facet normal 0 0 1
    outer loop
      vertex 45.2988 14.3721 3
      vertex 43.6221 14.917 3
      vertex 48.1494 10.4326 3
    endloop
  endfacet
  facet normal 0 0 1
    outer loop
      vertex 53.7207 100.726 3
      vertex 126.925 53.5107 3
      vertex 128.602 54.0557 3
    endloop
  endfacet
  facet normal 0 -0 1
    outer loop
      vertex 58.7773 181.231 3
      vertex 60.7207 186.614 3
      vertex 53.7207 179.614 3
    endloop
  endfacet
  facet normal 0 0 1
    outer loop
      vertex 61.4912 180.35 3
      vertex 60.7207 186.614 3
      vertex 60.4551 181.776 3
    endloop
  endfacet
  facet normal 0 0 1
    outer loop
      vertex 113.938 183.596 3
      vertex 60.7207 186.614 3
      vertex 112.261 183.051 3
    endloop
  endfacet
  facet normal 0 0 1
    outer loop
      vertex 207.808 186.614 3
      vertex 60.7207 186.614 3
      vertex 113.938 183.596 3
    endloop
  endfacet
  facet normal 0 0 1
    outer loop
      vertex 188.786 160.882 3
      vertex 190.464 161.427 3
      vertex 207.33 181.231 3
    endloop
  endfacet
  facet normal 0 0 1
    outer loop
      vertex 207.808 186.614 3
      vertex 113.938 183.596 3
      vertex 114.975 182.169 3
    endloop
  endfacet
  facet normal 0 0 1
    outer loop
      vertex 214.808 179.614 3
      vertex 190.464 158.573 3
      vertex 214.808 55.1836 3
    endloop
  endfacet
  facet normal -0 -0 1
    outer loop
      vertex 210.044 180.35 3
      vertex 214.808 179.614 3
      vertex 209.008 181.776 3
    endloop
  endfacet
  facet normal 0 0 1
    outer loop
      vertex 188.786 160.882 3
      vertex 207.33 181.231 3
      vertex 207.808 186.614 3
    endloop
  endfacet
  facet normal 0 0 1
    outer loop
      vertex 207.808 186.614 3
      vertex 209.008 181.776 3
      vertex 214.808 179.614 3
    endloop
  endfacet
  facet normal 0 0 1
    outer loop
      vertex 207.808 186.614 3
      vertex 207.33 181.231 3
      vertex 209.008 181.776 3
    endloop
  endfacet
  facet normal 0 0 1
    outer loop
      vertex 209.008 178.923 3
      vertex 214.808 179.614 3
      vertex 210.044 180.35 3
    endloop
  endfacet
  facet normal -0 0 1
    outer loop
      vertex 81.5 160 3
      vertex 80.4639 158.573 3
      vertex 113.938 180.742 3
    endloop
  endfacet
  facet normal -0 0 1
    outer loop
      vertex 61.4912 180.35 3
      vertex 80.4639 161.427 3
      vertex 112.261 183.051 3
    endloop
  endfacet
  facet normal 0 0 1
    outer loop
      vertex 60.4551 178.923 3
      vertex 58.7773 179.468 3
      vertex 53.7207 179.614 3
    endloop
  endfacet
  facet normal 0 -0 1
    outer loop
      vertex 60.4551 181.776 3
      vertex 60.7207 186.614 3
      vertex 58.7773 181.231 3
    endloop
  endfacet
  facet normal 0 -0 1
    outer loop
      vertex 58.7773 179.468 3
      vertex 58.7773 181.231 3
      vertex 53.7207 179.614 3
    endloop
  endfacet
  facet normal 0 0 1
    outer loop
      vertex 60.4551 178.923 3
      vertex 78.7861 159.118 3
      vertex 78.7861 160.882 3
    endloop
  endfacet
  facet normal 0 0 1
    outer loop
      vertex 53.7207 179.614 3
      vertex 78.7861 159.118 3
      vertex 60.4551 178.923 3
    endloop
  endfacet
  facet normal 0 0 1
    outer loop
      vertex 50.4639 41.4268 3
      vertex 49.6787 94.3809 3
      vertex 19.749 72.8145 3
    endloop
  endfacet
  facet normal 0 0 1
    outer loop
      vertex 53.7207 100.726 3
      vertex 78.7861 159.118 3
      vertex 53.7207 179.614 3
    endloop
  endfacet
  facet normal 0 0 1
    outer loop
      vertex 53.7207 100.726 3
      vertex 80.4639 158.573 3
      vertex 78.7861 159.118 3
    endloop
  endfacet
  facet normal 0 0 1
    outer loop
      vertex 61.4912 180.35 3
      vertex 78.7861 160.882 3
      vertex 80.4639 161.427 3
    endloop
  endfacet
  facet normal 0 0 1
    outer loop
      vertex 61.4912 180.35 3
      vertex 60.4551 178.923 3
      vertex 78.7861 160.882 3
    endloop
  endfacet
  facet normal 0 0 1
    outer loop
      vertex 112.261 183.051 3
      vertex 80.4639 161.427 3
      vertex 112.261 181.287 3
    endloop
  endfacet
  facet normal -0 0 1
    outer loop
      vertex 80.4639 161.427 3
      vertex 81.5 160 3
      vertex 112.261 181.287 3
    endloop
  endfacet
  facet normal 0 0 1
    outer loop
      vertex 210.044 56.0352 3
      vertex 209.008 54.6084 3
      vertex 214.808 55.1836 3
    endloop
  endfacet
  facet normal -0 0 1
    outer loop
      vertex 113.938 180.742 3
      vertex 188.786 159.118 3
      vertex 114.975 182.169 3
    endloop
  endfacet
  facet normal 0 0 1
    outer loop
      vertex 190.464 161.427 3
      vertex 207.33 179.468 3
      vertex 207.33 181.231 3
    endloop
  endfacet
  facet normal 0 -0 1
    outer loop
      vertex 188.786 159.118 3
      vertex 188.786 160.882 3
      vertex 114.975 182.169 3
    endloop
  endfacet
  facet normal 0 0 1
    outer loop
      vertex 191.5 160 3
      vertex 209.008 178.923 3
      vertex 207.33 179.468 3
    endloop
  endfacet
  facet normal 0 0 1
    outer loop
      vertex 190.464 158.573 3
      vertex 214.808 179.614 3
      vertex 191.5 160 3
    endloop
  endfacet
  facet normal -0 0 1
    outer loop
      vertex 12.8828 69.5 3
      vertex 48.7861 40.8818 3
      vertex 18.7129 71.3877 3
    endloop
  endfacet
  facet normal 0 0 1
    outer loop
      vertex 18.7129 74.2412 3
      vertex 16.2686 78.8027 3
      vertex 17.0361 73.6963 3
    endloop
  endfacet
  facet normal 0 0 1
    outer loop
      vertex 18.7129 71.3877 3
      vertex 17.0361 71.9326 3
      vertex 12.8828 69.5 3
    endloop
  endfacet
  facet normal 0 0 1
    outer loop
      vertex 17.0361 73.6963 3
      vertex 16.2686 78.8027 3
      vertex 12.8828 69.5 3
    endloop
  endfacet
  facet normal 0 0 1
    outer loop
      vertex 49.6787 94.3809 3
      vertex 16.2686 78.8027 3
      vertex 18.7129 74.2412 3
    endloop
  endfacet
  facet normal 0 0 1
    outer loop
      vertex 12.8828 69.5 3
      vertex 48.7861 39.1182 3
      vertex 48.7861 40.8818 3
    endloop
  endfacet
  facet normal 0 0 1
    outer loop
      vertex 49.6787 94.3809 3
      vertex 18.7129 74.2412 3
      vertex 19.749 72.8145 3
    endloop
  endfacet
  facet normal 0 -0 1
    outer loop
      vertex 207.808 48.1836 3
      vertex 209.008 54.6084 3
      vertex 207.33 55.1533 3
    endloop
  endfacet
  facet normal 0 0 1
    outer loop
      vertex 207.808 48.1836 3
      vertex 214.808 55.1836 3
      vertex 209.008 54.6084 3
    endloop
  endfacet
  facet normal 0 0 1
    outer loop
      vertex 130.675 48.1836 3
      vertex 207.33 55.1533 3
      vertex 207.33 56.917 3
    endloop
  endfacet
  facet normal 0 0 1
    outer loop
      vertex 130.675 48.1836 3
      vertex 207.808 48.1836 3
      vertex 207.33 55.1533 3
    endloop
  endfacet
  facet normal 0 0 1
    outer loop
      vertex 188.786 159.118 3
      vertex 207.33 56.917 3
      vertex 190.464 158.573 3
    endloop
  endfacet
  facet normal 0 -0 1
    outer loop
      vertex 207.33 56.917 3
      vertex 209.008 57.4619 3
      vertex 190.464 158.573 3
    endloop
  endfacet
  facet normal 0 0 1
    outer loop
      vertex 209.008 57.4619 3
      vertex 210.044 56.0352 3
      vertex 214.808 55.1836 3
    endloop
  endfacet
  facet normal 0 0 1
    outer loop
      vertex 53.7207 100.726 3
      vertex 49.6787 94.3809 3
      vertex 126.925 53.5107 3
    endloop
  endfacet
  facet normal 0 0 1
    outer loop
      vertex 127.717 47.5283 3
      vertex 130.675 48.1836 3
      vertex 128.602 51.2021 3
    endloop
  endfacet
  facet normal -0 0 1
    outer loop
      vertex 50.4639 41.4268 3
      vertex 51.5 40 3
      vertex 126.925 53.5107 3
    endloop
  endfacet
  facet normal 0 -0 1
    outer loop
      vertex 127.717 47.5283 3
      vertex 128.602 51.2021 3
      vertex 126.925 51.7471 3
    endloop
  endfacet
  facet normal 0 0 1
    outer loop
      vertex 113.938 180.742 3
      vertex 80.4639 158.573 3
      vertex 128.602 54.0557 3
    endloop
  endfacet
  facet normal 0 0 1
    outer loop
      vertex 128.602 54.0557 3
      vertex 80.4639 158.573 3
      vertex 53.7207 100.726 3
    endloop
  endfacet
  facet normal 0 0 1
    outer loop
      vertex 188.786 159.118 3
      vertex 128.602 54.0557 3
      vertex 207.33 56.917 3
    endloop
  endfacet
  facet normal 0 0 1
    outer loop
      vertex 188.786 159.118 3
      vertex 113.938 180.742 3
      vertex 128.602 54.0557 3
    endloop
  endfacet
  facet normal -0 0 1
    outer loop
      vertex 128.602 54.0557 3
      vertex 129.638 52.6289 3
      vertex 207.33 56.917 3
    endloop
  endfacet
  facet normal 0 0 1
    outer loop
      vertex 48.1494 10.4326 3
      vertex 127.717 47.5283 3
      vertex 51.5 40 3
    endloop
  endfacet
  facet normal 0 -0 1
    outer loop
      vertex 43.6221 16.6797 3
      vertex 48.7861 39.1182 3
      vertex 38.8477 13.8193 3
    endloop
  endfacet
  facet normal 0 0 1
    outer loop
      vertex 51.5 40 3
      vertex 127.717 47.5283 3
      vertex 126.925 51.7471 3
    endloop
  endfacet
  facet normal 0 0 1
    outer loop
      vertex 19.749 72.8145 3
      vertex 48.7861 40.8818 3
      vertex 50.4639 41.4268 3
    endloop
  endfacet
  facet normal 0 0 1
    outer loop
      vertex 19.749 72.8145 3
      vertex 18.7129 71.3877 3
      vertex 48.7861 40.8818 3
    endloop
  endfacet
  facet normal 0 0 1
    outer loop
      vertex 126.925 53.5107 3
      vertex 49.6787 94.3809 3
      vertex 50.4639 41.4268 3
    endloop
  endfacet
  facet normal -0 0 1
    outer loop
      vertex 50.4639 38.5732 3
      vertex 46.3359 15.7979 3
      vertex 51.5 40 3
    endloop
  endfacet
  facet normal 0 -0 1
    outer loop
      vertex 45.2988 17.2246 3
      vertex 48.7861 39.1182 3
      vertex 43.6221 16.6797 3
    endloop
  endfacet
  facet normal 0 0 1
    outer loop
      vertex 48.1494 10.4326 3
      vertex 43.6221 14.917 3
      vertex 38.8477 13.8193 3
    endloop
  endfacet
  facet normal 0 0 1
    outer loop
      vertex 45.2988 17.2246 3
      vertex 50.4639 38.5732 3
      vertex 48.7861 39.1182 3
    endloop
  endfacet
  facet normal 0 -0 1
    outer loop
      vertex 43.6221 14.917 3
      vertex 43.6221 16.6797 3
      vertex 38.8477 13.8193 3
    endloop
  endfacet
  facet normal -0 0 1
    outer loop
      vertex 45.2988 14.3721 3
      vertex 48.1494 10.4326 3
      vertex 46.3359 15.7979 3
    endloop
  endfacet
  facet normal 0 0 1
    outer loop
      vertex 51.5 40 3
      vertex 46.3359 15.7979 3
      vertex 48.1494 10.4326 3
    endloop
  endfacet
  facet normal 0 0 1
    outer loop
      vertex 50.4639 38.5732 3
      vertex 45.2988 17.2246 3
      vertex 46.3359 15.7979 3
    endloop
  endfacet
  facet normal 0.216291 -0.976329 0
    outer loop
      vertex 130.675 48.1836 0
      vertex 127.717 47.5283 3
      vertex 127.717 47.5283 0
    endloop
  endfacet
  facet normal 0.216291 -0.976329 0
    outer loop
      vertex 130.675 48.1836 0
      vertex 130.675 48.1836 3
      vertex 127.717 47.5283 3
    endloop
  endfacet
  facet normal 0 -1 0
    outer loop
      vertex 207.808 48.1836 0
      vertex 130.675 48.1836 3
      vertex 130.675 48.1836 0
    endloop
  endfacet
  facet normal 0 -1 0
    outer loop
      vertex 207.808 48.1836 0
      vertex 207.808 48.1836 3
      vertex 130.675 48.1836 3
    endloop
  endfacet
  facet normal 0.707107 -0.707107 0
    outer loop
      vertex 214.808 55.1836 0
      vertex 207.808 48.1836 3
      vertex 207.808 48.1836 0
    endloop
  endfacet
  facet normal 0.707107 -0.707107 0
    outer loop
      vertex 214.808 55.1836 0
      vertex 214.808 55.1836 3
      vertex 207.808 48.1836 3
    endloop
  endfacet
  facet normal 1 0 0
    outer loop
      vertex 214.808 179.614 0
      vertex 214.808 55.1836 3
      vertex 214.808 55.1836 0
    endloop
  endfacet
  facet normal 1 0 -0
    outer loop
      vertex 214.808 179.614 0
      vertex 214.808 179.614 3
      vertex 214.808 55.1836 3
    endloop
  endfacet
  facet normal 0.707107 0.707107 0
    outer loop
      vertex 207.808 186.614 0
      vertex 214.808 179.614 3
      vertex 214.808 179.614 0
    endloop
  endfacet
  facet normal 0.707107 0.707107 -0
    outer loop
      vertex 207.808 186.614 0
      vertex 207.808 186.614 3
      vertex 214.808 179.614 3
    endloop
  endfacet
  facet normal 0 1 0
    outer loop
      vertex 60.7207 186.614 0
      vertex 207.808 186.614 3
      vertex 207.808 186.614 0
    endloop
  endfacet
  facet normal 0 1 0
    outer loop
      vertex 60.7207 186.614 0
      vertex 60.7207 186.614 3
      vertex 207.808 186.614 3
    endloop
  endfacet
  facet normal -0.707107 0.707107 0
    outer loop
      vertex 53.7207 179.614 0
      vertex 60.7207 186.614 3
      vertex 60.7207 186.614 0
    endloop
  endfacet
  facet normal -0.707107 0.707107 0
    outer loop
      vertex 53.7207 179.614 0
      vertex 53.7207 179.614 3
      vertex 60.7207 186.614 3
    endloop
  endfacet
  facet normal -1 0 0
    outer loop
      vertex 53.7207 100.726 0
      vertex 53.7207 179.614 3
      vertex 53.7207 179.614 0
    endloop
  endfacet
  facet normal -1 0 0
    outer loop
      vertex 53.7207 100.726 0
      vertex 53.7207 100.726 3
      vertex 53.7207 179.614 3
    endloop
  endfacet
  facet normal -0.843408 0.537274 0
    outer loop
      vertex 49.6787 94.3809 0
      vertex 53.7207 100.726 3
      vertex 53.7207 100.726 0
    endloop
  endfacet
  facet normal -0.843408 0.537274 0
    outer loop
      vertex 49.6787 94.3809 0
      vertex 49.6787 94.3809 3
      vertex 53.7207 100.726 3
    endloop
  endfacet
  facet normal -0.422592 0.90632 0
    outer loop
      vertex 16.2686 78.8027 0
      vertex 49.6787 94.3809 3
      vertex 49.6787 94.3809 0
    endloop
  endfacet
  facet normal -0.422592 0.90632 0
    outer loop
      vertex 16.2686 78.8027 0
      vertex 16.2686 78.8027 3
      vertex 49.6787 94.3809 3
    endloop
  endfacet
  facet normal -0.939696 0.342011 0
    outer loop
      vertex 12.8828 69.5 0
      vertex 16.2686 78.8027 3
      vertex 16.2686 78.8027 0
    endloop
  endfacet
  facet normal -0.939696 0.342011 0
    outer loop
      vertex 12.8828 69.5 0
      vertex 12.8828 69.5 3
      vertex 16.2686 78.8027 3
    endloop
  endfacet
  facet normal -0.906304 -0.422626 0
    outer loop
      vertex 38.8477 13.8193 0
      vertex 12.8828 69.5 3
      vertex 12.8828 69.5 0
    endloop
  endfacet
  facet normal -0.906304 -0.422626 0
    outer loop
      vertex 38.8477 13.8193 0
      vertex 38.8477 13.8193 3
      vertex 12.8828 69.5 3
    endloop
  endfacet
  facet normal -0.342123 -0.939655 0
    outer loop
      vertex 48.1494 10.4326 0
      vertex 38.8477 13.8193 3
      vertex 38.8477 13.8193 0
    endloop
  endfacet
  facet normal -0.342123 -0.939655 0
    outer loop
      vertex 48.1494 10.4326 0
      vertex 48.1494 10.4326 3
      vertex 38.8477 13.8193 3
    endloop
  endfacet
  facet normal 0.42255 -0.90634 0
    outer loop
      vertex 127.717 47.5283 0
      vertex 48.1494 10.4326 3
      vertex 48.1494 10.4326 0
    endloop
  endfacet
  facet normal 0.42255 -0.90634 0
    outer loop
      vertex 127.717 47.5283 0
      vertex 127.717 47.5283 3
      vertex 48.1494 10.4326 3
    endloop
  endfacet
  facet normal 1 0 -0
    outer loop
      vertex 112.261 183.051 0
      vertex 112.261 183.051 3
      vertex 112.261 181.287 0
    endloop
  endfacet
  facet normal 1 -0 0
    outer loop
      vertex 112.261 181.287 3
      vertex 112.261 181.287 0
      vertex 112.261 183.051 3
    endloop
  endfacet
  facet normal 0.309073 -0.951038 0
    outer loop
      vertex 113.938 183.596 0
      vertex 113.938 183.596 3
      vertex 112.261 183.051 0
    endloop
  endfacet
  facet normal 0.309073 -0.951038 0
    outer loop
      vertex 112.261 183.051 3
      vertex 112.261 183.051 0
      vertex 113.938 183.596 3
    endloop
  endfacet
  facet normal -0.808957 -0.587868 0
    outer loop
      vertex 114.975 182.169 0
      vertex 114.975 182.169 3
      vertex 113.938 183.596 0
    endloop
  endfacet
  facet normal -0.808957 -0.587868 -0
    outer loop
      vertex 113.938 183.596 3
      vertex 113.938 183.596 0
      vertex 114.975 182.169 3
    endloop
  endfacet
  facet normal -0.808957 0.587868 0
    outer loop
      vertex 113.938 180.742 0
      vertex 113.938 180.742 3
      vertex 114.975 182.169 0
    endloop
  endfacet
  facet normal -0.808957 0.587868 0
    outer loop
      vertex 114.975 182.169 3
      vertex 114.975 182.169 0
      vertex 113.938 180.742 3
    endloop
  endfacet
  facet normal 0.309073 0.951038 -0
    outer loop
      vertex 112.261 181.287 0
      vertex 112.261 181.287 3
      vertex 113.938 180.742 0
    endloop
  endfacet
  facet normal 0.309073 0.951038 0
    outer loop
      vertex 113.938 180.742 3
      vertex 113.938 180.742 0
      vertex 112.261 181.287 3
    endloop
  endfacet
  facet normal 1 0 -0
    outer loop
      vertex 207.33 181.231 0
      vertex 207.33 181.231 3
      vertex 207.33 179.468 0
    endloop
  endfacet
  facet normal 1 -0 0
    outer loop
      vertex 207.33 179.468 3
      vertex 207.33 179.468 0
      vertex 207.33 181.231 3
    endloop
  endfacet
  facet normal 0.308907 -0.951092 0
    outer loop
      vertex 209.008 181.776 0
      vertex 209.008 181.776 3
      vertex 207.33 181.231 0
    endloop
  endfacet
  facet normal 0.308907 -0.951092 0
    outer loop
      vertex 207.33 181.231 3
      vertex 207.33 181.231 0
      vertex 209.008 181.776 3
    endloop
  endfacet
  facet normal -0.80903 -0.587767 0
    outer loop
      vertex 210.044 180.35 0
      vertex 210.044 180.35 3
      vertex 209.008 181.776 0
    endloop
  endfacet
  facet normal -0.80903 -0.587767 -0
    outer loop
      vertex 209.008 181.776 3
      vertex 209.008 181.776 0
      vertex 210.044 180.35 3
    endloop
  endfacet
  facet normal -0.809226 0.587497 0
    outer loop
      vertex 209.008 178.923 0
      vertex 209.008 178.923 3
      vertex 210.044 180.35 0
    endloop
  endfacet
  facet normal -0.809226 0.587497 0
    outer loop
      vertex 210.044 180.35 3
      vertex 210.044 180.35 0
      vertex 209.008 178.923 3
    endloop
  endfacet
  facet normal 0.308907 0.951092 -0
    outer loop
      vertex 207.33 179.468 0
      vertex 207.33 179.468 3
      vertex 209.008 178.923 0
    endloop
  endfacet
  facet normal 0.308907 0.951092 0
    outer loop
      vertex 209.008 178.923 3
      vertex 209.008 178.923 0
      vertex 207.33 179.468 3
    endloop
  endfacet
  facet normal 1 0 -0
    outer loop
      vertex 58.7773 181.231 0
      vertex 58.7773 181.231 3
      vertex 58.7773 179.468 0
    endloop
  endfacet
  facet normal 1 -0 0
    outer loop
      vertex 58.7773 179.468 3
      vertex 58.7773 179.468 0
      vertex 58.7773 181.231 3
    endloop
  endfacet
  facet normal 0.30894 -0.951082 0
    outer loop
      vertex 60.4551 181.776 0
      vertex 60.4551 181.776 3
      vertex 58.7773 181.231 0
    endloop
  endfacet
  facet normal 0.30894 -0.951082 0
    outer loop
      vertex 58.7773 181.231 3
      vertex 58.7773 181.231 0
      vertex 60.4551 181.776 3
    endloop
  endfacet
  facet normal -0.809003 -0.587804 0
    outer loop
      vertex 61.4912 180.35 0
      vertex 61.4912 180.35 3
      vertex 60.4551 181.776 0
    endloop
  endfacet
  facet normal -0.809003 -0.587804 -0
    outer loop
      vertex 60.4551 181.776 3
      vertex 60.4551 181.776 0
      vertex 61.4912 180.35 3
    endloop
  endfacet
  facet normal -0.809199 0.587534 0
    outer loop
      vertex 60.4551 178.923 0
      vertex 60.4551 178.923 3
      vertex 61.4912 180.35 0
    endloop
  endfacet
  facet normal -0.809199 0.587534 0
    outer loop
      vertex 61.4912 180.35 3
      vertex 61.4912 180.35 0
      vertex 60.4551 178.923 3
    endloop
  endfacet
  facet normal 0.30894 0.951082 -0
    outer loop
      vertex 58.7773 179.468 0
      vertex 58.7773 179.468 3
      vertex 60.4551 178.923 0
    endloop
  endfacet
  facet normal 0.30894 0.951082 0
    outer loop
      vertex 60.4551 178.923 3
      vertex 60.4551 178.923 0
      vertex 58.7773 179.468 3
    endloop
  endfacet
  facet normal 1 0 -0
    outer loop
      vertex 78.7861 160.882 0
      vertex 78.7861 160.882 3
      vertex 78.7861 159.118 0
    endloop
  endfacet
  facet normal 1 -0 0
    outer loop
      vertex 78.7861 159.118 3
      vertex 78.7861 159.118 0
      vertex 78.7861 160.882 3
    endloop
  endfacet
  facet normal 0.30894 -0.951082 0
    outer loop
      vertex 80.4639 161.427 0
      vertex 80.4639 161.427 3
      vertex 78.7861 160.882 0
    endloop
  endfacet
  facet normal 0.30894 -0.951082 0
    outer loop
      vertex 78.7861 160.882 3
      vertex 78.7861 160.882 0
      vertex 80.4639 161.427 3
    endloop
  endfacet
  facet normal -0.809199 -0.587534 0
    outer loop
      vertex 81.5 160 0
      vertex 81.5 160 3
      vertex 80.4639 161.427 0
    endloop
  endfacet
  facet normal -0.809199 -0.587534 -0
    outer loop
      vertex 80.4639 161.427 3
      vertex 80.4639 161.427 0
      vertex 81.5 160 3
    endloop
  endfacet
  facet normal -0.809199 0.587534 0
    outer loop
      vertex 80.4639 158.573 0
      vertex 80.4639 158.573 3
      vertex 81.5 160 0
    endloop
  endfacet
  facet normal -0.809199 0.587534 0
    outer loop
      vertex 81.5 160 3
      vertex 81.5 160 0
      vertex 80.4639 158.573 3
    endloop
  endfacet
  facet normal 0.30894 0.951082 -0
    outer loop
      vertex 78.7861 159.118 0
      vertex 78.7861 159.118 3
      vertex 80.4639 158.573 0
    endloop
  endfacet
  facet normal 0.30894 0.951082 0
    outer loop
      vertex 80.4639 158.573 3
      vertex 80.4639 158.573 0
      vertex 78.7861 159.118 3
    endloop
  endfacet
  facet normal 1 0 -0
    outer loop
      vertex 188.786 160.882 0
      vertex 188.786 160.882 3
      vertex 188.786 159.118 0
    endloop
  endfacet
  facet normal 1 -0 0
    outer loop
      vertex 188.786 159.118 3
      vertex 188.786 159.118 0
      vertex 188.786 160.882 3
    endloop
  endfacet
  facet normal 0.308907 -0.951092 0
    outer loop
      vertex 190.464 161.427 0
      vertex 190.464 161.427 3
      vertex 188.786 160.882 0
    endloop
  endfacet
  facet normal 0.308907 -0.951092 0
    outer loop
      vertex 188.786 160.882 3
      vertex 188.786 160.882 0
      vertex 190.464 161.427 3
    endloop
  endfacet
  facet normal -0.809226 -0.587497 0
    outer loop
      vertex 191.5 160 0
      vertex 191.5 160 3
      vertex 190.464 161.427 0
    endloop
  endfacet
  facet normal -0.809226 -0.587497 -0
    outer loop
      vertex 190.464 161.427 3
      vertex 190.464 161.427 0
      vertex 191.5 160 3
    endloop
  endfacet
  facet normal -0.809226 0.587497 0
    outer loop
      vertex 190.464 158.573 0
      vertex 190.464 158.573 3
      vertex 191.5 160 0
    endloop
  endfacet
  facet normal -0.809226 0.587497 0
    outer loop
      vertex 191.5 160 3
      vertex 191.5 160 0
      vertex 190.464 158.573 3
    endloop
  endfacet
  facet normal 0.308907 0.951092 -0
    outer loop
      vertex 188.786 159.118 0
      vertex 188.786 159.118 3
      vertex 190.464 158.573 0
    endloop
  endfacet
  facet normal 0.308907 0.951092 0
    outer loop
      vertex 190.464 158.573 3
      vertex 190.464 158.573 0
      vertex 188.786 159.118 3
    endloop
  endfacet
  facet normal 1 0 -0
    outer loop
      vertex 17.0361 73.6963 0
      vertex 17.0361 73.6963 3
      vertex 17.0361 71.9326 0
    endloop
  endfacet
  facet normal 1 -0 0
    outer loop
      vertex 17.0361 71.9326 3
      vertex 17.0361 71.9326 0
      vertex 17.0361 73.6963 3
    endloop
  endfacet
  facet normal 0.309055 -0.951044 0
    outer loop
      vertex 18.7129 74.2412 0
      vertex 18.7129 74.2412 3
      vertex 17.0361 73.6963 0
    endloop
  endfacet
  facet normal 0.309055 -0.951044 0
    outer loop
      vertex 17.0361 73.6963 3
      vertex 17.0361 73.6963 0
      vertex 18.7129 74.2412 3
    endloop
  endfacet
  facet normal -0.809141 -0.587615 0
    outer loop
      vertex 19.749 72.8145 0
      vertex 19.749 72.8145 3
      vertex 18.7129 74.2412 0
    endloop
  endfacet
  facet normal -0.809141 -0.587615 -0
    outer loop
      vertex 18.7129 74.2412 3
      vertex 18.7129 74.2412 0
      vertex 19.749 72.8145 3
    endloop
  endfacet
  facet normal -0.80916 0.587588 0
    outer loop
      vertex 18.7129 71.3877 0
      vertex 18.7129 71.3877 3
      vertex 19.749 72.8145 0
    endloop
  endfacet
  facet normal -0.80916 0.587588 0
    outer loop
      vertex 19.749 72.8145 3
      vertex 19.749 72.8145 0
      vertex 18.7129 71.3877 3
    endloop
  endfacet
  facet normal 0.309055 0.951044 -0
    outer loop
      vertex 17.0361 71.9326 0
      vertex 17.0361 71.9326 3
      vertex 18.7129 71.3877 0
    endloop
  endfacet
  facet normal 0.309055 0.951044 0
    outer loop
      vertex 18.7129 71.3877 3
      vertex 18.7129 71.3877 0
      vertex 17.0361 71.9326 3
    endloop
  endfacet
  facet normal 1 0 -0
    outer loop
      vertex 207.33 56.917 0
      vertex 207.33 56.917 3
      vertex 207.33 55.1533 0
    endloop
  endfacet
  facet normal 1 -0 0
    outer loop
      vertex 207.33 55.1533 3
      vertex 207.33 55.1533 0
      vertex 207.33 56.917 3
    endloop
  endfacet
  facet normal 0.308855 -0.951109 0
    outer loop
      vertex 209.008 57.4619 0
      vertex 209.008 57.4619 3
      vertex 207.33 56.917 0
    endloop
  endfacet
  facet normal 0.308855 -0.951109 0
    outer loop
      vertex 207.33 56.917 3
      vertex 207.33 56.917 0
      vertex 209.008 57.4619 3
    endloop
  endfacet
  facet normal -0.809168 -0.587578 0
    outer loop
      vertex 210.044 56.0352 0
      vertex 210.044 56.0352 3
      vertex 209.008 57.4619 0
    endloop
  endfacet
  facet normal -0.809168 -0.587578 -0
    outer loop
      vertex 209.008 57.4619 3
      vertex 209.008 57.4619 0
      vertex 210.044 56.0352 3
    endloop
  endfacet
  facet normal -0.809187 0.587551 0
    outer loop
      vertex 209.008 54.6084 0
      vertex 209.008 54.6084 3
      vertex 210.044 56.0352 0
    endloop
  endfacet
  facet normal -0.809187 0.587551 0
    outer loop
      vertex 210.044 56.0352 3
      vertex 210.044 56.0352 0
      vertex 209.008 54.6084 3
    endloop
  endfacet
  facet normal 0.308855 0.951109 -0
    outer loop
      vertex 207.33 55.1533 0
      vertex 207.33 55.1533 3
      vertex 209.008 54.6084 0
    endloop
  endfacet
  facet normal 0.308855 0.951109 0
    outer loop
      vertex 209.008 54.6084 3
      vertex 209.008 54.6084 0
      vertex 207.33 55.1533 3
    endloop
  endfacet
  facet normal 1 0 -0
    outer loop
      vertex 126.925 53.5107 0
      vertex 126.925 53.5107 3
      vertex 126.925 51.7471 0
    endloop
  endfacet
  facet normal 1 -0 0
    outer loop
      vertex 126.925 51.7471 3
      vertex 126.925 51.7471 0
      vertex 126.925 53.5107 3
    endloop
  endfacet
  facet normal 0.309073 -0.951038 0
    outer loop
      vertex 128.602 54.0557 0
      vertex 128.602 54.0557 3
      vertex 126.925 53.5107 0
    endloop
  endfacet
  facet normal 0.309073 -0.951038 0
    outer loop
      vertex 126.925 53.5107 3
      vertex 126.925 53.5107 0
      vertex 128.602 54.0557 3
    endloop
  endfacet
  facet normal -0.809187 -0.587551 0
    outer loop
      vertex 129.638 52.6289 0
      vertex 129.638 52.6289 3
      vertex 128.602 54.0557 0
    endloop
  endfacet
  facet normal -0.809187 -0.587551 -0
    outer loop
      vertex 128.602 54.0557 3
      vertex 128.602 54.0557 0
      vertex 129.638 52.6289 3
    endloop
  endfacet
  facet normal -0.809187 0.587551 0
    outer loop
      vertex 128.602 51.2021 0
      vertex 128.602 51.2021 3
      vertex 129.638 52.6289 0
    endloop
  endfacet
  facet normal -0.809187 0.587551 0
    outer loop
      vertex 129.638 52.6289 3
      vertex 129.638 52.6289 0
      vertex 128.602 51.2021 3
    endloop
  endfacet
  facet normal 0.309073 0.951038 -0
    outer loop
      vertex 126.925 51.7471 0
      vertex 126.925 51.7471 3
      vertex 128.602 51.2021 0
    endloop
  endfacet
  facet normal 0.309073 0.951038 0
    outer loop
      vertex 128.602 51.2021 3
      vertex 128.602 51.2021 0
      vertex 126.925 51.7471 3
    endloop
  endfacet
  facet normal 1 0 -0
    outer loop
      vertex 48.7861 40.8818 0
      vertex 48.7861 40.8818 3
      vertex 48.7861 39.1182 0
    endloop
  endfacet
  facet normal 1 -0 0
    outer loop
      vertex 48.7861 39.1182 3
      vertex 48.7861 39.1182 0
      vertex 48.7861 40.8818 3
    endloop
  endfacet
  facet normal 0.30894 -0.951082 0
    outer loop
      vertex 50.4639 41.4268 0
      vertex 50.4639 41.4268 3
      vertex 48.7861 40.8818 0
    endloop
  endfacet
  facet normal 0.30894 -0.951082 0
    outer loop
      vertex 48.7861 40.8818 3
      vertex 48.7861 40.8818 0
      vertex 50.4639 41.4268 3
    endloop
  endfacet
  facet normal -0.80916 -0.587588 0
    outer loop
      vertex 51.5 40 0
      vertex 51.5 40 3
      vertex 50.4639 41.4268 0
    endloop
  endfacet
  facet normal -0.80916 -0.587588 -0
    outer loop
      vertex 50.4639 41.4268 3
      vertex 50.4639 41.4268 0
      vertex 51.5 40 3
    endloop
  endfacet
  facet normal -0.80916 0.587588 0
    outer loop
      vertex 50.4639 38.5732 0
      vertex 50.4639 38.5732 3
      vertex 51.5 40 0
    endloop
  endfacet
  facet normal -0.80916 0.587588 0
    outer loop
      vertex 51.5 40 3
      vertex 51.5 40 0
      vertex 50.4639 38.5732 3
    endloop
  endfacet
  facet normal 0.30894 0.951082 -0
    outer loop
      vertex 48.7861 39.1182 0
      vertex 48.7861 39.1182 3
      vertex 50.4639 38.5732 0
    endloop
  endfacet
  facet normal 0.30894 0.951082 0
    outer loop
      vertex 50.4639 38.5732 3
      vertex 50.4639 38.5732 0
      vertex 48.7861 39.1182 3
    endloop
  endfacet
  facet normal 1 0 -0
    outer loop
      vertex 43.6221 16.6797 0
      vertex 43.6221 16.6797 3
      vertex 43.6221 14.917 0
    endloop
  endfacet
  facet normal 1 -0 0
    outer loop
      vertex 43.6221 14.917 3
      vertex 43.6221 14.917 0
      vertex 43.6221 16.6797 3
    endloop
  endfacet
  facet normal 0.309072 -0.951039 0
    outer loop
      vertex 45.2988 17.2246 0
      vertex 45.2988 17.2246 3
      vertex 43.6221 16.6797 0
    endloop
  endfacet
  facet normal 0.309072 -0.951039 0
    outer loop
      vertex 43.6221 16.6797 3
      vertex 43.6221 16.6797 0
      vertex 45.2988 17.2246 3
    endloop
  endfacet
  facet normal -0.808871 -0.587986 0
    outer loop
      vertex 46.3359 15.7979 0
      vertex 46.3359 15.7979 3
      vertex 45.2988 17.2246 0
    endloop
  endfacet
  facet normal -0.808871 -0.587986 -0
    outer loop
      vertex 45.2988 17.2246 3
      vertex 45.2988 17.2246 0
      vertex 46.3359 15.7979 3
    endloop
  endfacet
  facet normal -0.808694 0.588229 0
    outer loop
      vertex 45.2988 14.3721 0
      vertex 45.2988 14.3721 3
      vertex 46.3359 15.7979 0
    endloop
  endfacet
  facet normal -0.808694 0.588229 0
    outer loop
      vertex 46.3359 15.7979 3
      vertex 46.3359 15.7979 0
      vertex 45.2988 14.3721 3
    endloop
  endfacet
  facet normal 0.309072 0.951039 -0
    outer loop
      vertex 43.6221 14.917 0
      vertex 43.6221 14.917 3
      vertex 45.2988 14.3721 0
    endloop
  endfacet
  facet normal 0.309072 0.951039 0
    outer loop
      vertex 45.2988 14.3721 3
      vertex 45.2988 14.3721 0
      vertex 43.6221 14.917 3
    endloop
  endfacet
endsolid OpenSCAD_Model
