<?xml version="1.0" standalone="no"?>
<!DOCTYPE svg PUBLIC "-//W3C//DTD SVG 1.1//EN" "http://www.w3.org/Graphics/SVG/1.1/DTD/svg11.dtd">
<svg width="202mm" height="177mm" viewBox="20 -184 202 177" xmlns="http://www.w3.org/2000/svg" version="1.1">
<title>OpenSCAD Model</title>
<path d="
M 195.961,-10.9033 L 221.925,-66.584 L 218.539,-75.8867 L 185.129,-91.4648 L 181.087,-97.8096 L 181.087,-176.698
 L 174.087,-183.698 L 165.974,-183.698 L 152.094,-178.585 L 144.751,-178.585 L 130.871,-183.698 L 27,-183.698
 L 20,-176.698 L 20,-52.2676 L 27,-45.2676 L 104.133,-45.2676 L 107.091,-44.6123 L 186.658,-7.5166
 z
M 120.12,-178.371 L 120.12,-180.135 L 121.797,-180.68 L 122.833,-179.253 L 121.797,-177.826 z
M 25.0508,-176.553 L 25.0508,-178.315 L 26.7275,-178.86 L 27.7637,-177.435 L 26.7275,-176.008 z
M 173.604,-176.553 L 173.604,-178.315 L 175.28,-178.86 L 176.316,-177.435 L 175.28,-176.008 z
M 142.037,-163.584 L 142.037,-177.084 L 154.808,-177.084 L 154.808,-163.584 z
M 40.8076,-158.233 L 40.8076,-160.233 L 38.3076,-160.233 L 38.3076,-170.436 L 40.8076,-170.436 L 40.8076,-172.436
 L 52.8076,-172.436 L 52.8076,-170.436 L 75,-170.436 L 75,-160.233 L 52.8076,-160.233 L 52.8076,-158.233
 z
M 137.361,-40.1953 L 136.87,-41.5459 L 151.471,-72.8564 L 150.089,-75.0244 L 135.608,-75.0244 L 134.084,-73.5
 L 134.084,-58.2598 L 133.068,-57.2441 L 115.356,-57.2441 L 114.415,-57.8789 L 113.002,-58.832 L 97.5078,-58.832
 L 96.0957,-57.8789 L 95.1533,-57.2441 L 78.458,-57.2441 L 76.9346,-55.7197 L 76.9346,-55.085 L 75.918,-54.0693
 L 39.3418,-54.0693 L 38.3262,-55.085 L 38.3262,-71.5947 L 36.8018,-73.1191 L 29.8896,-73.1191 L 28.8896,-74.1191
 L 28.8896,-148.827 L 29.8896,-149.827 L 74.9023,-149.827 L 76.4258,-151.352 L 76.4258,-151.986 L 77.4424,-153.002
 L 93.9521,-153.002 L 95.3652,-153.955 L 96.3066,-154.59 L 114.203,-154.59 L 115.146,-153.955 L 116.559,-153.002
 L 133.408,-153.002 L 134.288,-152.494 L 135.608,-151.732 L 171.168,-151.732 L 172.185,-150.716 L 172.185,-76.04
 L 171.168,-75.0244 L 158.608,-75.0244 L 158.18,-73.0869 L 168.642,-68.209 L 170.667,-68.9463 L 177.644,-83.9092
 L 178.994,-84.4004 L 212.144,-68.9434 L 212.635,-67.5928 L 189.126,-17.1787 L 187.776,-16.6875 z
M 215.345,-69.0166 L 215.345,-70.7803 L 217.022,-71.3252 L 218.059,-69.8984 L 217.022,-68.4717 z
M 25.0508,-52.2373 L 25.0508,-54.001 L 26.7275,-54.5459 L 27.7637,-53.1191 L 26.7275,-51.6924 z
M 105.456,-48.8311 L 105.456,-50.5947 L 107.134,-51.1396 L 108.17,-49.7129 L 107.134,-48.2861 z
M 188.759,-12.001 L 188.759,-13.7637 L 190.436,-14.3086 L 191.472,-12.8828 L 190.436,-11.4561 z
" stroke="black" fill="lightgray" stroke-width="0.5"/>
</svg>
