<?xml version="1.0" standalone="no"?>
<!DOCTYPE svg PUBLIC "-//W3C//DTD SVG 1.1//EN" "http://www.w3.org/Graphics/SVG/1.1/DTD/svg11.dtd">
<svg width="202mm" height="177mm" viewBox="20 -184 202 177" xmlns="http://www.w3.org/2000/svg" version="1.1">
<title>OpenSCAD Model</title>
<path d="
M 195.961,-10.9033 L 221.925,-66.584 L 218.539,-75.8867 L 185.129,-91.4648 L 181.087,-97.8096 L 181.087,-176.698
 L 174.087,-183.698 L 165.974,-183.698 L 152.094,-178.585 L 151.537,-178.585 L 151.537,-177.084 L 155.037,-177.084
 L 155.037,-174.584 L 158.033,-174.584 L 158.032,-166.625 L 155.037,-166.627 L 155.037,-163.584 L 142.267,-163.584
 L 142.267,-165.584 L 139.271,-165.582 L 139.27,-173.541 L 142.267,-173.541 L 142.267,-177.084 L 145.537,-177.084
 L 145.537,-178.585 L 144.751,-178.585 L 130.871,-183.698 L 27,-183.698 L 20,-176.698 L 20,-52.2676
 L 27,-45.2676 L 104.133,-45.2686 L 107.091,-44.6123 L 186.658,-7.5166 z
M 120.12,-178.371 L 120.12,-180.135 L 121.797,-180.68 L 122.833,-179.253 L 121.797,-177.826 z
M 25.0508,-176.553 L 25.0508,-178.315 L 26.7275,-178.86 L 27.7637,-177.435 L 26.7275,-176.008 z
M 173.604,-176.553 L 173.604,-178.315 L 175.28,-178.86 L 176.316,-177.435 L 175.28,-176.008 z
M 40.8076,-158.233 L 40.8076,-160.233 L 38.3076,-160.233 L 38.3076,-170.436 L 40.8076,-170.436 L 40.8076,-172.436
 L 52.8076,-172.436 L 52.8076,-170.436 L 75,-170.436 L 75,-160.233 L 52.8076,-160.233 L 52.8076,-158.233
 z
M 115.363,-169.035 L 115.363,-170.827 L 117.067,-171.381 L 118.12,-169.932 L 117.067,-168.481 z
M 32.4326,-169.035 L 32.4326,-170.827 L 34.1357,-171.381 L 35.1895,-169.932 L 34.1357,-168.481 z
M 166.163,-169.035 L 166.163,-170.827 L 167.867,-171.381 L 168.92,-169.932 L 167.867,-168.481 z
M 98.2832,-137.852 L 98.2832,-138.831 L 97.4697,-138.831 L 97.4697,-142.332 L 98.2832,-142.332 L 98.2832,-147.341
 L 97.4697,-147.341 L 97.4697,-150.841 L 98.2832,-150.841 L 98.2832,-151.821 L 112.253,-151.821 L 112.253,-150.841
 L 113.065,-150.841 L 113.065,-147.341 L 112.253,-147.341 L 112.253,-142.332 L 113.065,-142.332 L 113.065,-138.831
 L 112.253,-138.831 L 112.253,-137.852 z
M 117.333,-136.254 L 117.333,-137.233 L 116.521,-137.233 L 116.521,-140.734 L 117.333,-140.734 L 117.333,-145.743
 L 116.521,-145.743 L 116.521,-149.243 L 117.333,-149.243 L 117.333,-150.224 L 131.303,-150.224 L 131.303,-149.243
 L 132.115,-149.243 L 132.115,-145.743 L 131.303,-145.743 L 131.303,-140.734 L 132.115,-140.734 L 132.115,-137.233
 L 131.303,-137.233 L 131.303,-136.254 z
M 79.2324,-136.254 L 79.2324,-137.233 L 78.4199,-137.233 L 78.4199,-140.734 L 79.2324,-140.734 L 79.2324,-145.743
 L 78.4199,-145.743 L 78.4199,-149.243 L 79.2324,-149.243 L 79.2324,-150.224 L 93.2031,-150.224 L 93.2031,-149.243
 L 94.0156,-149.243 L 94.0156,-145.743 L 93.2031,-145.743 L 93.2031,-140.734 L 94.0156,-140.734 L 94.0156,-137.233
 L 93.2031,-137.233 L 93.2031,-136.254 z
M 136.383,-134.98 L 136.383,-135.961 L 135.57,-135.961 L 135.57,-139.462 L 136.383,-139.462 L 136.383,-144.471
 L 135.57,-144.471 L 135.57,-147.971 L 136.383,-147.971 L 136.383,-148.951 L 150.353,-148.951 L 150.353,-147.971
 L 151.166,-147.971 L 151.166,-144.471 L 150.353,-144.471 L 150.353,-139.462 L 151.166,-139.462 L 151.166,-135.961
 L 150.353,-135.961 L 150.353,-134.98 z
M 155.433,-134.98 L 155.433,-135.961 L 154.62,-135.961 L 154.62,-139.462 L 155.433,-139.462 L 155.433,-144.471
 L 154.62,-144.471 L 154.62,-147.971 L 155.433,-147.971 L 155.433,-148.951 L 169.403,-148.951 L 169.403,-147.971
 L 170.216,-147.971 L 170.216,-144.471 L 169.403,-144.471 L 169.403,-139.462 L 170.216,-139.462 L 170.216,-135.961
 L 169.403,-135.961 L 169.403,-134.98 z
M 60.1826,-133.076 L 60.1826,-134.057 L 59.3701,-134.057 L 59.3701,-137.557 L 60.1826,-137.557 L 60.1826,-142.565
 L 59.3701,-142.565 L 59.3701,-146.065 L 60.1826,-146.065 L 60.1826,-147.046 L 74.1533,-147.046 L 74.1533,-146.065
 L 74.9658,-146.065 L 74.9658,-142.565 L 74.1533,-142.565 L 74.1533,-137.557 L 74.9658,-137.557 L 74.9658,-134.057
 L 74.1533,-134.057 L 74.1533,-133.076 z
M 36.3701,-133.076 L 36.3701,-134.057 L 35.5576,-134.057 L 35.5576,-137.557 L 36.3701,-137.557 L 36.3701,-142.565
 L 35.5576,-142.565 L 35.5576,-146.065 L 36.3701,-146.065 L 36.3701,-147.046 L 50.3408,-147.046 L 50.3408,-146.065
 L 51.1533,-146.065 L 51.1533,-142.565 L 50.3408,-142.565 L 50.3408,-137.557 L 51.1533,-137.557 L 51.1533,-134.057
 L 50.3408,-134.057 L 50.3408,-133.076 z
M 98.2832,-118.801 L 98.2832,-119.781 L 97.4697,-119.781 L 97.4697,-123.281 L 98.2832,-123.281 L 98.2832,-128.291
 L 97.4697,-128.291 L 97.4697,-131.791 L 98.2832,-131.791 L 98.2832,-132.771 L 112.253,-132.771 L 112.253,-131.791
 L 113.065,-131.791 L 113.065,-128.291 L 112.253,-128.291 L 112.253,-123.281 L 113.065,-123.281 L 113.065,-119.781
 L 112.253,-119.781 L 112.253,-118.801 z
M 117.333,-117.203 L 117.333,-118.184 L 116.521,-118.184 L 116.521,-121.684 L 117.333,-121.684 L 117.333,-126.693
 L 116.521,-126.693 L 116.521,-130.193 L 117.333,-130.193 L 117.333,-131.174 L 131.303,-131.174 L 131.303,-130.193
 L 132.115,-130.193 L 132.115,-126.693 L 131.303,-126.693 L 131.303,-121.684 L 132.115,-121.684 L 132.115,-118.184
 L 131.303,-118.184 L 131.303,-117.203 z
M 79.2324,-117.203 L 79.2324,-118.184 L 78.4199,-118.184 L 78.4199,-121.684 L 79.2324,-121.684 L 79.2324,-126.693
 L 78.4199,-126.693 L 78.4199,-130.193 L 79.2324,-130.193 L 79.2324,-131.174 L 93.2031,-131.174 L 93.2031,-130.193
 L 94.0156,-130.193 L 94.0156,-126.693 L 93.2031,-126.693 L 93.2031,-121.684 L 94.0156,-121.684 L 94.0156,-118.184
 L 93.2031,-118.184 L 93.2031,-117.203 z
M 136.383,-115.934 L 136.383,-116.914 L 135.57,-116.914 L 135.57,-120.414 L 136.383,-120.414 L 136.383,-125.423
 L 135.57,-125.423 L 135.57,-128.923 L 136.383,-128.923 L 136.383,-129.903 L 150.353,-129.903 L 150.353,-128.923
 L 151.166,-128.923 L 151.166,-125.423 L 150.353,-125.423 L 150.353,-120.414 L 151.166,-120.414 L 151.166,-116.914
 L 150.353,-116.914 L 150.353,-115.934 z
M 60.1826,-114.028 L 60.1826,-115.009 L 59.3701,-115.009 L 59.3701,-118.509 L 60.1826,-118.509 L 60.1826,-123.518
 L 59.3701,-123.518 L 59.3701,-127.018 L 60.1826,-127.018 L 60.1826,-127.998 L 74.1533,-127.998 L 74.1533,-127.018
 L 74.9658,-127.018 L 74.9658,-123.518 L 74.1533,-123.518 L 74.1533,-118.509 L 74.9658,-118.509 L 74.9658,-115.009
 L 74.1533,-115.009 L 74.1533,-114.028 z
M 36.3701,-114.028 L 36.3701,-115.009 L 35.5576,-115.009 L 35.5576,-118.509 L 36.3701,-118.509 L 36.3701,-123.518
 L 35.5576,-123.518 L 35.5576,-127.018 L 36.3701,-127.018 L 36.3701,-127.998 L 50.3408,-127.998 L 50.3408,-127.018
 L 51.1533,-127.018 L 51.1533,-123.518 L 50.3408,-123.518 L 50.3408,-118.509 L 51.1533,-118.509 L 51.1533,-115.009
 L 50.3408,-115.009 L 50.3408,-114.028 z
M 156.413,-110.358 L 156.413,-111.171 L 155.433,-111.171 L 155.433,-125.141 L 156.413,-125.141 L 156.413,-125.954
 L 159.913,-125.954 L 159.913,-125.141 L 164.922,-125.141 L 164.922,-125.954 L 168.423,-125.954 L 168.423,-125.141
 L 169.403,-125.141 L 169.403,-111.171 L 168.423,-111.171 L 168.423,-110.358 L 164.922,-110.358 L 164.922,-111.171
 L 159.913,-111.171 L 159.913,-110.358 z
M 94.5352,-114.578 L 94.5352,-116.369 L 96.2393,-116.923 L 97.292,-115.474 L 96.2393,-114.024 z
M 98.2832,-99.751 L 98.2832,-100.731 L 97.4697,-100.731 L 97.4697,-104.231 L 98.2832,-104.231 L 98.2832,-109.24
 L 97.4697,-109.24 L 97.4697,-112.74 L 98.2832,-112.74 L 98.2832,-113.721 L 112.253,-113.721 L 112.253,-112.74
 L 113.065,-112.74 L 113.065,-109.24 L 112.253,-109.24 L 112.253,-104.231 L 113.065,-104.231 L 113.065,-100.731
 L 112.253,-100.731 L 112.253,-99.751 z
M 79.2324,-98.1533 L 79.2324,-99.1338 L 78.4199,-99.1338 L 78.4199,-102.634 L 79.2324,-102.634 L 79.2324,-107.643
 L 78.4199,-107.643 L 78.4199,-111.143 L 79.2324,-111.143 L 79.2324,-112.123 L 93.2031,-112.123 L 93.2031,-111.143
 L 94.0156,-111.143 L 94.0156,-107.643 L 93.2031,-107.643 L 93.2031,-102.634 L 94.0156,-102.634 L 94.0156,-99.1338
 L 93.2031,-99.1338 L 93.2031,-98.1533 z
M 117.333,-98.1533 L 117.333,-99.1338 L 116.521,-99.1338 L 116.521,-102.634 L 117.333,-102.634 L 117.333,-107.643
 L 116.521,-107.643 L 116.521,-111.143 L 117.333,-111.143 L 117.333,-112.123 L 131.303,-112.123 L 131.303,-111.143
 L 132.115,-111.143 L 132.115,-107.643 L 131.303,-107.643 L 131.303,-102.634 L 132.115,-102.634 L 132.115,-99.1338
 L 131.303,-99.1338 L 131.303,-98.1533 z
M 136.383,-96.8838 L 136.383,-97.8643 L 135.57,-97.8643 L 135.57,-101.364 L 136.383,-101.364 L 136.383,-106.373
 L 135.57,-106.373 L 135.57,-109.873 L 136.383,-109.873 L 136.383,-110.854 L 150.353,-110.854 L 150.353,-109.873
 L 151.166,-109.873 L 151.166,-106.373 L 150.353,-106.373 L 150.353,-101.364 L 151.166,-101.364 L 151.166,-97.8643
 L 150.353,-97.8643 L 150.353,-96.8838 z
M 36.3701,-94.9785 L 36.3701,-95.959 L 35.5576,-95.959 L 35.5576,-99.459 L 36.3701,-99.459 L 36.3701,-104.468
 L 35.5576,-104.468 L 35.5576,-107.968 L 36.3701,-107.968 L 36.3701,-108.948 L 50.3408,-108.948 L 50.3408,-107.968
 L 51.1533,-107.968 L 51.1533,-104.468 L 50.3408,-104.468 L 50.3408,-99.459 L 51.1533,-99.459 L 51.1533,-95.959
 L 50.3408,-95.959 L 50.3408,-94.9785 z
M 60.1826,-94.9785 L 60.1826,-95.959 L 59.3701,-95.959 L 59.3701,-99.459 L 60.1826,-99.459 L 60.1826,-104.468
 L 59.3701,-104.468 L 59.3701,-107.968 L 60.1826,-107.968 L 60.1826,-108.948 L 74.1533,-108.948 L 74.1533,-107.968
 L 74.9658,-107.968 L 74.9658,-104.468 L 74.1533,-104.468 L 74.1533,-99.459 L 74.9658,-99.459 L 74.9658,-95.959
 L 74.1533,-95.959 L 74.1533,-94.9785 z
M 156.413,-81.7832 L 156.413,-82.5957 L 155.433,-82.5957 L 155.433,-96.5664 L 156.413,-96.5664 L 156.413,-97.3789
 L 159.913,-97.3789 L 159.913,-96.5664 L 164.922,-96.5664 L 164.922,-97.3789 L 168.423,-97.3789 L 168.423,-96.5664
 L 169.403,-96.5664 L 169.403,-82.5957 L 168.423,-82.5957 L 168.423,-81.7832 L 164.922,-81.7832 L 164.922,-82.5957
 L 159.913,-82.5957 L 159.913,-81.7832 z
M 98.2832,-80.7012 L 98.2832,-81.6816 L 97.4697,-81.6816 L 97.4697,-85.1816 L 98.2832,-85.1816 L 98.2832,-90.1904
 L 97.4697,-90.1904 L 97.4697,-93.6904 L 98.2832,-93.6904 L 98.2832,-94.6709 L 112.253,-94.6709 L 112.253,-93.6904
 L 113.065,-93.6904 L 113.065,-90.1904 L 112.253,-90.1904 L 112.253,-85.1816 L 113.065,-85.1816 L 113.065,-81.6816
 L 112.253,-81.6816 L 112.253,-80.7012 z
M 79.2324,-79.1035 L 79.2324,-80.084 L 78.4199,-80.084 L 78.4199,-83.584 L 79.2324,-83.584 L 79.2324,-88.5928
 L 78.4199,-88.5928 L 78.4199,-92.0928 L 79.2324,-92.0928 L 79.2324,-93.0732 L 93.2031,-93.0732 L 93.2031,-92.0928
 L 94.0156,-92.0928 L 94.0156,-88.5928 L 93.2031,-88.5928 L 93.2031,-83.584 L 94.0156,-83.584 L 94.0156,-80.084
 L 93.2031,-80.084 L 93.2031,-79.1035 z
M 117.333,-79.1035 L 117.333,-80.084 L 116.521,-80.084 L 116.521,-83.584 L 117.333,-83.584 L 117.333,-88.5928
 L 116.521,-88.5928 L 116.521,-92.0928 L 117.333,-92.0928 L 117.333,-93.0732 L 131.303,-93.0732 L 131.303,-92.0928
 L 132.115,-92.0928 L 132.115,-88.5928 L 131.303,-88.5928 L 131.303,-83.584 L 132.115,-83.584 L 132.115,-80.084
 L 131.303,-80.084 L 131.303,-79.1035 z
M 136.383,-77.833 L 136.383,-78.8135 L 135.57,-78.8135 L 135.57,-82.3145 L 136.383,-82.3145 L 136.383,-87.3232
 L 135.57,-87.3232 L 135.57,-90.8232 L 136.383,-90.8232 L 136.383,-91.8037 L 150.353,-91.8037 L 150.353,-90.8232
 L 151.166,-90.8232 L 151.166,-87.3232 L 150.353,-87.3232 L 150.353,-82.3145 L 151.166,-82.3145 L 151.166,-78.8135
 L 150.353,-78.8135 L 150.353,-77.833 z
M 36.3701,-75.9287 L 36.3701,-76.9092 L 35.5576,-76.9092 L 35.5576,-80.4092 L 36.3701,-80.4092 L 36.3701,-85.418
 L 35.5576,-85.418 L 35.5576,-88.918 L 36.3701,-88.918 L 36.3701,-89.8984 L 50.3408,-89.8984 L 50.3408,-88.918
 L 51.1533,-88.918 L 51.1533,-85.418 L 50.3408,-85.418 L 50.3408,-80.4092 L 51.1533,-80.4092 L 51.1533,-76.9092
 L 50.3408,-76.9092 L 50.3408,-75.9287 z
M 60.1826,-75.9287 L 60.1826,-76.9092 L 59.3701,-76.9092 L 59.3701,-80.4092 L 60.1826,-80.4092 L 60.1826,-85.418
 L 59.3701,-85.418 L 59.3701,-88.918 L 60.1826,-88.918 L 60.1826,-89.8984 L 74.1533,-89.8984 L 74.1533,-88.918
 L 74.9658,-88.918 L 74.9658,-85.418 L 74.1533,-85.418 L 74.1533,-80.4092 L 74.9658,-80.4092 L 74.9658,-76.9092
 L 74.1533,-76.9092 L 74.1533,-75.9287 z
M 173.91,-84.5039 L 173.91,-86.2959 L 175.614,-86.8496 L 176.667,-85.4004 L 175.614,-83.9512 z
M 173.561,-68.4688 L 173.978,-69.3574 L 173.241,-69.7002 L 174.719,-72.873 L 175.456,-72.5303 L 177.571,-77.0693
 L 176.835,-77.4121 L 178.315,-80.584 L 179.053,-80.2412 L 179.467,-81.1299 L 192.128,-75.2246 L 191.712,-74.3359
 L 192.448,-73.9932 L 190.97,-70.8203 L 190.233,-71.1631 L 188.117,-66.624 L 188.854,-66.2812 L 187.373,-63.1094
 L 186.637,-63.4521 L 186.223,-62.5625 z
M 98.2832,-61.6514 L 98.2832,-62.6318 L 97.4697,-62.6318 L 97.4697,-66.1318 L 98.2832,-66.1318 L 98.2832,-71.1406
 L 97.4697,-71.1406 L 97.4697,-74.6406 L 98.2832,-74.6406 L 98.2832,-75.6211 L 112.253,-75.6211 L 112.253,-74.6406
 L 113.065,-74.6406 L 113.065,-71.1406 L 112.253,-71.1406 L 112.253,-66.1318 L 113.065,-66.1318 L 113.065,-62.6318
 L 112.253,-62.6318 L 112.253,-61.6514 z
M 79.2324,-60.0537 L 79.2324,-61.0342 L 78.4199,-61.0342 L 78.4199,-64.5342 L 79.2324,-64.5342 L 79.2324,-69.543
 L 78.4199,-69.543 L 78.4199,-73.043 L 79.2324,-73.043 L 79.2324,-74.0234 L 93.2031,-74.0234 L 93.2031,-73.043
 L 94.0156,-73.043 L 94.0156,-69.543 L 93.2031,-69.543 L 93.2031,-64.5342 L 94.0156,-64.5342 L 94.0156,-61.0342
 L 93.2031,-61.0342 L 93.2031,-60.0537 z
M 117.333,-60.0537 L 117.333,-61.0342 L 116.521,-61.0342 L 116.521,-64.5342 L 117.333,-64.5342 L 117.333,-69.543
 L 116.521,-69.543 L 116.521,-73.043 L 117.333,-73.043 L 117.333,-74.0234 L 131.303,-74.0234 L 131.303,-73.043
 L 132.115,-73.043 L 132.115,-69.543 L 131.303,-69.543 L 131.303,-64.5342 L 132.115,-64.5342 L 132.115,-61.0342
 L 131.303,-61.0342 L 131.303,-60.0537 z
M 190.825,-60.4189 L 191.242,-61.3086 L 190.505,-61.6514 L 191.983,-64.8232 L 192.72,-64.4805 L 194.836,-69.0195
 L 194.1,-69.3623 L 195.58,-72.5352 L 196.316,-72.1924 L 196.73,-73.0811 L 209.393,-67.1758 L 208.976,-66.2861
 L 209.713,-65.9434 L 208.234,-62.7715 L 207.498,-63.1143 L 205.382,-58.5752 L 206.118,-58.2324 L 204.638,-55.0596
 L 203.901,-55.4023 L 203.487,-54.5137 z
M 215.345,-69.0166 L 215.345,-70.7803 L 217.022,-71.3252 L 218.059,-69.8984 L 217.022,-68.4717 z
M 41.1328,-56.8789 L 41.1328,-57.8584 L 40.3203,-57.8584 L 40.3203,-61.3594 L 41.1328,-61.3594 L 41.1328,-66.3682
 L 40.3203,-66.3682 L 40.3203,-69.8682 L 41.1328,-69.8682 L 41.1328,-70.8486 L 55.1025,-70.8486 L 55.1025,-69.8682
 L 55.916,-69.8682 L 55.916,-66.3682 L 55.1025,-66.3682 L 55.1025,-61.3594 L 55.916,-61.3594 L 55.916,-57.8584
 L 55.1025,-57.8584 L 55.1025,-56.8789 z
M 60.1826,-56.8789 L 60.1826,-57.8584 L 59.3701,-57.8584 L 59.3701,-61.3594 L 60.1826,-61.3594 L 60.1826,-66.3682
 L 59.3701,-66.3682 L 59.3701,-69.8682 L 60.1826,-69.8682 L 60.1826,-70.8486 L 74.1533,-70.8486 L 74.1533,-69.8682
 L 74.9658,-69.8682 L 74.9658,-66.3682 L 74.1533,-66.3682 L 74.1533,-61.3594 L 74.9658,-61.3594 L 74.9658,-57.8584
 L 74.1533,-57.8584 L 74.1533,-56.8789 z
M 152.212,-65.9541 L 153.609,-68.9463 L 166.269,-63.043 L 164.874,-60.0508 z
M 31.7969,-66.1143 L 31.7969,-67.9062 L 33.501,-68.46 L 34.5547,-67.0107 L 33.501,-65.5615 z
M 152.479,-45.875 L 152.821,-46.6113 L 148.283,-48.7275 L 147.939,-47.9912 L 144.768,-49.4717 L 145.11,-50.208
 L 144.222,-50.6221 L 150.127,-63.2842 L 151.016,-62.8682 L 151.358,-63.6045 L 154.531,-62.126 L 154.188,-61.3896
 L 158.728,-59.2734 L 159.07,-60.0107 L 162.242,-58.5293 L 161.899,-57.793 L 162.789,-57.3789 L 156.883,-44.7168
 L 155.994,-45.1338 L 155.651,-44.3965 z
M 168.095,-58.5469 L 169.492,-61.5391 L 182.151,-55.6338 L 180.757,-52.6416 z
M 182.776,-43.1553 L 183.192,-44.0439 L 182.456,-44.3867 L 183.935,-47.5596 L 184.671,-47.2158 L 186.786,-51.7549
 L 186.05,-52.0986 L 187.531,-55.2705 L 188.268,-54.9277 L 188.682,-55.8164 L 201.344,-49.9111 L 200.927,-49.0225
 L 201.663,-48.6797 L 200.186,-45.5068 L 199.448,-45.8496 L 197.333,-41.3105 L 198.069,-40.9678 L 196.589,-37.7959
 L 195.852,-38.1387 L 195.438,-37.249 z
M 169.743,-37.8232 L 170.086,-38.5596 L 165.547,-40.6758 L 165.204,-39.9395 L 162.032,-41.4199 L 162.375,-42.1562
 L 161.485,-42.5703 L 167.392,-55.2324 L 168.28,-54.8164 L 168.623,-55.5527 L 171.796,-54.0742 L 171.452,-53.3379
 L 175.991,-51.2217 L 176.335,-51.958 L 179.507,-50.4775 L 179.164,-49.7412 L 180.053,-49.3271 L 174.147,-36.665
 L 173.259,-37.082 L 172.916,-36.3447 z
M 25.0508,-52.2373 L 25.0508,-54.001 L 26.7275,-54.5459 L 27.7637,-53.1191 L 26.7275,-51.6924 z
M 105.456,-48.8311 L 105.456,-50.5947 L 107.134,-51.1396 L 108.17,-49.7129 L 107.134,-48.2861 z
M 128.14,-48.4111 L 128.14,-50.2021 L 129.844,-50.7559 L 130.896,-49.3066 L 129.844,-47.8574 z
M 142.123,-44.3154 L 143.518,-47.3076 L 156.18,-41.4023 L 154.782,-38.4102 z
M 179.676,-40.334 L 179.676,-42.125 L 181.38,-42.6787 L 182.433,-41.2295 L 181.38,-39.7803 z
M 158.006,-36.9062 L 159.4,-39.8984 L 172.062,-33.9951 L 170.665,-31.0039 z
M 174.725,-25.8877 L 175.141,-26.7773 L 174.404,-27.1201 L 175.883,-30.292 L 176.619,-29.9492 L 178.734,-34.4883
 L 177.998,-34.8311 L 179.479,-38.0039 L 180.216,-37.6611 L 180.63,-38.5498 L 193.292,-32.6445 L 192.875,-31.7549
 L 193.611,-31.4121 L 192.134,-28.2402 L 191.396,-28.583 L 189.281,-24.0439 L 190.018,-23.7012 L 188.537,-20.5283
 L 187.8,-20.8711 L 187.386,-19.9824 z
M 188.759,-12.001 L 188.759,-13.7637 L 190.436,-14.3086 L 191.472,-12.8828 L 190.436,-11.4561 z
" stroke="black" fill="lightgray" stroke-width="0.5"/>
</svg>
