<?xml version="1.0" standalone="no"?>
<!DOCTYPE svg PUBLIC "-//W3C//DTD SVG 1.1//EN" "http://www.w3.org/Graphics/SVG/1.1/DTD/svg11.dtd">
<svg width="202mm" height="177mm" viewBox="20 -184 202 177" xmlns="http://www.w3.org/2000/svg" version="1.1">
<title>OpenSCAD Model</title>
<path d="
M 195.961,-10.9033 L 221.925,-66.584 L 218.539,-75.8867 L 185.129,-91.4648 L 181.087,-97.8096 L 181.087,-176.698
 L 174.087,-183.698 L 165.974,-183.698 L 152.094,-178.585 L 144.751,-178.585 L 130.871,-183.698 L 27,-183.698
 L 20,-176.698 L 20,-52.2676 L 27,-45.2676 L 104.133,-45.2676 L 107.091,-44.6123 L 186.658,-7.5166
 z
M 120.12,-178.371 L 120.12,-180.135 L 121.797,-180.68 L 122.833,-179.253 L 121.797,-177.826 z
M 173.604,-176.553 L 173.604,-178.315 L 175.28,-178.86 L 176.316,-177.435 L 175.28,-176.008 z
M 25.0508,-176.553 L 25.0508,-178.315 L 26.7275,-178.86 L 27.7637,-177.435 L 26.7275,-176.008 z
M 107.655,-54.1582 L 38.415,-54.1582 L 28.8896,-63.6826 L 28.8896,-171.633 L 32.0654,-174.808 L 91.3994,-174.808
 L 91.3994,-176.586 L 102.905,-176.586 L 102.905,-174.808 L 139.761,-174.808 L 139.761,-176.586 L 156.932,-176.586
 L 156.932,-174.808 L 168.996,-174.808 L 172.197,-171.633 L 172.197,-85.4004 L 177.099,-85.4004 L 210.19,-69.9697
 L 211.727,-65.751 L 190.043,-19.248 L 185.824,-17.7139 z
M 215.345,-69.0166 L 215.345,-70.7803 L 217.022,-71.3252 L 218.059,-69.8984 L 217.022,-68.4717 z
M 25.0508,-52.2373 L 25.0508,-54.001 L 26.7275,-54.5459 L 27.7637,-53.1191 L 26.7275,-51.6924 z
M 105.456,-48.8311 L 105.456,-50.5947 L 107.134,-51.1396 L 108.17,-49.7129 L 107.134,-48.2861 z
M 188.759,-12.001 L 188.759,-13.7637 L 190.436,-14.3086 L 191.472,-12.8828 L 190.436,-11.4561 z
" stroke="black" fill="lightgray" stroke-width="0.5"/>
</svg>
