solid OpenSCAD_Model
  facet normal 0 0 -1
    outer loop
      vertex 215.345 69.0166 0
      vertex 185.129 91.4648 0
      vertex 215.345 70.7803 0
    endloop
  endfacet
  facet normal 0 0 -1
    outer loop
      vertex 195.961 10.9033 0
      vertex 186.308 37.084 0
      vertex 221.925 66.584 0
    endloop
  endfacet
  facet normal 0 0 -1
    outer loop
      vertex 183.595 37.9658 0
      vertex 185.129 91.4648 0
      vertex 185.271 38.5107 0
    endloop
  endfacet
  facet normal -0 0 -1
    outer loop
      vertex 153.595 156.202 0
      vertex 107.134 51.1396 0
      vertex 121.797 177.826 0
    endloop
  endfacet
  facet normal 0 -0 -1
    outer loop
      vertex 27 183.698 0
      vertex 27.7637 177.435 0
      vertex 26.7275 178.86 0
    endloop
  endfacet
  facet normal 0 0 -1
    outer loop
      vertex 121.797 177.826 0
      vertex 153.595 157.966 0
      vertex 153.595 156.202 0
    endloop
  endfacet
  facet normal 0 0 -1
    outer loop
      vertex 104.133 45.2676 0
      vertex 105.456 50.5947 0
      vertex 105.456 48.8311 0
    endloop
  endfacet
  facet normal 0 0 -1
    outer loop
      vertex 43.5947 156.202 0
      vertex 26.7275 54.5459 0
      vertex 25.0508 54.001 0
    endloop
  endfacet
  facet normal 0 0 -1
    outer loop
      vertex 45.2715 155.657 0
      vertex 107.134 51.1396 0
      vertex 105.456 50.5947 0
    endloop
  endfacet
  facet normal -0 0 -1
    outer loop
      vertex 195.961 10.9033 0
      vertex 186.658 7.5166 0
      vertex 190.436 11.4561 0
    endloop
  endfacet
  facet normal 0 0 -1
    outer loop
      vertex 153.595 156.202 0
      vertex 155.271 155.657 0
      vertex 181.087 97.8096 0
    endloop
  endfacet
  facet normal 0 0 -1
    outer loop
      vertex 108.17 49.7129 0
      vertex 107.134 51.1396 0
      vertex 181.087 97.8096 0
    endloop
  endfacet
  facet normal 0 0 -1
    outer loop
      vertex 155.271 158.511 0
      vertex 173.604 176.553 0
      vertex 156.308 157.084 0
    endloop
  endfacet
  facet normal 0 0 -1
    outer loop
      vertex 20 176.698 0
      vertex 27 183.698 0
      vertex 25.0508 178.315 0
    endloop
  endfacet
  facet normal 0 0 -1
    outer loop
      vertex 27.7637 177.435 0
      vertex 45.2715 158.511 0
      vertex 43.5947 157.966 0
    endloop
  endfacet
  facet normal 0 0 -1
    outer loop
      vertex 120.12 180.135 0
      vertex 27 183.698 0
      vertex 121.797 180.68 0
    endloop
  endfacet
  facet normal 0 0 -1
    outer loop
      vertex 121.797 180.68 0
      vertex 27 183.698 0
      vertex 174.087 183.698 0
    endloop
  endfacet
  facet normal -0 0 -1
    outer loop
      vertex 173.604 178.315 0
      vertex 155.271 158.511 0
      vertex 174.087 183.698 0
    endloop
  endfacet
  facet normal 0 0 -1
    outer loop
      vertex 122.833 179.253 0
      vertex 121.797 180.68 0
      vertex 174.087 183.698 0
    endloop
  endfacet
  facet normal 0 0 -1
    outer loop
      vertex 120.12 180.135 0
      vertex 46.3076 157.084 0
      vertex 45.2715 158.511 0
    endloop
  endfacet
  facet normal 0 0 -1
    outer loop
      vertex 20 176.698 0
      vertex 25.0508 176.553 0
      vertex 26.7275 176.008 0
    endloop
  endfacet
  facet normal 0 0 -1
    outer loop
      vertex 25.0508 178.315 0
      vertex 27 183.698 0
      vertex 26.7275 178.86 0
    endloop
  endfacet
  facet normal 0 0 -1
    outer loop
      vertex 20 176.698 0
      vertex 25.0508 178.315 0
      vertex 25.0508 176.553 0
    endloop
  endfacet
  facet normal -0 -0 -1
    outer loop
      vertex 43.5947 157.966 0
      vertex 43.5947 156.202 0
      vertex 26.7275 176.008 0
    endloop
  endfacet
  facet normal 0 0 -1
    outer loop
      vertex 156.308 157.084 0
      vertex 175.28 176.008 0
      vertex 181.087 176.698 0
    endloop
  endfacet
  facet normal 0 0 -1
    outer loop
      vertex 173.604 178.315 0
      vertex 174.087 183.698 0
      vertex 175.28 178.86 0
    endloop
  endfacet
  facet normal 0 0 -1
    outer loop
      vertex 121.797 177.826 0
      vertex 122.833 179.253 0
      vertex 153.595 157.966 0
    endloop
  endfacet
  facet normal 0 0 -1
    outer loop
      vertex 155.271 158.511 0
      vertex 122.833 179.253 0
      vertex 174.087 183.698 0
    endloop
  endfacet
  facet normal 0 0 -1
    outer loop
      vertex 175.28 178.86 0
      vertex 174.087 183.698 0
      vertex 181.087 176.698 0
    endloop
  endfacet
  facet normal 0 0 -1
    outer loop
      vertex 175.28 176.008 0
      vertex 176.316 177.435 0
      vertex 181.087 176.698 0
    endloop
  endfacet
  facet normal 0 0 -1
    outer loop
      vertex 176.316 177.435 0
      vertex 175.28 178.86 0
      vertex 181.087 176.698 0
    endloop
  endfacet
  facet normal -0 -0 -1
    outer loop
      vertex 26.7275 176.008 0
      vertex 43.5947 156.202 0
      vertex 20 176.698 0
    endloop
  endfacet
  facet normal 0 0 -1
    outer loop
      vertex 107.091 44.6123 0
      vertex 107.134 48.2861 0
      vertex 108.17 49.7129 0
    endloop
  endfacet
  facet normal 0 0 -1
    outer loop
      vertex 20 176.698 0
      vertex 43.5947 156.202 0
      vertex 20 52.2676 0
    endloop
  endfacet
  facet normal 0 0 -1
    outer loop
      vertex 27 45.2676 0
      vertex 26.7275 51.6924 0
      vertex 27.7637 53.1191 0
    endloop
  endfacet
  facet normal 0 -0 -1
    outer loop
      vertex 27.7637 177.435 0
      vertex 43.5947 157.966 0
      vertex 26.7275 176.008 0
    endloop
  endfacet
  facet normal 0 -0 -1
    outer loop
      vertex 120.12 180.135 0
      vertex 120.12 178.371 0
      vertex 46.3076 157.084 0
    endloop
  endfacet
  facet normal -0 0 -1
    outer loop
      vertex 120.12 180.135 0
      vertex 45.2715 158.511 0
      vertex 27 183.698 0
    endloop
  endfacet
  facet normal 0 0 -1
    outer loop
      vertex 45.2715 158.511 0
      vertex 27.7637 177.435 0
      vertex 27 183.698 0
    endloop
  endfacet
  facet normal 0 -0 -1
    outer loop
      vertex 46.3076 157.084 0
      vertex 120.12 178.371 0
      vertex 45.2715 155.657 0
    endloop
  endfacet
  facet normal 0 0 -1
    outer loop
      vertex 181.087 97.8096 0
      vertex 155.271 155.657 0
      vertex 156.308 157.084 0
    endloop
  endfacet
  facet normal 0 0 -1
    outer loop
      vertex 156.308 157.084 0
      vertex 181.087 176.698 0
      vertex 181.087 97.8096 0
    endloop
  endfacet
  facet normal 0 0 -1
    outer loop
      vertex 107.134 51.1396 0
      vertex 45.2715 155.657 0
      vertex 120.12 178.371 0
    endloop
  endfacet
  facet normal 0 0 -1
    outer loop
      vertex 186.658 7.5166 0
      vertex 188.759 13.7637 0
      vertex 188.759 12.001 0
    endloop
  endfacet
  facet normal 0 0 -1
    outer loop
      vertex 153.595 157.966 0
      vertex 122.833 179.253 0
      vertex 155.271 158.511 0
    endloop
  endfacet
  facet normal -0 0 -1
    outer loop
      vertex 173.604 176.553 0
      vertex 155.271 158.511 0
      vertex 173.604 178.315 0
    endloop
  endfacet
  facet normal -0 0 -1
    outer loop
      vertex 175.28 176.008 0
      vertex 156.308 157.084 0
      vertex 173.604 176.553 0
    endloop
  endfacet
  facet normal 0 -0 -1
    outer loop
      vertex 215.345 69.0166 0
      vertex 217.022 68.4717 0
      vertex 186.308 37.084 0
    endloop
  endfacet
  facet normal 0 0 -1
    outer loop
      vertex 217.022 71.3252 0
      vertex 218.539 75.8867 0
      vertex 218.059 69.8984 0
    endloop
  endfacet
  facet normal 0 0 -1
    outer loop
      vertex 185.271 38.5107 0
      vertex 215.345 69.0166 0
      vertex 186.308 37.084 0
    endloop
  endfacet
  facet normal 0 0 -1
    outer loop
      vertex 215.345 70.7803 0
      vertex 218.539 75.8867 0
      vertex 217.022 71.3252 0
    endloop
  endfacet
  facet normal 0 0 -1
    outer loop
      vertex 215.345 70.7803 0
      vertex 185.129 91.4648 0
      vertex 218.539 75.8867 0
    endloop
  endfacet
  facet normal 0 -0 -1
    outer loop
      vertex 218.539 75.8867 0
      vertex 221.925 66.584 0
      vertex 218.059 69.8984 0
    endloop
  endfacet
  facet normal 0 -0 -1
    outer loop
      vertex 218.059 69.8984 0
      vertex 221.925 66.584 0
      vertex 217.022 68.4717 0
    endloop
  endfacet
  facet normal 0 0 -1
    outer loop
      vertex 25.0508 52.2373 0
      vertex 26.7275 51.6924 0
      vertex 27 45.2676 0
    endloop
  endfacet
  facet normal 0 -0 -1
    outer loop
      vertex 27.7637 53.1191 0
      vertex 104.133 45.2676 0
      vertex 27 45.2676 0
    endloop
  endfacet
  facet normal -0 -0 -1
    outer loop
      vertex 25.0508 52.2373 0
      vertex 27 45.2676 0
      vertex 20 52.2676 0
    endloop
  endfacet
  facet normal 0 0 -1
    outer loop
      vertex 43.5947 156.202 0
      vertex 25.0508 54.001 0
      vertex 20 52.2676 0
    endloop
  endfacet
  facet normal 0 -0 -1
    outer loop
      vertex 25.0508 54.001 0
      vertex 25.0508 52.2373 0
      vertex 20 52.2676 0
    endloop
  endfacet
  facet normal -0 0 -1
    outer loop
      vertex 45.2715 155.657 0
      vertex 26.7275 54.5459 0
      vertex 43.5947 156.202 0
    endloop
  endfacet
  facet normal 0 0 -1
    outer loop
      vertex 104.133 45.2676 0
      vertex 105.456 48.8311 0
      vertex 107.134 48.2861 0
    endloop
  endfacet
  facet normal 0 0 -1
    outer loop
      vertex 107.134 51.1396 0
      vertex 120.12 178.371 0
      vertex 121.797 177.826 0
    endloop
  endfacet
  facet normal 0 0 -1
    outer loop
      vertex 107.134 48.2861 0
      vertex 107.091 44.6123 0
      vertex 104.133 45.2676 0
    endloop
  endfacet
  facet normal 0 0 -1
    outer loop
      vertex 105.456 50.5947 0
      vertex 27.7637 53.1191 0
      vertex 26.7275 54.5459 0
    endloop
  endfacet
  facet normal 0 0 -1
    outer loop
      vertex 104.133 45.2676 0
      vertex 27.7637 53.1191 0
      vertex 105.456 50.5947 0
    endloop
  endfacet
  facet normal 0 -0 -1
    outer loop
      vertex 45.2715 155.657 0
      vertex 105.456 50.5947 0
      vertex 26.7275 54.5459 0
    endloop
  endfacet
  facet normal -0 0 -1
    outer loop
      vertex 181.087 97.8096 0
      vertex 107.134 51.1396 0
      vertex 153.595 156.202 0
    endloop
  endfacet
  facet normal -0 0 -1
    outer loop
      vertex 185.129 91.4648 0
      vertex 108.17 49.7129 0
      vertex 181.087 97.8096 0
    endloop
  endfacet
  facet normal 0 0 -1
    outer loop
      vertex 190.436 14.3086 0
      vertex 185.271 35.6572 0
      vertex 186.308 37.084 0
    endloop
  endfacet
  facet normal 0 0 -1
    outer loop
      vertex 186.658 7.5166 0
      vertex 107.091 44.6123 0
      vertex 183.595 36.2021 0
    endloop
  endfacet
  facet normal 0 0 -1
    outer loop
      vertex 183.595 36.2021 0
      vertex 107.091 44.6123 0
      vertex 183.595 37.9658 0
    endloop
  endfacet
  facet normal 0 0 -1
    outer loop
      vertex 185.129 91.4648 0
      vertex 183.595 37.9658 0
      vertex 108.17 49.7129 0
    endloop
  endfacet
  facet normal 0 0 -1
    outer loop
      vertex 183.595 37.9658 0
      vertex 107.091 44.6123 0
      vertex 108.17 49.7129 0
    endloop
  endfacet
  facet normal -0 0 -1
    outer loop
      vertex 215.345 69.0166 0
      vertex 185.271 38.5107 0
      vertex 185.129 91.4648 0
    endloop
  endfacet
  facet normal -0 0 -1
    outer loop
      vertex 221.925 66.584 0
      vertex 186.308 37.084 0
      vertex 217.022 68.4717 0
    endloop
  endfacet
  facet normal 0 0 -1
    outer loop
      vertex 186.658 7.5166 0
      vertex 183.595 36.2021 0
      vertex 188.759 13.7637 0
    endloop
  endfacet
  facet normal 0 0 -1
    outer loop
      vertex 186.658 7.5166 0
      vertex 188.759 12.001 0
      vertex 190.436 11.4561 0
    endloop
  endfacet
  facet normal 0 0 -1
    outer loop
      vertex 183.595 36.2021 0
      vertex 185.271 35.6572 0
      vertex 188.759 13.7637 0
    endloop
  endfacet
  facet normal 0 0 -1
    outer loop
      vertex 190.436 14.3086 0
      vertex 195.961 10.9033 0
      vertex 191.472 12.8828 0
    endloop
  endfacet
  facet normal 0 0 -1
    outer loop
      vertex 195.961 10.9033 0
      vertex 190.436 14.3086 0
      vertex 186.308 37.084 0
    endloop
  endfacet
  facet normal -0 0 -1
    outer loop
      vertex 190.436 14.3086 0
      vertex 188.759 13.7637 0
      vertex 185.271 35.6572 0
    endloop
  endfacet
  facet normal 0 -0 -1
    outer loop
      vertex 191.472 12.8828 0
      vertex 195.961 10.9033 0
      vertex 190.436 11.4561 0
    endloop
  endfacet
  facet normal 0 0 1
    outer loop
      vertex 215.345 70.7803 3
      vertex 185.129 91.4648 3
      vertex 215.345 69.0166 3
    endloop
  endfacet
  facet normal 0 0 1
    outer loop
      vertex 221.925 66.584 3
      vertex 186.308 37.084 3
      vertex 195.961 10.9033 3
    endloop
  endfacet
  facet normal 0 0 1
    outer loop
      vertex 185.271 38.5107 3
      vertex 185.129 91.4648 3
      vertex 183.595 37.9658 3
    endloop
  endfacet
  facet normal 0 0 1
    outer loop
      vertex 121.797 177.826 3
      vertex 107.134 51.1396 3
      vertex 153.595 156.202 3
    endloop
  endfacet
  facet normal -0 0 1
    outer loop
      vertex 26.7275 178.86 3
      vertex 27.7637 177.435 3
      vertex 27 183.698 3
    endloop
  endfacet
  facet normal 0 -0 1
    outer loop
      vertex 153.595 156.202 3
      vertex 153.595 157.966 3
      vertex 121.797 177.826 3
    endloop
  endfacet
  facet normal 0 -0 1
    outer loop
      vertex 105.456 48.8311 3
      vertex 105.456 50.5947 3
      vertex 104.133 45.2676 3
    endloop
  endfacet
  facet normal 0 0 1
    outer loop
      vertex 25.0508 54.001 3
      vertex 26.7275 54.5459 3
      vertex 43.5947 156.202 3
    endloop
  endfacet
  facet normal 0 -0 1
    outer loop
      vertex 105.456 50.5947 3
      vertex 107.134 51.1396 3
      vertex 45.2715 155.657 3
    endloop
  endfacet
  facet normal 0 0 1
    outer loop
      vertex 190.436 11.4561 3
      vertex 186.658 7.5166 3
      vertex 195.961 10.9033 3
    endloop
  endfacet
  facet normal 0 0 1
    outer loop
      vertex 181.087 97.8096 3
      vertex 155.271 155.657 3
      vertex 153.595 156.202 3
    endloop
  endfacet
  facet normal 0 0 1
    outer loop
      vertex 181.087 97.8096 3
      vertex 107.134 51.1396 3
      vertex 108.17 49.7129 3
    endloop
  endfacet
  facet normal 0 -0 1
    outer loop
      vertex 156.308 157.084 3
      vertex 173.604 176.553 3
      vertex 155.271 158.511 3
    endloop
  endfacet
  facet normal 0 -0 1
    outer loop
      vertex 25.0508 178.315 3
      vertex 27 183.698 3
      vertex 20 176.698 3
    endloop
  endfacet
  facet normal 0 -0 1
    outer loop
      vertex 43.5947 157.966 3
      vertex 45.2715 158.511 3
      vertex 27.7637 177.435 3
    endloop
  endfacet
  facet normal 0 0 1
    outer loop
      vertex 121.797 180.68 3
      vertex 27 183.698 3
      vertex 120.12 180.135 3
    endloop
  endfacet
  facet normal 0 0 1
    outer loop
      vertex 174.087 183.698 3
      vertex 27 183.698 3
      vertex 121.797 180.68 3
    endloop
  endfacet
  facet normal 0 0 1
    outer loop
      vertex 174.087 183.698 3
      vertex 155.271 158.511 3
      vertex 173.604 178.315 3
    endloop
  endfacet
  facet normal 0 0 1
    outer loop
      vertex 174.087 183.698 3
      vertex 121.797 180.68 3
      vertex 122.833 179.253 3
    endloop
  endfacet
  facet normal -0 0 1
    outer loop
      vertex 45.2715 158.511 3
      vertex 46.3076 157.084 3
      vertex 120.12 180.135 3
    endloop
  endfacet
  facet normal 0 0 1
    outer loop
      vertex 26.7275 176.008 3
      vertex 25.0508 176.553 3
      vertex 20 176.698 3
    endloop
  endfacet
  facet normal 0 -0 1
    outer loop
      vertex 26.7275 178.86 3
      vertex 27 183.698 3
      vertex 25.0508 178.315 3
    endloop
  endfacet
  facet normal 0 -0 1
    outer loop
      vertex 25.0508 176.553 3
      vertex 25.0508 178.315 3
      vertex 20 176.698 3
    endloop
  endfacet
  facet normal 0 0 1
    outer loop
      vertex 26.7275 176.008 3
      vertex 43.5947 156.202 3
      vertex 43.5947 157.966 3
    endloop
  endfacet
  facet normal 0 0 1
    outer loop
      vertex 181.087 176.698 3
      vertex 175.28 176.008 3
      vertex 156.308 157.084 3
    endloop
  endfacet
  facet normal 0 0 1
    outer loop
      vertex 175.28 178.86 3
      vertex 174.087 183.698 3
      vertex 173.604 178.315 3
    endloop
  endfacet
  facet normal 0 0 1
    outer loop
      vertex 153.595 157.966 3
      vertex 122.833 179.253 3
      vertex 121.797 177.826 3
    endloop
  endfacet
  facet normal 0 0 1
    outer loop
      vertex 174.087 183.698 3
      vertex 122.833 179.253 3
      vertex 155.271 158.511 3
    endloop
  endfacet
  facet normal 0 0 1
    outer loop
      vertex 181.087 176.698 3
      vertex 174.087 183.698 3
      vertex 175.28 178.86 3
    endloop
  endfacet
  facet normal 0 0 1
    outer loop
      vertex 181.087 176.698 3
      vertex 176.316 177.435 3
      vertex 175.28 176.008 3
    endloop
  endfacet
  facet normal 0 0 1
    outer loop
      vertex 181.087 176.698 3
      vertex 175.28 178.86 3
      vertex 176.316 177.435 3
    endloop
  endfacet
  facet normal 0 0 1
    outer loop
      vertex 20 176.698 3
      vertex 43.5947 156.202 3
      vertex 26.7275 176.008 3
    endloop
  endfacet
  facet normal 0 0 1
    outer loop
      vertex 108.17 49.7129 3
      vertex 107.134 48.2861 3
      vertex 107.091 44.6123 3
    endloop
  endfacet
  facet normal 0 0 1
    outer loop
      vertex 20 52.2676 3
      vertex 43.5947 156.202 3
      vertex 20 176.698 3
    endloop
  endfacet
  facet normal 0 0 1
    outer loop
      vertex 27.7637 53.1191 3
      vertex 26.7275 51.6924 3
      vertex 27 45.2676 3
    endloop
  endfacet
  facet normal -0 0 1
    outer loop
      vertex 26.7275 176.008 3
      vertex 43.5947 157.966 3
      vertex 27.7637 177.435 3
    endloop
  endfacet
  facet normal 0 0 1
    outer loop
      vertex 46.3076 157.084 3
      vertex 120.12 178.371 3
      vertex 120.12 180.135 3
    endloop
  endfacet
  facet normal 0 0 1
    outer loop
      vertex 27 183.698 3
      vertex 45.2715 158.511 3
      vertex 120.12 180.135 3
    endloop
  endfacet
  facet normal 0 0 1
    outer loop
      vertex 27 183.698 3
      vertex 27.7637 177.435 3
      vertex 45.2715 158.511 3
    endloop
  endfacet
  facet normal 0 0 1
    outer loop
      vertex 45.2715 155.657 3
      vertex 120.12 178.371 3
      vertex 46.3076 157.084 3
    endloop
  endfacet
  facet normal 0 0 1
    outer loop
      vertex 156.308 157.084 3
      vertex 155.271 155.657 3
      vertex 181.087 97.8096 3
    endloop
  endfacet
  facet normal 0 -0 1
    outer loop
      vertex 181.087 97.8096 3
      vertex 181.087 176.698 3
      vertex 156.308 157.084 3
    endloop
  endfacet
  facet normal 0 0 1
    outer loop
      vertex 120.12 178.371 3
      vertex 45.2715 155.657 3
      vertex 107.134 51.1396 3
    endloop
  endfacet
  facet normal 0 -0 1
    outer loop
      vertex 188.759 12.001 3
      vertex 188.759 13.7637 3
      vertex 186.658 7.5166 3
    endloop
  endfacet
  facet normal 0 0 1
    outer loop
      vertex 155.271 158.511 3
      vertex 122.833 179.253 3
      vertex 153.595 157.966 3
    endloop
  endfacet
  facet normal 0 0 1
    outer loop
      vertex 173.604 178.315 3
      vertex 155.271 158.511 3
      vertex 173.604 176.553 3
    endloop
  endfacet
  facet normal 0 0 1
    outer loop
      vertex 173.604 176.553 3
      vertex 156.308 157.084 3
      vertex 175.28 176.008 3
    endloop
  endfacet
  facet normal 0 0 1
    outer loop
      vertex 186.308 37.084 3
      vertex 217.022 68.4717 3
      vertex 215.345 69.0166 3
    endloop
  endfacet
  facet normal 0 -0 1
    outer loop
      vertex 218.059 69.8984 3
      vertex 218.539 75.8867 3
      vertex 217.022 71.3252 3
    endloop
  endfacet
  facet normal 0 -0 1
    outer loop
      vertex 186.308 37.084 3
      vertex 215.345 69.0166 3
      vertex 185.271 38.5107 3
    endloop
  endfacet
  facet normal 0 -0 1
    outer loop
      vertex 217.022 71.3252 3
      vertex 218.539 75.8867 3
      vertex 215.345 70.7803 3
    endloop
  endfacet
  facet normal 0 0 1
    outer loop
      vertex 218.539 75.8867 3
      vertex 185.129 91.4648 3
      vertex 215.345 70.7803 3
    endloop
  endfacet
  facet normal -0 0 1
    outer loop
      vertex 218.059 69.8984 3
      vertex 221.925 66.584 3
      vertex 218.539 75.8867 3
    endloop
  endfacet
  facet normal -0 0 1
    outer loop
      vertex 217.022 68.4717 3
      vertex 221.925 66.584 3
      vertex 218.059 69.8984 3
    endloop
  endfacet
  facet normal 0 0 1
    outer loop
      vertex 27 45.2676 3
      vertex 26.7275 51.6924 3
      vertex 25.0508 52.2373 3
    endloop
  endfacet
  facet normal 0 0 1
    outer loop
      vertex 27 45.2676 3
      vertex 104.133 45.2676 3
      vertex 27.7637 53.1191 3
    endloop
  endfacet
  facet normal 0 0 1
    outer loop
      vertex 20 52.2676 3
      vertex 27 45.2676 3
      vertex 25.0508 52.2373 3
    endloop
  endfacet
  facet normal 0 0 1
    outer loop
      vertex 20 52.2676 3
      vertex 25.0508 54.001 3
      vertex 43.5947 156.202 3
    endloop
  endfacet
  facet normal -0 0 1
    outer loop
      vertex 20 52.2676 3
      vertex 25.0508 52.2373 3
      vertex 25.0508 54.001 3
    endloop
  endfacet
  facet normal 0 0 1
    outer loop
      vertex 43.5947 156.202 3
      vertex 26.7275 54.5459 3
      vertex 45.2715 155.657 3
    endloop
  endfacet
  facet normal 0 0 1
    outer loop
      vertex 107.134 48.2861 3
      vertex 105.456 48.8311 3
      vertex 104.133 45.2676 3
    endloop
  endfacet
  facet normal 0 0 1
    outer loop
      vertex 121.797 177.826 3
      vertex 120.12 178.371 3
      vertex 107.134 51.1396 3
    endloop
  endfacet
  facet normal -0 0 1
    outer loop
      vertex 104.133 45.2676 3
      vertex 107.091 44.6123 3
      vertex 107.134 48.2861 3
    endloop
  endfacet
  facet normal 0 0 1
    outer loop
      vertex 26.7275 54.5459 3
      vertex 27.7637 53.1191 3
      vertex 105.456 50.5947 3
    endloop
  endfacet
  facet normal 0 0 1
    outer loop
      vertex 105.456 50.5947 3
      vertex 27.7637 53.1191 3
      vertex 104.133 45.2676 3
    endloop
  endfacet
  facet normal -0 0 1
    outer loop
      vertex 26.7275 54.5459 3
      vertex 105.456 50.5947 3
      vertex 45.2715 155.657 3
    endloop
  endfacet
  facet normal 0 0 1
    outer loop
      vertex 153.595 156.202 3
      vertex 107.134 51.1396 3
      vertex 181.087 97.8096 3
    endloop
  endfacet
  facet normal 0 0 1
    outer loop
      vertex 181.087 97.8096 3
      vertex 108.17 49.7129 3
      vertex 185.129 91.4648 3
    endloop
  endfacet
  facet normal 0 0 1
    outer loop
      vertex 186.308 37.084 3
      vertex 185.271 35.6572 3
      vertex 190.436 14.3086 3
    endloop
  endfacet
  facet normal 0 0 1
    outer loop
      vertex 183.595 36.2021 3
      vertex 107.091 44.6123 3
      vertex 186.658 7.5166 3
    endloop
  endfacet
  facet normal 0 0 1
    outer loop
      vertex 183.595 37.9658 3
      vertex 107.091 44.6123 3
      vertex 183.595 36.2021 3
    endloop
  endfacet
  facet normal -0 0 1
    outer loop
      vertex 108.17 49.7129 3
      vertex 183.595 37.9658 3
      vertex 185.129 91.4648 3
    endloop
  endfacet
  facet normal 0 0 1
    outer loop
      vertex 108.17 49.7129 3
      vertex 107.091 44.6123 3
      vertex 183.595 37.9658 3
    endloop
  endfacet
  facet normal 0 0 1
    outer loop
      vertex 185.129 91.4648 3
      vertex 185.271 38.5107 3
      vertex 215.345 69.0166 3
    endloop
  endfacet
  facet normal 0 0 1
    outer loop
      vertex 217.022 68.4717 3
      vertex 186.308 37.084 3
      vertex 221.925 66.584 3
    endloop
  endfacet
  facet normal 0 0 1
    outer loop
      vertex 188.759 13.7637 3
      vertex 183.595 36.2021 3
      vertex 186.658 7.5166 3
    endloop
  endfacet
  facet normal 0 0 1
    outer loop
      vertex 190.436 11.4561 3
      vertex 188.759 12.001 3
      vertex 186.658 7.5166 3
    endloop
  endfacet
  facet normal 0 0 1
    outer loop
      vertex 188.759 13.7637 3
      vertex 185.271 35.6572 3
      vertex 183.595 36.2021 3
    endloop
  endfacet
  facet normal -0 -0 1
    outer loop
      vertex 191.472 12.8828 3
      vertex 195.961 10.9033 3
      vertex 190.436 14.3086 3
    endloop
  endfacet
  facet normal 0 0 1
    outer loop
      vertex 186.308 37.084 3
      vertex 190.436 14.3086 3
      vertex 195.961 10.9033 3
    endloop
  endfacet
  facet normal 0 0 1
    outer loop
      vertex 185.271 35.6572 3
      vertex 188.759 13.7637 3
      vertex 190.436 14.3086 3
    endloop
  endfacet
  facet normal -0 0 1
    outer loop
      vertex 190.436 11.4561 3
      vertex 195.961 10.9033 3
      vertex 191.472 12.8828 3
    endloop
  endfacet
  facet normal 0.90631 -0.422614 0
    outer loop
      vertex 221.925 66.584 0
      vertex 195.961 10.9033 3
      vertex 195.961 10.9033 0
    endloop
  endfacet
  facet normal 0.90631 -0.422614 0
    outer loop
      vertex 221.925 66.584 0
      vertex 221.925 66.584 3
      vertex 195.961 10.9033 3
    endloop
  endfacet
  facet normal 0.93969 0.342029 0
    outer loop
      vertex 218.539 75.8867 0
      vertex 221.925 66.584 3
      vertex 221.925 66.584 0
    endloop
  endfacet
  facet normal 0.93969 0.342029 -0
    outer loop
      vertex 218.539 75.8867 0
      vertex 218.539 75.8867 3
      vertex 221.925 66.584 3
    endloop
  endfacet
  facet normal 0.422591 0.906321 0
    outer loop
      vertex 185.129 91.4648 0
      vertex 218.539 75.8867 3
      vertex 218.539 75.8867 0
    endloop
  endfacet
  facet normal 0.422591 0.906321 -0
    outer loop
      vertex 185.129 91.4648 0
      vertex 185.129 91.4648 3
      vertex 218.539 75.8867 3
    endloop
  endfacet
  facet normal 0.843396 0.537292 0
    outer loop
      vertex 181.087 97.8096 0
      vertex 185.129 91.4648 3
      vertex 185.129 91.4648 0
    endloop
  endfacet
  facet normal 0.843396 0.537292 -0
    outer loop
      vertex 181.087 97.8096 0
      vertex 181.087 97.8096 3
      vertex 185.129 91.4648 3
    endloop
  endfacet
  facet normal 1 0 0
    outer loop
      vertex 181.087 176.698 0
      vertex 181.087 97.8096 3
      vertex 181.087 97.8096 0
    endloop
  endfacet
  facet normal 1 0 -0
    outer loop
      vertex 181.087 176.698 0
      vertex 181.087 176.698 3
      vertex 181.087 97.8096 3
    endloop
  endfacet
  facet normal 0.707107 0.707107 0
    outer loop
      vertex 174.087 183.698 0
      vertex 181.087 176.698 3
      vertex 181.087 176.698 0
    endloop
  endfacet
  facet normal 0.707107 0.707107 -0
    outer loop
      vertex 174.087 183.698 0
      vertex 174.087 183.698 3
      vertex 181.087 176.698 3
    endloop
  endfacet
  facet normal 0 1 0
    outer loop
      vertex 27 183.698 0
      vertex 174.087 183.698 3
      vertex 174.087 183.698 0
    endloop
  endfacet
  facet normal 0 1 0
    outer loop
      vertex 27 183.698 0
      vertex 27 183.698 3
      vertex 174.087 183.698 3
    endloop
  endfacet
  facet normal -0.707107 0.707107 0
    outer loop
      vertex 20 176.698 0
      vertex 27 183.698 3
      vertex 27 183.698 0
    endloop
  endfacet
  facet normal -0.707107 0.707107 0
    outer loop
      vertex 20 176.698 0
      vertex 20 176.698 3
      vertex 27 183.698 3
    endloop
  endfacet
  facet normal -1 0 0
    outer loop
      vertex 20 52.2676 0
      vertex 20 176.698 3
      vertex 20 176.698 0
    endloop
  endfacet
  facet normal -1 0 0
    outer loop
      vertex 20 52.2676 0
      vertex 20 52.2676 3
      vertex 20 176.698 3
    endloop
  endfacet
  facet normal -0.707107 -0.707107 0
    outer loop
      vertex 27 45.2676 0
      vertex 20 52.2676 3
      vertex 20 52.2676 0
    endloop
  endfacet
  facet normal -0.707107 -0.707107 0
    outer loop
      vertex 27 45.2676 0
      vertex 27 45.2676 3
      vertex 20 52.2676 3
    endloop
  endfacet
  facet normal 0 -1 0
    outer loop
      vertex 104.133 45.2676 0
      vertex 27 45.2676 3
      vertex 27 45.2676 0
    endloop
  endfacet
  facet normal 0 -1 0
    outer loop
      vertex 104.133 45.2676 0
      vertex 104.133 45.2676 3
      vertex 27 45.2676 3
    endloop
  endfacet
  facet normal -0.216291 -0.976329 0
    outer loop
      vertex 107.091 44.6123 0
      vertex 104.133 45.2676 3
      vertex 104.133 45.2676 0
    endloop
  endfacet
  facet normal -0.216291 -0.976329 0
    outer loop
      vertex 107.091 44.6123 0
      vertex 107.091 44.6123 3
      vertex 104.133 45.2676 3
    endloop
  endfacet
  facet normal -0.422553 -0.906338 0
    outer loop
      vertex 186.658 7.5166 0
      vertex 107.091 44.6123 3
      vertex 107.091 44.6123 0
    endloop
  endfacet
  facet normal -0.422553 -0.906338 0
    outer loop
      vertex 186.658 7.5166 0
      vertex 186.658 7.5166 3
      vertex 107.091 44.6123 3
    endloop
  endfacet
  facet normal 0.342081 -0.93967 0
    outer loop
      vertex 195.961 10.9033 0
      vertex 186.658 7.5166 3
      vertex 186.658 7.5166 0
    endloop
  endfacet
  facet normal 0.342081 -0.93967 0
    outer loop
      vertex 195.961 10.9033 0
      vertex 195.961 10.9033 3
      vertex 186.658 7.5166 3
    endloop
  endfacet
  facet normal 1 0 -0
    outer loop
      vertex 120.12 180.135 0
      vertex 120.12 180.135 3
      vertex 120.12 178.371 0
    endloop
  endfacet
  facet normal 1 -0 0
    outer loop
      vertex 120.12 178.371 3
      vertex 120.12 178.371 0
      vertex 120.12 180.135 3
    endloop
  endfacet
  facet normal 0.309073 -0.951038 0
    outer loop
      vertex 121.797 180.68 0
      vertex 121.797 180.68 3
      vertex 120.12 180.135 0
    endloop
  endfacet
  facet normal 0.309073 -0.951038 0
    outer loop
      vertex 120.12 180.135 3
      vertex 120.12 180.135 0
      vertex 121.797 180.68 3
    endloop
  endfacet
  facet normal -0.809226 -0.587497 0
    outer loop
      vertex 122.833 179.253 0
      vertex 122.833 179.253 3
      vertex 121.797 180.68 0
    endloop
  endfacet
  facet normal -0.809226 -0.587497 -0
    outer loop
      vertex 121.797 180.68 3
      vertex 121.797 180.68 0
      vertex 122.833 179.253 3
    endloop
  endfacet
  facet normal -0.809226 0.587497 0
    outer loop
      vertex 121.797 177.826 0
      vertex 121.797 177.826 3
      vertex 122.833 179.253 0
    endloop
  endfacet
  facet normal -0.809226 0.587497 0
    outer loop
      vertex 122.833 179.253 3
      vertex 122.833 179.253 0
      vertex 121.797 177.826 3
    endloop
  endfacet
  facet normal 0.309073 0.951038 -0
    outer loop
      vertex 120.12 178.371 0
      vertex 120.12 178.371 3
      vertex 121.797 177.826 0
    endloop
  endfacet
  facet normal 0.309073 0.951038 0
    outer loop
      vertex 121.797 177.826 3
      vertex 121.797 177.826 0
      vertex 120.12 178.371 3
    endloop
  endfacet
  facet normal 1 0 -0
    outer loop
      vertex 25.0508 178.315 0
      vertex 25.0508 178.315 3
      vertex 25.0508 176.553 0
    endloop
  endfacet
  facet normal 1 -0 0
    outer loop
      vertex 25.0508 176.553 3
      vertex 25.0508 176.553 0
      vertex 25.0508 178.315 3
    endloop
  endfacet
  facet normal 0.309123 -0.951022 0
    outer loop
      vertex 26.7275 178.86 0
      vertex 26.7275 178.86 3
      vertex 25.0508 178.315 0
    endloop
  endfacet
  facet normal 0.309123 -0.951022 0
    outer loop
      vertex 25.0508 178.315 3
      vertex 25.0508 178.315 0
      vertex 26.7275 178.86 3
    endloop
  endfacet
  facet normal -0.80878 -0.588111 0
    outer loop
      vertex 27.7637 177.435 0
      vertex 27.7637 177.435 3
      vertex 26.7275 178.86 0
    endloop
  endfacet
  facet normal -0.80878 -0.588111 -0
    outer loop
      vertex 26.7275 178.86 3
      vertex 26.7275 178.86 0
      vertex 27.7637 177.435 3
    endloop
  endfacet
  facet normal -0.809172 0.587571 0
    outer loop
      vertex 26.7275 176.008 0
      vertex 26.7275 176.008 3
      vertex 27.7637 177.435 0
    endloop
  endfacet
  facet normal -0.809172 0.587571 0
    outer loop
      vertex 27.7637 177.435 3
      vertex 27.7637 177.435 0
      vertex 26.7275 176.008 3
    endloop
  endfacet
  facet normal 0.309123 0.951022 -0
    outer loop
      vertex 25.0508 176.553 0
      vertex 25.0508 176.553 3
      vertex 26.7275 176.008 0
    endloop
  endfacet
  facet normal 0.309123 0.951022 0
    outer loop
      vertex 26.7275 176.008 3
      vertex 26.7275 176.008 0
      vertex 25.0508 176.553 3
    endloop
  endfacet
  facet normal 1 0 -0
    outer loop
      vertex 173.604 178.315 0
      vertex 173.604 178.315 3
      vertex 173.604 176.553 0
    endloop
  endfacet
  facet normal 1 -0 0
    outer loop
      vertex 173.604 176.553 3
      vertex 173.604 176.553 0
      vertex 173.604 178.315 3
    endloop
  endfacet
  facet normal 0.30924 -0.950984 0
    outer loop
      vertex 175.28 178.86 0
      vertex 175.28 178.86 3
      vertex 173.604 178.315 0
    endloop
  endfacet
  facet normal 0.30924 -0.950984 0
    outer loop
      vertex 173.604 178.315 3
      vertex 173.604 178.315 0
      vertex 175.28 178.86 3
    endloop
  endfacet
  facet normal -0.808834 -0.588037 0
    outer loop
      vertex 176.316 177.435 0
      vertex 176.316 177.435 3
      vertex 175.28 178.86 0
    endloop
  endfacet
  facet normal -0.808834 -0.588037 -0
    outer loop
      vertex 175.28 178.86 3
      vertex 175.28 178.86 0
      vertex 176.316 177.435 3
    endloop
  endfacet
  facet normal -0.809226 0.587497 0
    outer loop
      vertex 175.28 176.008 0
      vertex 175.28 176.008 3
      vertex 176.316 177.435 0
    endloop
  endfacet
  facet normal -0.809226 0.587497 0
    outer loop
      vertex 176.316 177.435 3
      vertex 176.316 177.435 0
      vertex 175.28 176.008 3
    endloop
  endfacet
  facet normal 0.30924 0.950984 -0
    outer loop
      vertex 173.604 176.553 0
      vertex 173.604 176.553 3
      vertex 175.28 176.008 0
    endloop
  endfacet
  facet normal 0.30924 0.950984 0
    outer loop
      vertex 175.28 176.008 3
      vertex 175.28 176.008 0
      vertex 173.604 176.553 3
    endloop
  endfacet
  facet normal 1 0 -0
    outer loop
      vertex 43.5947 157.966 0
      vertex 43.5947 157.966 3
      vertex 43.5947 156.202 0
    endloop
  endfacet
  facet normal 1 -0 0
    outer loop
      vertex 43.5947 156.202 3
      vertex 43.5947 156.202 0
      vertex 43.5947 157.966 3
    endloop
  endfacet
  facet normal 0.309107 -0.951027 0
    outer loop
      vertex 45.2715 158.511 0
      vertex 45.2715 158.511 3
      vertex 43.5947 157.966 0
    endloop
  endfacet
  facet normal 0.309107 -0.951027 0
    outer loop
      vertex 43.5947 157.966 3
      vertex 43.5947 157.966 0
      vertex 45.2715 158.511 3
    endloop
  endfacet
  facet normal -0.809199 -0.587534 0
    outer loop
      vertex 46.3076 157.084 0
      vertex 46.3076 157.084 3
      vertex 45.2715 158.511 0
    endloop
  endfacet
  facet normal -0.809199 -0.587534 -0
    outer loop
      vertex 45.2715 158.511 3
      vertex 45.2715 158.511 0
      vertex 46.3076 157.084 3
    endloop
  endfacet
  facet normal -0.809199 0.587534 0
    outer loop
      vertex 45.2715 155.657 0
      vertex 45.2715 155.657 3
      vertex 46.3076 157.084 0
    endloop
  endfacet
  facet normal -0.809199 0.587534 0
    outer loop
      vertex 46.3076 157.084 3
      vertex 46.3076 157.084 0
      vertex 45.2715 155.657 3
    endloop
  endfacet
  facet normal 0.309107 0.951027 -0
    outer loop
      vertex 43.5947 156.202 0
      vertex 43.5947 156.202 3
      vertex 45.2715 155.657 0
    endloop
  endfacet
  facet normal 0.309107 0.951027 0
    outer loop
      vertex 45.2715 155.657 3
      vertex 45.2715 155.657 0
      vertex 43.5947 156.202 3
    endloop
  endfacet
  facet normal 1 0 -0
    outer loop
      vertex 153.595 157.966 0
      vertex 153.595 157.966 3
      vertex 153.595 156.202 0
    endloop
  endfacet
  facet normal 1 -0 0
    outer loop
      vertex 153.595 156.202 3
      vertex 153.595 156.202 0
      vertex 153.595 157.966 3
    endloop
  endfacet
  facet normal 0.30924 -0.950984 0
    outer loop
      vertex 155.271 158.511 0
      vertex 155.271 158.511 3
      vertex 153.595 157.966 0
    endloop
  endfacet
  facet normal 0.30924 -0.950984 0
    outer loop
      vertex 153.595 157.966 3
      vertex 153.595 157.966 0
      vertex 155.271 158.511 3
    endloop
  endfacet
  facet normal -0.808957 -0.587868 0
    outer loop
      vertex 156.308 157.084 0
      vertex 156.308 157.084 3
      vertex 155.271 158.511 0
    endloop
  endfacet
  facet normal -0.808957 -0.587868 -0
    outer loop
      vertex 155.271 158.511 3
      vertex 155.271 158.511 0
      vertex 156.308 157.084 3
    endloop
  endfacet
  facet normal -0.808957 0.587868 0
    outer loop
      vertex 155.271 155.657 0
      vertex 155.271 155.657 3
      vertex 156.308 157.084 0
    endloop
  endfacet
  facet normal -0.808957 0.587868 0
    outer loop
      vertex 156.308 157.084 3
      vertex 156.308 157.084 0
      vertex 155.271 155.657 3
    endloop
  endfacet
  facet normal 0.30924 0.950984 -0
    outer loop
      vertex 153.595 156.202 0
      vertex 153.595 156.202 3
      vertex 155.271 155.657 0
    endloop
  endfacet
  facet normal 0.30924 0.950984 0
    outer loop
      vertex 155.271 155.657 3
      vertex 155.271 155.657 0
      vertex 153.595 156.202 3
    endloop
  endfacet
  facet normal 1 0 -0
    outer loop
      vertex 215.345 70.7803 0
      vertex 215.345 70.7803 3
      vertex 215.345 69.0166 0
    endloop
  endfacet
  facet normal 1 -0 0
    outer loop
      vertex 215.345 69.0166 3
      vertex 215.345 69.0166 0
      vertex 215.345 70.7803 3
    endloop
  endfacet
  facet normal 0.309022 -0.951055 0
    outer loop
      vertex 217.022 71.3252 0
      vertex 217.022 71.3252 3
      vertex 215.345 70.7803 0
    endloop
  endfacet
  facet normal 0.309022 -0.951055 0
    outer loop
      vertex 215.345 70.7803 3
      vertex 215.345 70.7803 0
      vertex 217.022 71.3252 3
    endloop
  endfacet
  facet normal -0.808917 -0.587922 0
    outer loop
      vertex 218.059 69.8984 0
      vertex 218.059 69.8984 3
      vertex 217.022 71.3252 0
    endloop
  endfacet
  facet normal -0.808917 -0.587922 -0
    outer loop
      vertex 217.022 71.3252 3
      vertex 217.022 71.3252 0
      vertex 218.059 69.8984 3
    endloop
  endfacet
  facet normal -0.808898 0.587949 0
    outer loop
      vertex 217.022 68.4717 0
      vertex 217.022 68.4717 3
      vertex 218.059 69.8984 0
    endloop
  endfacet
  facet normal -0.808898 0.587949 0
    outer loop
      vertex 218.059 69.8984 3
      vertex 218.059 69.8984 0
      vertex 217.022 68.4717 3
    endloop
  endfacet
  facet normal 0.309022 0.951055 -0
    outer loop
      vertex 215.345 69.0166 0
      vertex 215.345 69.0166 3
      vertex 217.022 68.4717 0
    endloop
  endfacet
  facet normal 0.309022 0.951055 0
    outer loop
      vertex 217.022 68.4717 3
      vertex 217.022 68.4717 0
      vertex 215.345 69.0166 3
    endloop
  endfacet
  facet normal 1 0 -0
    outer loop
      vertex 25.0508 54.001 0
      vertex 25.0508 54.001 3
      vertex 25.0508 52.2373 0
    endloop
  endfacet
  facet normal 1 -0 0
    outer loop
      vertex 25.0508 52.2373 3
      vertex 25.0508 52.2373 0
      vertex 25.0508 54.001 3
    endloop
  endfacet
  facet normal 0.309072 -0.951039 0
    outer loop
      vertex 26.7275 54.5459 0
      vertex 26.7275 54.5459 3
      vertex 25.0508 54.001 0
    endloop
  endfacet
  facet normal 0.309072 -0.951039 0
    outer loop
      vertex 25.0508 54.001 3
      vertex 25.0508 54.001 0
      vertex 26.7275 54.5459 3
    endloop
  endfacet
  facet normal -0.809133 -0.587625 0
    outer loop
      vertex 27.7637 53.1191 0
      vertex 27.7637 53.1191 3
      vertex 26.7275 54.5459 0
    endloop
  endfacet
  facet normal -0.809133 -0.587625 -0
    outer loop
      vertex 26.7275 54.5459 3
      vertex 26.7275 54.5459 0
      vertex 27.7637 53.1191 3
    endloop
  endfacet
  facet normal -0.809114 0.587652 0
    outer loop
      vertex 26.7275 51.6924 0
      vertex 26.7275 51.6924 3
      vertex 27.7637 53.1191 0
    endloop
  endfacet
  facet normal -0.809114 0.587652 0
    outer loop
      vertex 27.7637 53.1191 3
      vertex 27.7637 53.1191 0
      vertex 26.7275 51.6924 3
    endloop
  endfacet
  facet normal 0.309072 0.951039 -0
    outer loop
      vertex 25.0508 52.2373 0
      vertex 25.0508 52.2373 3
      vertex 26.7275 51.6924 0
    endloop
  endfacet
  facet normal 0.309072 0.951039 0
    outer loop
      vertex 26.7275 51.6924 3
      vertex 26.7275 51.6924 0
      vertex 25.0508 52.2373 3
    endloop
  endfacet
  facet normal 1 0 -0
    outer loop
      vertex 105.456 50.5947 0
      vertex 105.456 50.5947 3
      vertex 105.456 48.8311 0
    endloop
  endfacet
  facet normal 1 -0 0
    outer loop
      vertex 105.456 48.8311 3
      vertex 105.456 48.8311 0
      vertex 105.456 50.5947 3
    endloop
  endfacet
  facet normal 0.308855 -0.951109 0
    outer loop
      vertex 107.134 51.1396 0
      vertex 107.134 51.1396 3
      vertex 105.456 50.5947 0
    endloop
  endfacet
  facet normal 0.308855 -0.951109 0
    outer loop
      vertex 105.456 50.5947 3
      vertex 105.456 50.5947 0
      vertex 107.134 51.1396 3
    endloop
  endfacet
  facet normal -0.809168 -0.587578 0
    outer loop
      vertex 108.17 49.7129 0
      vertex 108.17 49.7129 3
      vertex 107.134 51.1396 0
    endloop
  endfacet
  facet normal -0.809168 -0.587578 -0
    outer loop
      vertex 107.134 51.1396 3
      vertex 107.134 51.1396 0
      vertex 108.17 49.7129 3
    endloop
  endfacet
  facet normal -0.809187 0.587551 0
    outer loop
      vertex 107.134 48.2861 0
      vertex 107.134 48.2861 3
      vertex 108.17 49.7129 0
    endloop
  endfacet
  facet normal -0.809187 0.587551 0
    outer loop
      vertex 108.17 49.7129 3
      vertex 108.17 49.7129 0
      vertex 107.134 48.2861 3
    endloop
  endfacet
  facet normal 0.308907 0.951092 -0
    outer loop
      vertex 105.456 48.8311 0
      vertex 105.456 48.8311 3
      vertex 107.134 48.2861 0
    endloop
  endfacet
  facet normal 0.308907 0.951092 0
    outer loop
      vertex 107.134 48.2861 3
      vertex 107.134 48.2861 0
      vertex 105.456 48.8311 3
    endloop
  endfacet
  facet normal 1 0 -0
    outer loop
      vertex 183.595 37.9658 0
      vertex 183.595 37.9658 3
      vertex 183.595 36.2021 0
    endloop
  endfacet
  facet normal 1 -0 0
    outer loop
      vertex 183.595 36.2021 3
      vertex 183.595 36.2021 0
      vertex 183.595 37.9658 3
    endloop
  endfacet
  facet normal 0.309189 -0.951001 0
    outer loop
      vertex 185.271 38.5107 0
      vertex 185.271 38.5107 3
      vertex 183.595 37.9658 0
    endloop
  endfacet
  facet normal 0.309189 -0.951001 0
    outer loop
      vertex 183.595 37.9658 3
      vertex 183.595 37.9658 0
      vertex 185.271 38.5107 3
    endloop
  endfacet
  facet normal -0.808898 -0.587949 0
    outer loop
      vertex 186.308 37.084 0
      vertex 186.308 37.084 3
      vertex 185.271 38.5107 0
    endloop
  endfacet
  facet normal -0.808898 -0.587949 -0
    outer loop
      vertex 185.271 38.5107 3
      vertex 185.271 38.5107 0
      vertex 186.308 37.084 3
    endloop
  endfacet
  facet normal -0.808917 0.587922 0
    outer loop
      vertex 185.271 35.6572 0
      vertex 185.271 35.6572 3
      vertex 186.308 37.084 0
    endloop
  endfacet
  facet normal -0.808917 0.587922 0
    outer loop
      vertex 186.308 37.084 3
      vertex 186.308 37.084 0
      vertex 185.271 35.6572 3
    endloop
  endfacet
  facet normal 0.309189 0.951001 -0
    outer loop
      vertex 183.595 36.2021 0
      vertex 183.595 36.2021 3
      vertex 185.271 35.6572 0
    endloop
  endfacet
  facet normal 0.309189 0.951001 0
    outer loop
      vertex 185.271 35.6572 3
      vertex 185.271 35.6572 0
      vertex 183.595 36.2021 3
    endloop
  endfacet
  facet normal 1 0 -0
    outer loop
      vertex 188.759 13.7637 0
      vertex 188.759 13.7637 3
      vertex 188.759 12.001 0
    endloop
  endfacet
  facet normal 1 -0 0
    outer loop
      vertex 188.759 12.001 3
      vertex 188.759 12.001 0
      vertex 188.759 13.7637 3
    endloop
  endfacet
  facet normal 0.309022 -0.951055 0
    outer loop
      vertex 190.436 14.3086 0
      vertex 190.436 14.3086 3
      vertex 188.759 13.7637 0
    endloop
  endfacet
  facet normal 0.309022 -0.951055 0
    outer loop
      vertex 188.759 13.7637 3
      vertex 188.759 13.7637 0
      vertex 190.436 14.3086 3
    endloop
  endfacet
  facet normal -0.808991 -0.587821 0
    outer loop
      vertex 191.472 12.8828 0
      vertex 191.472 12.8828 3
      vertex 190.436 14.3086 0
    endloop
  endfacet
  facet normal -0.808991 -0.587821 -0
    outer loop
      vertex 190.436 14.3086 3
      vertex 190.436 14.3086 0
      vertex 191.472 12.8828 3
    endloop
  endfacet
  facet normal -0.809168 0.587578 0
    outer loop
      vertex 190.436 11.4561 0
      vertex 190.436 11.4561 3
      vertex 191.472 12.8828 0
    endloop
  endfacet
  facet normal -0.809168 0.587578 0
    outer loop
      vertex 191.472 12.8828 3
      vertex 191.472 12.8828 0
      vertex 190.436 11.4561 3
    endloop
  endfacet
  facet normal 0.309022 0.951055 -0
    outer loop
      vertex 188.759 12.001 0
      vertex 188.759 12.001 3
      vertex 190.436 11.4561 0
    endloop
  endfacet
  facet normal 0.309022 0.951055 0
    outer loop
      vertex 190.436 11.4561 3
      vertex 190.436 11.4561 0
      vertex 188.759 12.001 3
    endloop
  endfacet
endsolid OpenSCAD_Model
